{
.appVersion = "926";
copyright = "(C) 2008-2014 Andrey V. Panov (panov@canopus.iacp.dvo.ru), with Reserved Font Name Istok.";
customParameters = (
{
name = vendorID;
value = PfEd;
}
);
date = "2016-10-15 02:21:03 +0000";
designer = "Andrey V. Panov";
designerURL = "http://code.google.com/u/andrej.panov/";
disablesAutomaticAlignment = 1;
familyName = Istok;
fontMaster = (
{
alignmentZones = (
"{-20, 20}"
);
ascender = 1548;
capHeight = 1434;
descender = -500;
id = UUID0;
italicAngle = 13;
weightValue = 0;
xHeight = 1050;
},
{
alignmentZones = (
"{-20, 20}"
);
ascender = 1548;
capHeight = 1434;
descender = -500;
id = "05202388-ED6B-49B3-97C3-39168626F3FE";
italicAngle = 13;
weight = Bold;
xHeight = 1050;
}
);
glyphs = (
{
glyphname = A;
lastChange = "2016-10-15 02:20:23 +0000";
layers = (
{
layerId = UUID0;
paths = (
{
closed = 1;
nodes = (
"65 0 LINE",
"101 0 OFFCURVE",
"129 16 OFFCURVE",
"148 49 CURVE SMOOTH",
"343 380 LINE",
"958 380 LINE",
"1015 49 LINE",
"1020 16 OFFCURVE",
"1041 0 OFFCURVE",
"1076 0 CURVE SMOOTH",
"1167 0 LINE SMOOTH",
"1202 0 OFFCURVE",
"1216 22 OFFCURVE",
"1209 66 CURVE",
"983 1373 LINE SMOOTH",
"976 1414 OFFCURVE",
"958 1434 OFFCURVE",
"931 1434 CURVE SMOOTH",
"791 1434 LINE SMOOTH",
"762 1434 OFFCURVE",
"735 1414 OFFCURVE",
"711 1373 CURVE SMOOTH",
"-59 66 LINE SMOOTH",
"-85 22 OFFCURVE",
"-81 0 OFFCURVE",
"-47 0 CURVE SMOOTH"
);
},
{
closed = 1;
nodes = (
"675 944 LINE",
"751 1075 OFFCURVE",
"802 1166 OFFCURVE",
"826 1261 CURVE",
"830 1261 LINE",
"830 1212 OFFCURVE",
"833 1158 OFFCURVE",
"838 1101 CURVE SMOOTH",
"843 1044 OFFCURVE",
"850 992 OFFCURVE",
"859 944 CURVE SMOOTH",
"929 544 LINE",
"441 544 LINE"
);
}
);
width = 1360;
},
{
layerId = "05202388-ED6B-49B3-97C3-39168626F3FE";
paths = (
{
closed = 1;
nodes = (
"149 0 LINE",
"193 0 OFFCURVE",
"229 23 OFFCURVE",
"256 69 CURVE SMOOTH",
"415 338 LINE",
"923 338 LINE",
"968 69 LINE",
"975 23 OFFCURVE",
"1001 0 OFFCURVE",
"1045 0 CURVE SMOOTH",
"1184 0 LINE SMOOTH",
"1232 0 OFFCURVE",
"1252 22 OFFCURVE",
"1245 66 CURVE SMOOTH",
"1029 1353 LINE SMOOTH",
"1020 1407 OFFCURVE",
"994 1434 OFFCURVE",
"952 1434 CURVE SMOOTH",
"812 1434 LINE SMOOTH",
"770 1434 OFFCURVE",
"733 1407 OFFCURVE",
"701 1353 CURVE SMOOTH",
"-63 66 LINE SMOOTH",
"-89 22 OFFCURVE",
"-78 0 OFFCURVE",
"-30 0 CURVE SMOOTH"
);
},
{
closed = 1;
nodes = (
"751 904 LINE",
"774 943 OFFCURVE",
"789 970 OFFCURVE",
"795 987 CURVE SMOOTH",
"802 1004 OFFCURVE",
"810 1028 OFFCURVE",
"821 1061 CURVE",
"825 1061 LINE",
"821 1028 OFFCURVE",
"819 1002 OFFCURVE",
"819 981 CURVE SMOOTH",
"819 961 OFFCURVE",
"822 935 OFFCURVE",
"827 904 CURVE SMOOTH",
"883 586 LINE",
"561 586 LINE"
);
}
);
width = 1394;
}
);
unicode = 0041;
},
{
glyphname = Aogonek;
lastChange = "2016-10-15 02:20:23 +0000";
layers = (
{
layerId = UUID0;
paths = (
{
closed = 1;
nodes = (
"65 0 LINE",
"101 0 OFFCURVE",
"129 16 OFFCURVE",
"148 49 CURVE SMOOTH",
"343 380 LINE",
"958 380 LINE",
"1015 49 LINE SMOOTH",
"1020 22 OFFCURVE",
"1008 -1 OFFCURVE",
"980 -20 CURVE SMOOTH",
"963 -32 OFFCURVE",
"931 -55 OFFCURVE",
"884 -90 CURVE SMOOTH",
"837 -125 OFFCURVE",
"808 -157 OFFCURVE",
"795 -187 CURVE SMOOTH",
"782 -217 OFFCURVE",
"776 -249 OFFCURVE",
"776 -284 CURVE SMOOTH",
"776 -361 OFFCURVE",
"839 -417 OFFCURVE",
"972 -417 CURVE SMOOTH",
"1021 -417 OFFCURVE",
"1060 -414 OFFCURVE",
"1090 -408 CURVE SMOOTH",
"1103 -405 OFFCURVE",
"1109 -396 OFFCURVE",
"1108 -380 CURVE SMOOTH",
"1102 -303 LINE SMOOTH",
"1101 -285 OFFCURVE",
"1092 -278 OFFCURVE",
"1075 -281 CURVE SMOOTH",
"1055 -285 OFFCURVE",
"1031 -287 OFFCURVE",
"1002 -287 CURVE SMOOTH",
"954 -287 OFFCURVE",
"936 -269 OFFCURVE",
"936 -233 CURVE SMOOTH",
"936 -197 OFFCURVE",
"973 -152 OFFCURVE",
"1046 -99 CURVE SMOOTH",
"1119 -46 OFFCURVE",
"1166 -13 OFFCURVE",
"1186 0 CURVE SMOOTH",
"1206 13 OFFCURVE",
"1214 35 OFFCURVE",
"1209 66 CURVE SMOOTH",
"983 1373 LINE SMOOTH",
"976 1414 OFFCURVE",
"958 1434 OFFCURVE",
"931 1434 CURVE SMOOTH",
"791 1434 LINE SMOOTH",
"762 1434 OFFCURVE",
"735 1414 OFFCURVE",
"711 1373 CURVE SMOOTH",
"-59 66 LINE SMOOTH",
"-85 22 OFFCURVE",
"-81 0 OFFCURVE",
"-47 0 CURVE SMOOTH"
);
},
{
closed = 1;
nodes = (
"675 944 LINE",
"751 1075 OFFCURVE",
"802 1166 OFFCURVE",
"826 1261 CURVE",
"830 1261 LINE",
"830 1212 OFFCURVE",
"833 1158 OFFCURVE",
"838 1101 CURVE SMOOTH",
"843 1044 OFFCURVE",
"850 992 OFFCURVE",
"859 944 CURVE SMOOTH",
"929 544 LINE",
"441 544 LINE"
);
}
);
width = 1360;
},
{
layerId = "05202388-ED6B-49B3-97C3-39168626F3FE";
paths = (
{
closed = 1;
nodes = (
"149 0 LINE",
"193 0 OFFCURVE",
"229 23 OFFCURVE",
"256 69 CURVE SMOOTH",
"415 338 LINE",
"923 338 LINE",
"968 69 LINE SMOOTH",
"973 39 OFFCURVE",
"960 14 OFFCURVE",
"928 -7 CURVE SMOOTH",
"819 -78 OFFCURVE",
"749 -150 OFFCURVE",
"737 -195 CURVE SMOOTH",
"731 -218 OFFCURVE",
"728 -242 OFFCURVE",
"728 -266 CURVE SMOOTH",
"728 -355 OFFCURVE",
"807 -420 OFFCURVE",
"972 -420 CURVE SMOOTH",
"1024 -420 OFFCURVE",
"1073 -417 OFFCURVE",
"1119 -411 CURVE SMOOTH",
"1142 -408 OFFCURVE",
"1154 -393 OFFCURVE",
"1153 -368 CURVE SMOOTH",
"1150 -253 LINE SMOOTH",
"1149 -227 OFFCURVE",
"1136 -216 OFFCURVE",
"1110 -219 CURVE SMOOTH",
"1083 -222 OFFCURVE",
"1054 -224 OFFCURVE",
"1025 -224 CURVE SMOOTH",
"989 -224 OFFCURVE",
"964 -217 OFFCURVE",
"964 -189 CURVE SMOOTH",
"964 -170 OFFCURVE",
"990 -142 OFFCURVE",
"1041 -105 CURVE",
"1093 -69 OFFCURVE",
"1144 -40 OFFCURVE",
"1195 -17 CURVE SMOOTH",
"1236 1 OFFCURVE",
"1252 29 OFFCURVE",
"1245 66 CURVE",
"1029 1353 LINE SMOOTH",
"1020 1407 OFFCURVE",
"994 1434 OFFCURVE",
"952 1434 CURVE SMOOTH",
"812 1434 LINE SMOOTH",
"770 1434 OFFCURVE",
"733 1407 OFFCURVE",
"701 1353 CURVE SMOOTH",
"-63 66 LINE SMOOTH",
"-89 22 OFFCURVE",
"-78 0 OFFCURVE",
"-30 0 CURVE SMOOTH"
);
},
{
closed = 1;
nodes = (
"751 904 LINE",
"774 943 OFFCURVE",
"789 970 OFFCURVE",
"795 987 CURVE SMOOTH",
"802 1004 OFFCURVE",
"810 1028 OFFCURVE",
"821 1061 CURVE",
"825 1061 LINE",
"821 1028 OFFCURVE",
"819 1002 OFFCURVE",
"819 981 CURVE SMOOTH",
"819 961 OFFCURVE",
"822 935 OFFCURVE",
"827 904 CURVE SMOOTH",
"883 586 LINE",
"561 586 LINE"
);
}
);
width = 1394;
}
);
unicode = 0104;
},
{
glyphname = AE;
lastChange = "2016-10-15 02:20:23 +0000";
layers = (
{
layerId = UUID0;
paths = (
{
closed = 1;
nodes = (
"81 0 LINE",
"110 0 OFFCURVE",
"136 16 OFFCURVE",
"159 49 CURVE SMOOTH",
"391 380 LINE",
"865 380 LINE",
"790 55 LINE SMOOTH",
"781 18 OFFCURVE",
"794 0 OFFCURVE",
"827 0 CURVE SMOOTH",
"1692 0 LINE SMOOTH",
"1729 0 OFFCURVE",
"1750 15 OFFCURVE",
"1757 45 CURVE SMOOTH",
"1774 119 LINE SMOOTH",
"1781 149 OFFCURVE",
"1766 164 OFFCURVE",
"1730 164 CURVE SMOOTH",
"1007 164 LINE",
"1122 662 LINE",
"1755 662 LINE SMOOTH",
"1792 662 OFFCURVE",
"1813 677 OFFCURVE",
"1820 707 CURVE SMOOTH",
"1837 781 LINE SMOOTH",
"1844 811 OFFCURVE",
"1829 826 OFFCURVE",
"1793 826 CURVE SMOOTH",
"1160 826 LINE",
"1262 1270 LINE",
"1955 1270 LINE SMOOTH",
"1992 1270 OFFCURVE",
"2014 1285 OFFCURVE",
"2021 1315 CURVE SMOOTH",
"2038 1389 LINE SMOOTH",
"2045 1419 OFFCURVE",
"2030 1434 OFFCURVE",
"1993 1434 CURVE SMOOTH",
"944 1434 LINE SMOOTH",
"916 1434 OFFCURVE",
"890 1417 OFFCURVE",
"865 1382 CURVE SMOOTH",
"-59 66 LINE SMOOTH",
"-90 22 OFFCURVE",
"-85 0 OFFCURVE",
"-46 0 CURVE SMOOTH"
);
},
{
closed = 1;
nodes = (
"863 1053 LINE",
"906 1114 OFFCURVE",
"958 1191 OFFCURVE",
"998 1270 CURVE",
"1070 1270 LINE",
"903 544 LINE",
"506 544 LINE"
);
}
);
width = 1957;
},
{
layerId = "05202388-ED6B-49B3-97C3-39168626F3FE";
paths = (
{
closed = 1;
nodes = (
"155 0 LINE",
"197 0 OFFCURVE",
"233 23 OFFCURVE",
"262 69 CURVE SMOOTH",
"433 338 LINE",
"782 338 LINE",
"721 75 LINE SMOOTH",
"710 25 OFFCURVE",
"727 0 OFFCURVE",
"774 0 CURVE SMOOTH",
"1631 0 LINE SMOOTH",
"1681 0 OFFCURVE",
"1711 22 OFFCURVE",
"1721 65 CURVE SMOOTH",
"1748 183 LINE SMOOTH",
"1758 226 OFFCURVE",
"1738 248 OFFCURVE",
"1688 248 CURVE SMOOTH",
"1053 248 LINE",
"1139 620 LINE",
"1689 620 LINE SMOOTH",
"1739 620 OFFCURVE",
"1769 642 OFFCURVE",
"1779 685 CURVE SMOOTH",
"1806 803 LINE SMOOTH",
"1816 846 OFFCURVE",
"1796 868 OFFCURVE",
"1746 868 CURVE SMOOTH",
"1196 868 LINE",
"1270 1186 LINE",
"1873 1186 LINE SMOOTH",
"1923 1186 OFFCURVE",
"1953 1208 OFFCURVE",
"1963 1251 CURVE SMOOTH",
"1990 1369 LINE SMOOTH",
"2000 1412 OFFCURVE",
"1980 1434 OFFCURVE",
"1930 1434 CURVE SMOOTH",
"866 1434 LINE SMOOTH",
"826 1434 OFFCURVE",
"789 1407 OFFCURVE",
"755 1353 CURVE SMOOTH",
"-63 66 LINE SMOOTH",
"-91 22 OFFCURVE",
"-80 0 OFFCURVE",
"-30 0 CURVE SMOOTH"
);
},
{
closed = 1;
nodes = (
"831 964 LINE",
"856 1004 OFFCURVE",
"877 1039 OFFCURVE",
"892 1069 CURVE SMOOTH",
"908 1099 OFFCURVE",
"925 1138 OFFCURVE",
"943 1186 CURVE",
"978 1186 LINE",
"839 586 LINE",
"591 586 LINE"
);
}
);
width = 1911;
}
);
unicode = 00C6;
},
{
glyphname = B;
lastChange = "2016-10-15 02:20:23 +0000";
layers = (
{
layerId = UUID0;
paths = (
{
closed = 1;
nodes = (
"570 0 LINE",
"800 0 OFFCURVE",
"965 44 OFFCURVE",
"1066 132 CURVE SMOOTH",
"1167 220 OFFCURVE",
"1217 320 OFFCURVE",
"1217 431 CURVE SMOOTH",
"1217 522 OFFCURVE",
"1190 593 OFFCURVE",
"1136 646 CURVE SMOOTH",
"1083 699 OFFCURVE",
"1022 733 OFFCURVE",
"953 747 CURVE",
"953 750 LINE",
"1048 770 OFFCURVE",
"1127 807 OFFCURVE",
"1190 862 CURVE SMOOTH",
"1254 917 OFFCURVE",
"1286 991 OFFCURVE",
"1286 1084 CURVE SMOOTH",
"1286 1183 OFFCURVE",
"1251 1266 OFFCURVE",
"1180 1333 CURVE SMOOTH",
"1109 1400 OFFCURVE",
"983 1434 OFFCURVE",
"801 1434 CURVE SMOOTH",
"431 1434 LINE SMOOTH",
"398 1434 OFFCURVE",
"377 1416 OFFCURVE",
"368 1379 CURVE SMOOTH",
"63 55 LINE SMOOTH",
"54 18 OFFCURVE",
"67 0 OFFCURVE",
"100 0 CURVE SMOOTH"
);
},
{
closed = 1;
nodes = (
"395 664 LINE",
"631 664 LINE SMOOTH",
"748 664 OFFCURVE",
"841 647 OFFCURVE",
"909 612 CURVE SMOOTH",
"978 577 OFFCURVE",
"1012 520 OFFCURVE",
"1012 439 CURVE SMOOTH",
"1012 262 OFFCURVE",
"856 164 OFFCURVE",
"576 164 CURVE SMOOTH",
"280 164 LINE"
);
},
{
closed = 1;
nodes = (
"535 1270 LINE",
"766 1270 LINE SMOOTH",
"885 1270 OFFCURVE",
"969 1255 OFFCURVE",
"1018 1224 CURVE SMOOTH",
"1067 1194 OFFCURVE",
"1091 1145 OFFCURVE",
"1091 1076 CURVE SMOOTH",
"1091 999 OFFCURVE",
"1049 935 OFFCURVE",
"966 884 CURVE SMOOTH",
"883 833 OFFCURVE",
"795 808 OFFCURVE",
"700 808 CURVE SMOOTH",
"429 808 LINE"
);
}
);
width = 1338;
},
{
layerId = "05202388-ED6B-49B3-97C3-39168626F3FE";
paths = (
{
closed = 1;
nodes = (
"530 0 LINE",
"766 0 OFFCURVE",
"945 41 OFFCURVE",
"1068 122 CURVE SMOOTH",
"1191 203 OFFCURVE",
"1252 304 OFFCURVE",
"1252 423 CURVE SMOOTH",
"1252 528 OFFCURVE",
"1221 606 OFFCURVE",
"1158 658 CURVE SMOOTH",
"1095 710 OFFCURVE",
"1025 740 OFFCURVE",
"948 747 CURVE",
"948 750 LINE",
"1028 757 OFFCURVE",
"1110 787 OFFCURVE",
"1193 840 CURVE SMOOTH",
"1276 893 OFFCURVE",
"1318 972 OFFCURVE",
"1318 1076 CURVE SMOOTH",
"1318 1183 OFFCURVE",
"1276 1269 OFFCURVE",
"1193 1335 CURVE SMOOTH",
"1110 1401 OFFCURVE",
"969 1434 OFFCURVE",
"771 1434 CURVE SMOOTH",
"451 1434 LINE SMOOTH",
"398 1434 OFFCURVE",
"365 1409 OFFCURVE",
"354 1359 CURVE SMOOTH",
"57 75 LINE SMOOTH",
"46 25 OFFCURVE",
"67 0 OFFCURVE",
"120 0 CURVE SMOOTH"
);
},
{
closed = 1;
nodes = (
"475 618 LINE",
"601 618 LINE SMOOTH",
"726 618 OFFCURVE",
"814 606 OFFCURVE",
"864 581 CURVE SMOOTH",
"915 556 OFFCURVE",
"940 513 OFFCURVE",
"940 452 CURVE SMOOTH",
"940 375 OFFCURVE",
"914 321 OFFCURVE",
"862 290 CURVE SMOOTH",
"810 259 OFFCURVE",
"707 244 OFFCURVE",
"554 244 CURVE SMOOTH",
"388 244 LINE"
);
},
{
closed = 1;
nodes = (
"607 1190 LINE",
"718 1190 LINE SMOOTH",
"834 1190 OFFCURVE",
"914 1180 OFFCURVE",
"957 1161 CURVE SMOOTH",
"1000 1142 OFFCURVE",
"1022 1107 OFFCURVE",
"1022 1056 CURVE SMOOTH",
"1022 1000 OFFCURVE",
"992 952 OFFCURVE",
"931 913 CURVE SMOOTH",
"870 874 OFFCURVE",
"787 854 OFFCURVE",
"680 854 CURVE SMOOTH",
"529 854 LINE"
);
}
);
width = 1379;
}
);
unicode = 0042;
},
{
glyphname = C;
lastChange = "2016-10-15 02:20:23 +0000";
layers = (
{
layerId = UUID0;
paths = (
{
closed = 1;
nodes = (
"110 403 OFFCURVE",
"160 257 OFFCURVE",
"259 142 CURVE SMOOTH",
"358 27 OFFCURVE",
"509 -30 OFFCURVE",
"710 -30 CURVE SMOOTH",
"855 -30 OFFCURVE",
"972 -5 OFFCURVE",
"1061 46 CURVE SMOOTH",
"1150 97 OFFCURVE",
"1221 161 OFFCURVE",
"1274 238 CURVE SMOOTH",
"1301 277 OFFCURVE",
"1304 304 OFFCURVE",
"1282 318 CURVE SMOOTH",
"1192 376 LINE SMOOTH",
"1168 391 OFFCURVE",
"1142 380 OFFCURVE",
"1114 341 CURVE SMOOTH",
"1079 293 OFFCURVE",
"1030 245 OFFCURVE",
"967 197 CURVE SMOOTH",
"904 150 OFFCURVE",
"828 126 OFFCURVE",
"737 126 CURVE SMOOTH",
"584 126 OFFCURVE",
"475 167 OFFCURVE",
"411 250 CURVE SMOOTH",
"347 333 OFFCURVE",
"315 436 OFFCURVE",
"315 557 CURVE SMOOTH",
"315 814 OFFCURVE",
"369 1003 OFFCURVE",
"478 1125 CURVE SMOOTH",
"587 1247 OFFCURVE",
"724 1308 OFFCURVE",
"891 1308 CURVE SMOOTH",
"981 1308 OFFCURVE",
"1052 1288 OFFCURVE",
"1105 1247 CURVE SMOOTH",
"1158 1206 OFFCURVE",
"1194 1168 OFFCURVE",
"1214 1132 CURVE SMOOTH",
"1231 1103 OFFCURVE",
"1248 1093 OFFCURVE",
"1266 1104 CURVE SMOOTH",
"1344 1150 LINE SMOOTH",
"1375 1168 OFFCURVE",
"1382 1195 OFFCURVE",
"1367 1230 CURVE SMOOTH",
"1304 1371 OFFCURVE",
"1153 1464 OFFCURVE",
"908 1464 CURVE SMOOTH",
"657 1464 OFFCURVE",
"461 1382 OFFCURVE",
"320 1219 CURVE SMOOTH",
"180 1056 OFFCURVE",
"110 843 OFFCURVE",
"110 580 CURVE SMOOTH"
);
}
);
width = 1392;
},
{
layerId = "05202388-ED6B-49B3-97C3-39168626F3FE";
paths = (
{
closed = 1;
nodes = (
"100 378 OFFCURVE",
"156 222 OFFCURVE",
"268 119 CURVE SMOOTH",
"380 17 OFFCURVE",
"536 -34 OFFCURVE",
"736 -34 CURVE SMOOTH",
"870 -34 OFFCURVE",
"984 -10 OFFCURVE",
"1078 38 CURVE SMOOTH",
"1172 87 OFFCURVE",
"1244 148 OFFCURVE",
"1295 221 CURVE SMOOTH",
"1324 264 OFFCURVE",
"1318 296 OFFCURVE",
"1277 319 CURVE SMOOTH",
"1150 389 LINE SMOOTH",
"1119 406 OFFCURVE",
"1085 391 OFFCURVE",
"1050 342 CURVE SMOOTH",
"995 266 OFFCURVE",
"901 202 OFFCURVE",
"757 202 CURVE SMOOTH",
"631 202 OFFCURVE",
"542 235 OFFCURVE",
"490 300 CURVE SMOOTH",
"438 366 OFFCURVE",
"412 449 OFFCURVE",
"412 550 CURVE SMOOTH",
"412 749 OFFCURVE",
"453 912 OFFCURVE",
"536 1040 CURVE SMOOTH",
"619 1168 OFFCURVE",
"730 1232 OFFCURVE",
"871 1232 CURVE SMOOTH",
"919 1232 OFFCURVE",
"968 1221 OFFCURVE",
"1018 1199 CURVE SMOOTH",
"1068 1177 OFFCURVE",
"1110 1144 OFFCURVE",
"1143 1100 CURVE SMOOTH",
"1176 1055 OFFCURVE",
"1208 1043 OFFCURVE",
"1239 1064 CURVE SMOOTH",
"1363 1147 LINE SMOOTH",
"1401 1172 OFFCURVE",
"1407 1207 OFFCURVE",
"1380 1251 CURVE SMOOTH",
"1343 1312 OFFCURVE",
"1282 1364 OFFCURVE",
"1198 1405 CURVE SMOOTH",
"1114 1447 OFFCURVE",
"1012 1468 OFFCURVE",
"892 1468 CURVE SMOOTH",
"633 1468 OFFCURVE",
"437 1379 OFFCURVE",
"302 1202 CURVE SMOOTH",
"167 1025 OFFCURVE",
"100 820 OFFCURVE",
"100 588 CURVE SMOOTH"
);
}
);
width = 1404;
}
);
unicode = 0043;
},
{
glyphname = D;
lastChange = "2016-10-15 02:20:23 +0000";
layers = (
{
layerId = UUID0;
paths = (
{
closed = 1;
nodes = (
"519 0 LINE",
"816 0 OFFCURVE",
"1034 85 OFFCURVE",
"1174 254 CURVE SMOOTH",
"1314 423 OFFCURVE",
"1384 621 OFFCURVE",
"1384 848 CURVE SMOOTH",
"1384 1005 OFFCURVE",
"1338 1142 OFFCURVE",
"1246 1259 CURVE SMOOTH",
"1154 1376 OFFCURVE",
"989 1434 OFFCURVE",
"750 1434 CURVE SMOOTH",
"431 1434 LINE SMOOTH",
"398 1434 OFFCURVE",
"377 1416 OFFCURVE",
"368 1379 CURVE SMOOTH",
"63 55 LINE SMOOTH",
"54 18 OFFCURVE",
"67 0 OFFCURVE",
"100 0 CURVE SMOOTH"
);
},
{
closed = 1;
nodes = (
"536 1272 LINE",
"704 1272 LINE SMOOTH",
"912 1272 OFFCURVE",
"1043 1232 OFFCURVE",
"1097 1152 CURVE SMOOTH",
"1152 1072 OFFCURVE",
"1179 975 OFFCURVE",
"1179 860 CURVE SMOOTH",
"1179 679 OFFCURVE",
"1129 517 OFFCURVE",
"1029 376 CURVE SMOOTH",
"930 235 OFFCURVE",
"769 164 OFFCURVE",
"548 164 CURVE SMOOTH",
"280 164 LINE"
);
}
);
width = 1406;
},
{
layerId = "05202388-ED6B-49B3-97C3-39168626F3FE";
paths = (
{
closed = 1;
nodes = (
"489 0 LINE",
"800 0 OFFCURVE",
"1032 78 OFFCURVE",
"1183 235 CURVE SMOOTH",
"1334 392 OFFCURVE",
"1410 591 OFFCURVE",
"1410 831 CURVE SMOOTH",
"1410 1013 OFFCURVE",
"1358 1159 OFFCURVE",
"1254 1269 CURVE SMOOTH",
"1150 1379 OFFCURVE",
"979 1434 OFFCURVE",
"740 1434 CURVE SMOOTH",
"441 1434 LINE SMOOTH",
"394 1434 OFFCURVE",
"365 1409 OFFCURVE",
"354 1359 CURVE SMOOTH",
"57 75 LINE SMOOTH",
"46 25 OFFCURVE",
"63 0 OFFCURVE",
"110 0 CURVE SMOOTH"
);
},
{
closed = 1;
nodes = (
"606 1188 LINE",
"684 1188 LINE SMOOTH",
"862 1188 OFFCURVE",
"975 1157 OFFCURVE",
"1024 1096 CURVE SMOOTH",
"1073 1035 OFFCURVE",
"1098 954 OFFCURVE",
"1098 852 CURVE SMOOTH",
"1098 663 OFFCURVE",
"1053 515 OFFCURVE",
"963 408 CURVE SMOOTH",
"873 301 OFFCURVE",
"728 248 OFFCURVE",
"527 248 CURVE SMOOTH",
"389 248 LINE"
);
}
);
width = 1402;
}
);
unicode = 0044;
},
{
glyphname = Eth;
lastChange = "2016-10-15 02:20:23 +0000";
layers = (
{
layerId = UUID0;
paths = (
{
closed = 1;
nodes = (
"241 654 LINE",
"103 55 LINE SMOOTH",
"94 18 OFFCURVE",
"107 0 OFFCURVE",
"140 0 CURVE SMOOTH",
"559 0 LINE SMOOTH",
"856 0 OFFCURVE",
"1074 85 OFFCURVE",
"1214 254 CURVE SMOOTH",
"1354 423 OFFCURVE",
"1424 621 OFFCURVE",
"1424 848 CURVE SMOOTH",
"1424 1005 OFFCURVE",
"1378 1142 OFFCURVE",
"1286 1259 CURVE SMOOTH",
"1194 1376 OFFCURVE",
"1029 1434 OFFCURVE",
"790 1434 CURVE SMOOTH",
"471 1434 LINE SMOOTH",
"438 1434 OFFCURVE",
"417 1416 OFFCURVE",
"408 1379 CURVE SMOOTH",
"279 818 LINE",
"164 818 LINE SMOOTH",
"127 818 OFFCURVE",
"105 803 OFFCURVE",
"98 773 CURVE SMOOTH",
"81 699 LINE SMOOTH",
"74 669 OFFCURVE",
"89 654 OFFCURVE",
"126 654 CURVE SMOOTH"
);
},
{
closed = 1;
nodes = (
"433 654 LINE",
"754 654 LINE SMOOTH",
"791 654 OFFCURVE",
"812 669 OFFCURVE",
"819 699 CURVE SMOOTH",
"836 773 LINE SMOOTH",
"843 803 OFFCURVE",
"829 818 OFFCURVE",
"792 818 CURVE SMOOTH",
"471 818 LINE",
"576 1272 LINE",
"744 1272 LINE SMOOTH",
"952 1272 OFFCURVE",
"1083 1232 OFFCURVE",
"1137 1152 CURVE SMOOTH",
"1192 1072 OFFCURVE",
"1219 975 OFFCURVE",
"1219 860 CURVE SMOOTH",
"1219 679 OFFCURVE",
"1169 517 OFFCURVE",
"1069 376 CURVE SMOOTH",
"970 235 OFFCURVE",
"809 164 OFFCURVE",
"588 164 CURVE SMOOTH",
"320 164 LINE"
);
}
);
width = 1446;
},
{
layerId = "05202388-ED6B-49B3-97C3-39168626F3FE";
paths = (
{
closed = 1;
nodes = (
"231 612 LINE",
"107 75 LINE SMOOTH",
"96 25 OFFCURVE",
"113 0 OFFCURVE",
"160 0 CURVE SMOOTH",
"539 0 LINE SMOOTH",
"850 0 OFFCURVE",
"1082 78 OFFCURVE",
"1233 235 CURVE SMOOTH",
"1384 392 OFFCURVE",
"1460 591 OFFCURVE",
"1460 831 CURVE SMOOTH",
"1460 1013 OFFCURVE",
"1408 1159 OFFCURVE",
"1304 1269 CURVE SMOOTH",
"1200 1379 OFFCURVE",
"1029 1434 OFFCURVE",
"790 1434 CURVE SMOOTH",
"491 1434 LINE SMOOTH",
"444 1434 OFFCURVE",
"415 1409 OFFCURVE",
"404 1359 CURVE SMOOTH",
"289 860 LINE",
"184 860 LINE SMOOTH",
"134 860 OFFCURVE",
"104 838 OFFCURVE",
"94 795 CURVE SMOOTH",
"66 677 LINE SMOOTH",
"56 634 OFFCURVE",
"76 612 OFFCURVE",
"126 612 CURVE SMOOTH"
);
},
{
closed = 1;
nodes = (
"523 612 LINE",
"762 612 LINE SMOOTH",
"812 612 OFFCURVE",
"842 634 OFFCURVE",
"852 677 CURVE SMOOTH",
"880 795 LINE SMOOTH",
"890 838 OFFCURVE",
"870 860 OFFCURVE",
"820 860 CURVE SMOOTH",
"580 860 LINE",
"656 1188 LINE",
"734 1188 LINE SMOOTH",
"912 1188 OFFCURVE",
"1025 1157 OFFCURVE",
"1074 1096 CURVE SMOOTH",
"1123 1035 OFFCURVE",
"1148 954 OFFCURVE",
"1148 852 CURVE SMOOTH",
"1148 663 OFFCURVE",
"1103 515 OFFCURVE",
"1013 408 CURVE SMOOTH",
"923 301 OFFCURVE",
"778 248 OFFCURVE",
"577 248 CURVE SMOOTH",
"439 248 LINE"
);
}
);
width = 1452;
}
);
unicode = 00D0;
},
{
glyphname = E;
lastChange = "2016-10-15 02:20:23 +0000";
layers = (
{
layerId = UUID0;
paths = (
{
closed = 1;
nodes = (
"1005 0 LINE SMOOTH",
"1042 0 OFFCURVE",
"1063 15 OFFCURVE",
"1070 45 CURVE SMOOTH",
"1087 119 LINE SMOOTH",
"1094 149 OFFCURVE",
"1080 164 OFFCURVE",
"1043 164 CURVE SMOOTH",
"280 164 LINE",
"395 662 LINE",
"1068 662 LINE SMOOTH",
"1105 662 OFFCURVE",
"1126 677 OFFCURVE",
"1133 707 CURVE SMOOTH",
"1150 781 LINE SMOOTH",
"1157 811 OFFCURVE",
"1143 826 OFFCURVE",
"1106 826 CURVE SMOOTH",
"433 826 LINE",
"535 1270 LINE",
"1268 1270 LINE SMOOTH",
"1305 1270 OFFCURVE",
"1327 1285 OFFCURVE",
"1334 1315 CURVE SMOOTH",
"1351 1389 LINE SMOOTH",
"1358 1419 OFFCURVE",
"1343 1434 OFFCURVE",
"1306 1434 CURVE SMOOTH",
"431 1434 LINE SMOOTH",
"398 1434 OFFCURVE",
"377 1416 OFFCURVE",
"368 1379 CURVE SMOOTH",
"63 55 LINE SMOOTH",
"54 18 OFFCURVE",
"67 0 OFFCURVE",
"100 0 CURVE SMOOTH"
);
}
);
width = 1270;
},
{
layerId = "05202388-ED6B-49B3-97C3-39168626F3FE";
paths = (
{
closed = 1;
nodes = (
"1000 0 LINE SMOOTH",
"1050 0 OFFCURVE",
"1080 22 OFFCURVE",
"1090 65 CURVE SMOOTH",
"1117 183 LINE SMOOTH",
"1127 226 OFFCURVE",
"1107 248 OFFCURVE",
"1057 248 CURVE SMOOTH",
"389 248 LINE",
"475 620 LINE",
"1058 620 LINE SMOOTH",
"1108 620 OFFCURVE",
"1138 642 OFFCURVE",
"1148 685 CURVE SMOOTH",
"1175 803 LINE SMOOTH",
"1185 846 OFFCURVE",
"1165 868 OFFCURVE",
"1115 868 CURVE SMOOTH",
"532 868 LINE",
"606 1186 LINE",
"1242 1186 LINE SMOOTH",
"1292 1186 OFFCURVE",
"1322 1208 OFFCURVE",
"1332 1251 CURVE SMOOTH",
"1359 1369 LINE SMOOTH",
"1369 1412 OFFCURVE",
"1349 1434 OFFCURVE",
"1299 1434 CURVE SMOOTH",
"441 1434 LINE SMOOTH",
"394 1434 OFFCURVE",
"365 1409 OFFCURVE",
"354 1359 CURVE SMOOTH",
"57 75 LINE SMOOTH",
"46 25 OFFCURVE",
"63 0 OFFCURVE",
"110 0 CURVE SMOOTH"
);
}
);
width = 1280;
}
);
unicode = 0045;
},
{
glyphname = Eogonek;
lastChange = "2016-10-15 02:20:23 +0000";
layers = (
{
layerId = UUID0;
paths = (
{
closed = 1;
nodes = (
"738 0 LINE SMOOTH",
"765 0 OFFCURVE",
"791 1 OFFCURVE",
"818 2 CURVE",
"818 -2 LINE",
"751 -46 OFFCURVE",
"702 -81 OFFCURVE",
"672 -108 CURVE SMOOTH",
"642 -135 OFFCURVE",
"621 -163 OFFCURVE",
"609 -190 CURVE",
"598 -218 OFFCURVE",
"592 -249 OFFCURVE",
"592 -284 CURVE SMOOTH",
"592 -361 OFFCURVE",
"655 -417 OFFCURVE",
"788 -417 CURVE SMOOTH",
"828 -417 OFFCURVE",
"867 -414 OFFCURVE",
"906 -408 CURVE",
"919 -405 OFFCURVE",
"925 -396 OFFCURVE",
"924 -380 CURVE SMOOTH",
"918 -303 LINE SMOOTH",
"917 -285 OFFCURVE",
"908 -278 OFFCURVE",
"891 -281 CURVE SMOOTH",
"871 -285 OFFCURVE",
"847 -287 OFFCURVE",
"818 -287 CURVE SMOOTH",
"770 -287 OFFCURVE",
"752 -269 OFFCURVE",
"752 -233 CURVE SMOOTH",
"752 -202 OFFCURVE",
"776 -167 OFFCURVE",
"823 -128 CURVE SMOOTH",
"870 -89 OFFCURVE",
"929 -47 OFFCURVE",
"998 0 CURVE",
"1005 0 LINE SMOOTH",
"1042 0 OFFCURVE",
"1063 15 OFFCURVE",
"1070 45 CURVE SMOOTH",
"1087 119 LINE SMOOTH",
"1094 149 OFFCURVE",
"1079 164 OFFCURVE",
"1043 164 CURVE SMOOTH",
"280 164 LINE",
"395 662 LINE",
"1068 662 LINE SMOOTH",
"1105 662 OFFCURVE",
"1126 677 OFFCURVE",
"1133 707 CURVE SMOOTH",
"1150 781 LINE SMOOTH",
"1157 811 OFFCURVE",
"1142 826 OFFCURVE",
"1106 826 CURVE SMOOTH",
"433 826 LINE",
"535 1270 LINE",
"1268 1270 LINE SMOOTH",
"1305 1270 OFFCURVE",
"1327 1285 OFFCURVE",
"1334 1315 CURVE SMOOTH",
"1351 1389 LINE SMOOTH",
"1358 1419 OFFCURVE",
"1343 1434 OFFCURVE",
"1306 1434 CURVE SMOOTH",
"431 1434 LINE SMOOTH",
"398 1434 OFFCURVE",
"377 1416 OFFCURVE",
"368 1379 CURVE SMOOTH",
"63 55 LINE SMOOTH",
"54 18 OFFCURVE",
"67 0 OFFCURVE",
"100 0 CURVE SMOOTH"
);
}
);
width = 1270;
},
{
layerId = "05202388-ED6B-49B3-97C3-39168626F3FE";
paths = (
{
closed = 1;
nodes = (
"587 0 LINE SMOOTH",
"627 0 OFFCURVE",
"667 1 OFFCURVE",
"708 4 CURVE",
"708 -7 LINE",
"599 -78 OFFCURVE",
"529 -150 OFFCURVE",
"517 -195 CURVE SMOOTH",
"511 -218 OFFCURVE",
"508 -242 OFFCURVE",
"508 -266 CURVE SMOOTH",
"508 -355 OFFCURVE",
"587 -420 OFFCURVE",
"752 -420 CURVE SMOOTH",
"804 -420 OFFCURVE",
"853 -417 OFFCURVE",
"899 -411 CURVE SMOOTH",
"922 -408 OFFCURVE",
"934 -393 OFFCURVE",
"933 -368 CURVE SMOOTH",
"930 -253 LINE SMOOTH",
"929 -227 OFFCURVE",
"916 -216 OFFCURVE",
"890 -219 CURVE SMOOTH",
"863 -222 OFFCURVE",
"834 -224 OFFCURVE",
"805 -224 CURVE SMOOTH",
"769 -224 OFFCURVE",
"744 -217 OFFCURVE",
"744 -189 CURVE SMOOTH",
"744 -150 OFFCURVE",
"838 -93 OFFCURVE",
"990 0 CURVE",
"1000 0 LINE SMOOTH",
"1050 0 OFFCURVE",
"1080 22 OFFCURVE",
"1090 65 CURVE SMOOTH",
"1117 183 LINE SMOOTH",
"1127 226 OFFCURVE",
"1107 248 OFFCURVE",
"1057 248 CURVE SMOOTH",
"389 248 LINE",
"475 620 LINE",
"1058 620 LINE SMOOTH",
"1108 620 OFFCURVE",
"1138 642 OFFCURVE",
"1148 685 CURVE SMOOTH",
"1175 803 LINE SMOOTH",
"1185 846 OFFCURVE",
"1165 868 OFFCURVE",
"1115 868 CURVE SMOOTH",
"532 868 LINE",
"606 1186 LINE",
"1242 1186 LINE SMOOTH",
"1292 1186 OFFCURVE",
"1322 1208 OFFCURVE",
"1332 1251 CURVE SMOOTH",
"1359 1369 LINE SMOOTH",
"1369 1412 OFFCURVE",
"1349 1434 OFFCURVE",
"1299 1434 CURVE SMOOTH",
"441 1434 LINE SMOOTH",
"394 1434 OFFCURVE",
"365 1409 OFFCURVE",
"354 1359 CURVE SMOOTH",
"57 75 LINE SMOOTH",
"46 25 OFFCURVE",
"63 0 OFFCURVE",
"110 0 CURVE SMOOTH"
);
}
);
width = 1280;
}
);
unicode = 0118;
},
{
glyphname = F;
lastChange = "2016-10-15 02:20:23 +0000";
layers = (
{
layerId = UUID0;
paths = (
{
closed = 1;
nodes = (
"192 0 LINE SMOOTH",
"225 0 OFFCURVE",
"246 18 OFFCURVE",
"255 55 CURVE SMOOTH",
"388 632 LINE",
"975 632 LINE SMOOTH",
"1012 632 OFFCURVE",
"1033 647 OFFCURVE",
"1040 677 CURVE SMOOTH",
"1057 751 LINE SMOOTH",
"1064 781 OFFCURVE",
"1050 796 OFFCURVE",
"1013 796 CURVE SMOOTH",
"426 796 LINE",
"535 1270 LINE",
"1208 1270 LINE SMOOTH",
"1245 1270 OFFCURVE",
"1267 1285 OFFCURVE",
"1274 1315 CURVE SMOOTH",
"1291 1389 LINE SMOOTH",
"1298 1419 OFFCURVE",
"1283 1434 OFFCURVE",
"1246 1434 CURVE SMOOTH",
"431 1434 LINE SMOOTH",
"398 1434 OFFCURVE",
"377 1416 OFFCURVE",
"368 1379 CURVE SMOOTH",
"63 55 LINE SMOOTH",
"54 18 OFFCURVE",
"67 0 OFFCURVE",
"100 0 CURVE SMOOTH"
);
}
);
width = 1166;
},
{
layerId = "05202388-ED6B-49B3-97C3-39168626F3FE";
paths = (
{
closed = 1;
nodes = (
"262 0 LINE SMOOTH",
"309 0 OFFCURVE",
"338 25 OFFCURVE",
"349 75 CURVE SMOOTH",
"468 590 LINE",
"955 590 LINE SMOOTH",
"1005 590 OFFCURVE",
"1035 612 OFFCURVE",
"1045 655 CURVE SMOOTH",
"1072 773 LINE SMOOTH",
"1082 816 OFFCURVE",
"1062 838 OFFCURVE",
"1012 838 CURVE SMOOTH",
"525 838 LINE",
"606 1186 LINE",
"1175 1186 LINE SMOOTH",
"1225 1186 OFFCURVE",
"1255 1208 OFFCURVE",
"1265 1251 CURVE SMOOTH",
"1292 1369 LINE SMOOTH",
"1302 1412 OFFCURVE",
"1282 1434 OFFCURVE",
"1232 1434 CURVE SMOOTH",
"441 1434 LINE SMOOTH",
"394 1434 OFFCURVE",
"365 1409 OFFCURVE",
"354 1359 CURVE SMOOTH",
"57 75 LINE SMOOTH",
"46 25 OFFCURVE",
"63 0 OFFCURVE",
"110 0 CURVE SMOOTH"
);
}
);
width = 1176;
}
);
unicode = 0046;
},
{
glyphname = G;
lastChange = "2016-10-15 02:20:23 +0000";
layers = (
{
layerId = UUID0;
paths = (
{
closed = 1;
nodes = (
"110 403 OFFCURVE",
"160 257 OFFCURVE",
"259 142 CURVE SMOOTH",
"358 27 OFFCURVE",
"509 -30 OFFCURVE",
"710 -30 CURVE SMOOTH",
"842 -30 OFFCURVE",
"951 -17 OFFCURVE",
"1036 10 CURVE SMOOTH",
"1121 37 OFFCURVE",
"1211 86 OFFCURVE",
"1306 157 CURVE",
"1415 629 LINE SMOOTH",
"1422 659 OFFCURVE",
"1408 674 OFFCURVE",
"1371 674 CURVE SMOOTH",
"937 674 LINE SMOOTH",
"900 674 OFFCURVE",
"878 659 OFFCURVE",
"871 629 CURVE SMOOTH",
"854 555 LINE SMOOTH",
"847 525 OFFCURVE",
"862 510 OFFCURVE",
"899 510 CURVE SMOOTH",
"1196 510 LINE",
"1139 262 LINE",
"1104 225 OFFCURVE",
"1050 193 OFFCURVE",
"977 166 CURVE SMOOTH",
"904 139 OFFCURVE",
"824 126 OFFCURVE",
"737 126 CURVE SMOOTH",
"584 126 OFFCURVE",
"475 167 OFFCURVE",
"411 250 CURVE SMOOTH",
"347 333 OFFCURVE",
"315 436 OFFCURVE",
"315 557 CURVE SMOOTH",
"315 814 OFFCURVE",
"369 1003 OFFCURVE",
"478 1125 CURVE SMOOTH",
"587 1247 OFFCURVE",
"728 1308 OFFCURVE",
"899 1308 CURVE SMOOTH",
"994 1308 OFFCURVE",
"1069 1287 OFFCURVE",
"1125 1246 CURVE SMOOTH",
"1181 1205 OFFCURVE",
"1217 1171 OFFCURVE",
"1234 1142 CURVE SMOOTH",
"1251 1113 OFFCURVE",
"1268 1104 OFFCURVE",
"1287 1117 CURVE SMOOTH",
"1363 1167 LINE SMOOTH",
"1393 1187 OFFCURVE",
"1399 1214 OFFCURVE",
"1382 1248 CURVE SMOOTH",
"1353 1304 OFFCURVE",
"1300 1354 OFFCURVE",
"1224 1398 CURVE SMOOTH",
"1148 1442 OFFCURVE",
"1045 1464 OFFCURVE",
"916 1464 CURVE SMOOTH",
"659 1464 OFFCURVE",
"461 1382 OFFCURVE",
"320 1219 CURVE SMOOTH",
"180 1056 OFFCURVE",
"110 843 OFFCURVE",
"110 580 CURVE SMOOTH"
);
}
);
width = 1470;
},
{
layerId = "05202388-ED6B-49B3-97C3-39168626F3FE";
paths = (
{
closed = 1;
nodes = (
"100 378 OFFCURVE",
"158 222 OFFCURVE",
"273 119 CURVE",
"389 17 OFFCURVE",
"546 -34 OFFCURVE",
"745 -34 CURVE SMOOTH",
"851 -34 OFFCURVE",
"954 -17 OFFCURVE",
"1055 16 CURVE SMOOTH",
"1156 49 OFFCURVE",
"1248 90 OFFCURVE",
"1330 138 CURVE",
"1450 659 LINE SMOOTH",
"1460 702 OFFCURVE",
"1440 724 OFFCURVE",
"1390 724 CURVE SMOOTH",
"956 724 LINE SMOOTH",
"906 724 OFFCURVE",
"876 702 OFFCURVE",
"866 659 CURVE SMOOTH",
"839 541 LINE SMOOTH",
"829 498 OFFCURVE",
"849 476 OFFCURVE",
"899 476 CURVE SMOOTH",
"1116 476 LINE",
"1078 312 LINE",
"994 248 OFFCURVE",
"890 202 OFFCURVE",
"766 202 CURVE SMOOTH",
"627 202 OFFCURVE",
"534 235 OFFCURVE",
"485 300 CURVE SMOOTH",
"436 366 OFFCURVE",
"412 449 OFFCURVE",
"412 550 CURVE SMOOTH",
"412 767 OFFCURVE",
"453 935 OFFCURVE",
"534 1054 CURVE SMOOTH",
"616 1173 OFFCURVE",
"732 1232 OFFCURVE",
"881 1232 CURVE SMOOTH",
"929 1232 OFFCURVE",
"980 1223 OFFCURVE",
"1033 1204 CURVE SMOOTH",
"1086 1185 OFFCURVE",
"1130 1154 OFFCURVE",
"1163 1110 CURVE SMOOTH",
"1196 1065 OFFCURVE",
"1228 1053 OFFCURVE",
"1259 1074 CURVE SMOOTH",
"1383 1157 LINE SMOOTH",
"1421 1182 OFFCURVE",
"1427 1217 OFFCURVE",
"1400 1261 CURVE SMOOTH",
"1363 1322 OFFCURVE",
"1300 1372 OFFCURVE",
"1213 1410 CURVE SMOOTH",
"1126 1449 OFFCURVE",
"1022 1468 OFFCURVE",
"902 1468 CURVE SMOOTH",
"635 1468 OFFCURVE",
"434 1382 OFFCURVE",
"300 1209 CURVE SMOOTH",
"167 1037 OFFCURVE",
"100 830 OFFCURVE",
"100 588 CURVE SMOOTH"
);
}
);
width = 1510;
}
);
unicode = 0047;
},
{
glyphname = H;
lastChange = "2016-10-15 02:20:23 +0000";
layers = (
{
layerId = UUID0;
paths = (
{
closed = 1;
nodes = (
"192 0 LINE SMOOTH",
"225 0 OFFCURVE",
"246 18 OFFCURVE",
"255 55 CURVE SMOOTH",
"395 664 LINE",
"1093 664 LINE",
"953 55 LINE SMOOTH",
"944 18 OFFCURVE",
"957 0 OFFCURVE",
"990 0 CURVE SMOOTH",
"1082 0 LINE SMOOTH",
"1115 0 OFFCURVE",
"1136 18 OFFCURVE",
"1145 55 CURVE SMOOTH",
"1450 1379 LINE SMOOTH",
"1459 1416 OFFCURVE",
"1446 1434 OFFCURVE",
"1413 1434 CURVE SMOOTH",
"1321 1434 LINE SMOOTH",
"1288 1434 OFFCURVE",
"1267 1416 OFFCURVE",
"1258 1379 CURVE SMOOTH",
"1131 828 LINE",
"433 828 LINE",
"560 1379 LINE SMOOTH",
"569 1416 OFFCURVE",
"556 1434 OFFCURVE",
"523 1434 CURVE SMOOTH",
"431 1434 LINE SMOOTH",
"398 1434 OFFCURVE",
"377 1416 OFFCURVE",
"368 1379 CURVE SMOOTH",
"63 55 LINE SMOOTH",
"54 18 OFFCURVE",
"67 0 OFFCURVE",
"100 0 CURVE SMOOTH"
);
}
);
width = 1422;
},
{
layerId = "05202388-ED6B-49B3-97C3-39168626F3FE";
paths = (
{
closed = 1;
nodes = (
"262 0 LINE SMOOTH",
"309 0 OFFCURVE",
"338 25 OFFCURVE",
"349 75 CURVE SMOOTH",
"476 622 LINE",
"1014 622 LINE",
"887 75 LINE SMOOTH",
"876 25 OFFCURVE",
"893 0 OFFCURVE",
"940 0 CURVE SMOOTH",
"1092 0 LINE SMOOTH",
"1139 0 OFFCURVE",
"1168 25 OFFCURVE",
"1179 75 CURVE SMOOTH",
"1476 1359 LINE SMOOTH",
"1487 1409 OFFCURVE",
"1470 1434 OFFCURVE",
"1423 1434 CURVE SMOOTH",
"1271 1434 LINE SMOOTH",
"1224 1434 OFFCURVE",
"1195 1409 OFFCURVE",
"1184 1359 CURVE SMOOTH",
"1071 870 LINE",
"533 870 LINE",
"646 1359 LINE SMOOTH",
"657 1409 OFFCURVE",
"640 1434 OFFCURVE",
"593 1434 CURVE SMOOTH",
"441 1434 LINE SMOOTH",
"394 1434 OFFCURVE",
"365 1409 OFFCURVE",
"354 1359 CURVE SMOOTH",
"57 75 LINE SMOOTH",
"46 25 OFFCURVE",
"63 0 OFFCURVE",
"110 0 CURVE SMOOTH"
);
}
);
width = 1442;
}
);
unicode = 0048;
},
{
glyphname = I;
lastChange = "2016-10-15 02:20:23 +0000";
layers = (
{
layerId = UUID0;
paths = (
{
closed = 1;
nodes = (
"192 0 LINE SMOOTH",
"225 0 OFFCURVE",
"246 18 OFFCURVE",
"255 55 CURVE SMOOTH",
"560 1379 LINE SMOOTH",
"569 1416 OFFCURVE",
"556 1434 OFFCURVE",
"523 1434 CURVE SMOOTH",
"431 1434 LINE SMOOTH",
"398 1434 OFFCURVE",
"377 1416 OFFCURVE",
"368 1379 CURVE SMOOTH",
"63 55 LINE SMOOTH",
"54 18 OFFCURVE",
"67 0 OFFCURVE",
"100 0 CURVE SMOOTH"
);
}
);
width = 532;
},
{
layerId = "05202388-ED6B-49B3-97C3-39168626F3FE";
paths = (
{
closed = 1;
nodes = (
"262 0 LINE SMOOTH",
"309 0 OFFCURVE",
"338 25 OFFCURVE",
"349 75 CURVE SMOOTH",
"646 1359 LINE SMOOTH",
"657 1409 OFFCURVE",
"640 1434 OFFCURVE",
"593 1434 CURVE SMOOTH",
"441 1434 LINE SMOOTH",
"394 1434 OFFCURVE",
"365 1409 OFFCURVE",
"354 1359 CURVE SMOOTH",
"57 75 LINE SMOOTH",
"46 25 OFFCURVE",
"63 0 OFFCURVE",
"110 0 CURVE SMOOTH"
);
}
);
width = 612;
}
);
unicode = 0049;
},
{
glyphname = J;
lastChange = "2016-10-15 02:20:23 +0000";
layers = (
{
layerId = UUID0;
paths = (
{
closed = 1;
nodes = (
"27 -10 OFFCURVE",
"98 -30 OFFCURVE",
"175 -30 CURVE SMOOTH",
"327 -30 OFFCURVE",
"434 12 OFFCURVE",
"495 97 CURVE SMOOTH",
"556 182 OFFCURVE",
"600 284 OFFCURVE",
"627 401 CURVE SMOOTH",
"852 1379 LINE SMOOTH",
"861 1416 OFFCURVE",
"848 1434 OFFCURVE",
"815 1434 CURVE SMOOTH",
"723 1434 LINE SMOOTH",
"690 1434 OFFCURVE",
"669 1416 OFFCURVE",
"660 1379 CURVE SMOOTH",
"429 378 LINE SMOOTH",
"392 215 OFFCURVE",
"323 126 OFFCURVE",
"194 126 CURVE SMOOTH",
"153 126 OFFCURVE",
"109 144 OFFCURVE",
"62 179 CURVE SMOOTH",
"29 204 OFFCURVE",
"3 200 OFFCURVE",
"-14 165 CURVE SMOOTH",
"-50 94 LINE SMOOTH",
"-65 65 OFFCURVE",
"-60 43 OFFCURVE",
"-37 29 CURVE SMOOTH"
);
}
);
width = 824;
},
{
layerId = "05202388-ED6B-49B3-97C3-39168626F3FE";
paths = (
{
closed = 1;
nodes = (
"35 -15 OFFCURVE",
"113 -34 OFFCURVE",
"207 -34 CURVE SMOOTH",
"355 -34 OFFCURVE",
"476 2 OFFCURVE",
"569 74 CURVE SMOOTH",
"662 147 OFFCURVE",
"737 306 OFFCURVE",
"794 551 CURVE SMOOTH",
"981 1359 LINE SMOOTH",
"992 1409 OFFCURVE",
"975 1434 OFFCURVE",
"928 1434 CURVE SMOOTH",
"776 1434 LINE SMOOTH",
"729 1434 OFFCURVE",
"700 1409 OFFCURVE",
"689 1359 CURVE SMOOTH",
"498 531 LINE SMOOTH",
"472 419 OFFCURVE",
"440 336 OFFCURVE",
"401 282 CURVE SMOOTH",
"362 229 OFFCURVE",
"305 202 OFFCURVE",
"228 202 CURVE SMOOTH",
"180 202 OFFCURVE",
"135 216 OFFCURVE",
"92 243 CURVE SMOOTH",
"46 272 OFFCURVE",
"16 268 OFFCURVE",
"2 231 CURVE SMOOTH",
"-48 97 LINE SMOOTH",
"-60 64 OFFCURVE",
"-53 39 OFFCURVE",
"-26 22 CURVE SMOOTH"
);
}
);
width = 947;
}
);
unicode = 004A;
},
{
glyphname = K;
lastChange = "2016-10-15 02:20:23 +0000";
layers = (
{
layerId = UUID0;
paths = (
{
closed = 1;
nodes = (
"192 0 LINE SMOOTH",
"225 0 OFFCURVE",
"246 18 OFFCURVE",
"255 55 CURVE SMOOTH",
"351 471 LINE",
"655 723 LINE",
"962 39 LINE SMOOTH",
"974 13 OFFCURVE",
"994 0 OFFCURVE",
"1023 0 CURVE SMOOTH",
"1130 0 LINE SMOOTH",
"1172 0 OFFCURVE",
"1183 22 OFFCURVE",
"1163 66 CURVE SMOOTH",
"809 850 LINE",
"1437 1368 LINE SMOOTH",
"1490 1412 OFFCURVE",
"1489 1434 OFFCURVE",
"1434 1434 CURVE SMOOTH",
"1291 1434 LINE SMOOTH",
"1270 1434 OFFCURVE",
"1243 1421 OFFCURVE",
"1212 1395 CURVE SMOOTH",
"413 734 LINE",
"409 734 LINE",
"420 773 OFFCURVE",
"427 799 OFFCURVE",
"430 814 CURVE SMOOTH",
"560 1379 LINE SMOOTH",
"569 1416 OFFCURVE",
"556 1434 OFFCURVE",
"523 1434 CURVE SMOOTH",
"431 1434 LINE SMOOTH",
"398 1434 OFFCURVE",
"377 1416 OFFCURVE",
"368 1379 CURVE SMOOTH",
"63 55 LINE SMOOTH",
"54 18 OFFCURVE",
"67 0 OFFCURVE",
"100 0 CURVE SMOOTH"
);
}
);
width = 1328;
},
{
layerId = "05202388-ED6B-49B3-97C3-39168626F3FE";
paths = (
{
closed = 1;
nodes = (
"262 0 LINE SMOOTH",
"309 0 OFFCURVE",
"338 25 OFFCURVE",
"349 75 CURVE SMOOTH",
"434 443 LINE",
"673 652 LINE",
"913 59 LINE SMOOTH",
"929 20 OFFCURVE",
"954 0 OFFCURVE",
"989 0 CURVE SMOOTH",
"1145 0 LINE SMOOTH",
"1207 0 OFFCURVE",
"1226 29 OFFCURVE",
"1203 86 CURVE SMOOTH",
"894 845 LINE",
"1467 1348 LINE SMOOTH",
"1532 1405 OFFCURVE",
"1526 1434 OFFCURVE",
"1449 1434 CURVE SMOOTH",
"1209 1434 LINE SMOOTH",
"1183 1434 OFFCURVE",
"1148 1414 OFFCURVE",
"1103 1375 CURVE SMOOTH",
"530 873 LINE",
"523 873 LINE",
"539 914 OFFCURVE",
"552 954 OFFCURVE",
"561 993 CURVE SMOOTH",
"646 1359 LINE SMOOTH",
"657 1409 OFFCURVE",
"640 1434 OFFCURVE",
"593 1434 CURVE SMOOTH",
"441 1434 LINE SMOOTH",
"394 1434 OFFCURVE",
"365 1409 OFFCURVE",
"354 1359 CURVE SMOOTH",
"57 75 LINE SMOOTH",
"46 25 OFFCURVE",
"63 0 OFFCURVE",
"110 0 CURVE SMOOTH"
);
}
);
width = 1361;
}
);
unicode = 004B;
},
{
glyphname = L;
lastChange = "2016-10-15 02:20:23 +0000";
layers = (
{
layerId = UUID0;
paths = (
{
closed = 1;
nodes = (
"905 0 LINE SMOOTH",
"942 0 OFFCURVE",
"963 15 OFFCURVE",
"970 45 CURVE SMOOTH",
"987 119 LINE SMOOTH",
"994 149 OFFCURVE",
"980 164 OFFCURVE",
"943 164 CURVE SMOOTH",
"280 164 LINE",
"560 1379 LINE SMOOTH",
"569 1416 OFFCURVE",
"556 1434 OFFCURVE",
"523 1434 CURVE SMOOTH",
"431 1434 LINE SMOOTH",
"398 1434 OFFCURVE",
"377 1416 OFFCURVE",
"368 1379 CURVE SMOOTH",
"63 55 LINE SMOOTH",
"54 18 OFFCURVE",
"67 0 OFFCURVE",
"100 0 CURVE SMOOTH"
);
}
);
width = 1136;
},
{
layerId = "05202388-ED6B-49B3-97C3-39168626F3FE";
paths = (
{
closed = 1;
nodes = (
"915 0 LINE SMOOTH",
"965 0 OFFCURVE",
"995 22 OFFCURVE",
"1005 65 CURVE SMOOTH",
"1032 183 LINE SMOOTH",
"1042 226 OFFCURVE",
"1022 248 OFFCURVE",
"972 248 CURVE SMOOTH",
"389 248 LINE",
"646 1359 LINE SMOOTH",
"657 1409 OFFCURVE",
"643 1434 OFFCURVE",
"603 1434 CURVE SMOOTH",
"441 1434 LINE SMOOTH",
"394 1434 OFFCURVE",
"365 1409 OFFCURVE",
"354 1359 CURVE SMOOTH",
"57 75 LINE SMOOTH",
"46 25 OFFCURVE",
"63 0 OFFCURVE",
"110 0 CURVE SMOOTH"
);
}
);
width = 1162;
}
);
unicode = 004C;
},
{
glyphname = Lslash;
lastChange = "2016-10-15 02:20:23 +0000";
layers = (
{
layerId = UUID0;
paths = (
{
closed = 1;
nodes = (
"280 551 LINE",
"284 551 LINE",
"277 528 OFFCURVE",
"271 501 OFFCURVE",
"264 471 CURVE SMOOTH",
"168 55 LINE SMOOTH",
"159 18 OFFCURVE",
"172 0 OFFCURVE",
"205 0 CURVE SMOOTH",
"1010 0 LINE SMOOTH",
"1047 0 OFFCURVE",
"1068 15 OFFCURVE",
"1075 45 CURVE SMOOTH",
"1092 119 LINE SMOOTH",
"1099 149 OFFCURVE",
"1084 164 OFFCURVE",
"1048 164 CURVE SMOOTH",
"385 164 LINE",
"505 683 LINE",
"840 878 LINE SMOOTH",
"867 893 OFFCURVE",
"883 914 OFFCURVE",
"889 941 CURVE SMOOTH",
"917 1063 LINE SMOOTH",
"925 1098 OFFCURVE",
"908 1103 OFFCURVE",
"866 1078 CURVE SMOOTH",
"556 897 LINE",
"552 897 LINE",
"573 977 LINE",
"665 1379 LINE SMOOTH",
"674 1416 OFFCURVE",
"661 1434 OFFCURVE",
"628 1434 CURVE SMOOTH",
"536 1434 LINE SMOOTH",
"503 1434 OFFCURVE",
"482 1416 OFFCURVE",
"473 1379 CURVE SMOOTH",
"332 765 LINE",
"124 644 LINE SMOOTH",
"97 628 OFFCURVE",
"80 607 OFFCURVE",
"74 581 CURVE SMOOTH",
"46 459 LINE SMOOTH",
"38 424 OFFCURVE",
"55 419 OFFCURVE",
"97 444 CURVE SMOOTH"
);
}
);
width = 1241;
},
{
layerId = "05202388-ED6B-49B3-97C3-39168626F3FE";
paths = (
{
closed = 1;
nodes = (
"229 468 LINE",
"236 468 LINE",
"223 429 OFFCURVE",
"212 389 OFFCURVE",
"203 348 CURVE SMOOTH",
"139 75 LINE SMOOTH",
"127 25 OFFCURVE",
"145 0 OFFCURVE",
"192 0 CURVE SMOOTH",
"997 0 LINE SMOOTH",
"1047 0 OFFCURVE",
"1077 22 OFFCURVE",
"1087 65 CURVE SMOOTH",
"1114 183 LINE SMOOTH",
"1124 226 OFFCURVE",
"1104 248 OFFCURVE",
"1054 248 CURVE SMOOTH",
"471 248 LINE",
"569 668 LINE",
"861 837 LINE SMOOTH",
"900 859 OFFCURVE",
"923 888 OFFCURVE",
"931 925 CURVE SMOOTH",
"967 1085 LINE SMOOTH",
"977 1130 OFFCURVE",
"955 1136 OFFCURVE",
"901 1105 CURVE SMOOTH",
"634 950 LINE",
"627 950 LINE",
"640 989 OFFCURVE",
"651 1029 OFFCURVE",
"660 1070 CURVE SMOOTH",
"728 1359 LINE SMOOTH",
"740 1409 OFFCURVE",
"726 1434 OFFCURVE",
"685 1434 CURVE SMOOTH",
"523 1434 LINE SMOOTH",
"476 1434 OFFCURVE",
"447 1409 OFFCURVE",
"436 1359 CURVE SMOOTH",
"294 750 LINE",
"136 658 LINE SMOOTH",
"97 635 OFFCURVE",
"74 606 OFFCURVE",
"66 570 CURVE SMOOTH",
"31 410 LINE SMOOTH",
"21 365 OFFCURVE",
"43 359 OFFCURVE",
"96 390 CURVE SMOOTH"
);
}
);
width = 1244;
}
);
unicode = 0141;
},
{
glyphname = M;
lastChange = "2016-10-15 02:20:23 +0000";
layers = (
{
layerId = UUID0;
paths = (
{
closed = 1;
nodes = (
"192 0 LINE SMOOTH",
"225 0 OFFCURVE",
"246 18 OFFCURVE",
"255 55 CURVE SMOOTH",
"497 1104 LINE SMOOTH",
"502 1128 OFFCURVE",
"508 1155 OFFCURVE",
"513 1184 CURVE",
"517 1184 LINE",
"627 61 LINE SMOOTH",
"631 20 OFFCURVE",
"648 0 OFFCURVE",
"679 0 CURVE SMOOTH",
"789 0 LINE SMOOTH",
"820 0 OFFCURVE",
"846 20 OFFCURVE",
"869 61 CURVE SMOOTH",
"1497 1184 LINE",
"1501 1184 LINE",
"1494 1161 OFFCURVE",
"1488 1134 OFFCURVE",
"1481 1104 CURVE SMOOTH",
"1239 55 LINE SMOOTH",
"1230 18 OFFCURVE",
"1243 0 OFFCURVE",
"1276 0 CURVE SMOOTH",
"1368 0 LINE SMOOTH",
"1401 0 OFFCURVE",
"1422 18 OFFCURVE",
"1431 55 CURVE SMOOTH",
"1736 1379 LINE SMOOTH",
"1745 1416 OFFCURVE",
"1732 1434 OFFCURVE",
"1699 1434 CURVE SMOOTH",
"1474 1434 LINE SMOOTH",
"1449 1434 OFFCURVE",
"1425 1414 OFFCURVE",
"1403 1374 CURVE SMOOTH",
"910 477 LINE SMOOTH",
"849 365 OFFCURVE",
"809 290 OFFCURVE",
"773 206 CURVE",
"767 206 LINE",
"767 286 OFFCURVE",
"763 368 OFFCURVE",
"754 477 CURVE SMOOTH",
"675 1374 LINE SMOOTH",
"672 1414 OFFCURVE",
"657 1434 OFFCURVE",
"632 1434 CURVE SMOOTH",
"431 1434 LINE SMOOTH",
"398 1434 OFFCURVE",
"377 1416 OFFCURVE",
"368 1379 CURVE SMOOTH",
"63 55 LINE SMOOTH",
"54 18 OFFCURVE",
"67 0 OFFCURVE",
"100 0 CURVE SMOOTH"
);
}
);
width = 1708;
},
{
layerId = "05202388-ED6B-49B3-97C3-39168626F3FE";
paths = (
{
closed = 1;
nodes = (
"262 0 LINE SMOOTH",
"309 0 OFFCURVE",
"338 25 OFFCURVE",
"349 75 CURVE SMOOTH",
"540 901 LINE SMOOTH",
"549 942 OFFCURVE",
"557 982 OFFCURVE",
"563 1021 CURVE",
"570 1021 LINE",
"642 81 LINE SMOOTH",
"646 27 OFFCURVE",
"668 0 OFFCURVE",
"709 0 CURVE SMOOTH",
"879 0 LINE SMOOTH",
"920 0 OFFCURVE",
"955 27 OFFCURVE",
"984 81 CURVE SMOOTH",
"1490 1021 LINE",
"1497 1021 LINE",
"1484 980 OFFCURVE",
"1473 940 OFFCURVE",
"1464 901 CURVE SMOOTH",
"1273 75 LINE SMOOTH",
"1262 25 OFFCURVE",
"1279 0 OFFCURVE",
"1326 0 CURVE SMOOTH",
"1478 0 LINE SMOOTH",
"1525 0 OFFCURVE",
"1554 25 OFFCURVE",
"1565 75 CURVE SMOOTH",
"1862 1359 LINE SMOOTH",
"1873 1409 OFFCURVE",
"1856 1434 OFFCURVE",
"1809 1434 CURVE SMOOTH",
"1505 1434 LINE SMOOTH",
"1466 1434 OFFCURVE",
"1433 1407 OFFCURVE",
"1404 1354 CURVE SMOOTH",
"930 477 LINE SMOOTH",
"909 438 OFFCURVE",
"893 407 OFFCURVE",
"883 383 CURVE SMOOTH",
"874 359 OFFCURVE",
"863 330 OFFCURVE",
"852 297 CURVE",
"846 297 LINE",
"850 330 OFFCURVE",
"852 358 OFFCURVE",
"853 381 CURVE SMOOTH",
"854 404 OFFCURVE",
"853 436 OFFCURVE",
"850 477 CURVE SMOOTH",
"782 1354 LINE SMOOTH",
"778 1407 OFFCURVE",
"756 1434 OFFCURVE",
"717 1434 CURVE SMOOTH",
"441 1434 LINE SMOOTH",
"394 1434 OFFCURVE",
"365 1409 OFFCURVE",
"354 1359 CURVE SMOOTH",
"57 75 LINE SMOOTH",
"46 25 OFFCURVE",
"63 0 OFFCURVE",
"110 0 CURVE SMOOTH"
);
}
);
width = 1828;
}
);
unicode = 004D;
},
{
glyphname = N;
lastChange = "2016-10-15 02:20:23 +0000";
layers = (
{
layerId = UUID0;
paths = (
{
closed = 1;
nodes = (
"192 0 LINE SMOOTH",
"225 0 OFFCURVE",
"246 18 OFFCURVE",
"255 55 CURVE SMOOTH",
"495 1095 LINE SMOOTH",
"500 1119 OFFCURVE",
"506 1146 OFFCURVE",
"511 1175 CURVE",
"515 1175 LINE",
"928 50 LINE SMOOTH",
"940 17 OFFCURVE",
"969 0 OFFCURVE",
"1016 0 CURVE SMOOTH",
"1098 0 LINE SMOOTH",
"1131 0 OFFCURVE",
"1152 18 OFFCURVE",
"1161 55 CURVE SMOOTH",
"1466 1379 LINE SMOOTH",
"1475 1416 OFFCURVE",
"1462 1434 OFFCURVE",
"1429 1434 CURVE SMOOTH",
"1337 1434 LINE SMOOTH",
"1304 1434 OFFCURVE",
"1283 1416 OFFCURVE",
"1274 1379 CURVE SMOOTH",
"1050 404 LINE SMOOTH",
"1045 381 OFFCURVE",
"1039 355 OFFCURVE",
"1033 324 CURVE",
"1029 324 LINE",
"641 1384 LINE SMOOTH",
"629 1417 OFFCURVE",
"599 1434 OFFCURVE",
"552 1434 CURVE SMOOTH",
"431 1434 LINE SMOOTH",
"398 1434 OFFCURVE",
"377 1416 OFFCURVE",
"368 1379 CURVE SMOOTH",
"63 55 LINE SMOOTH",
"54 18 OFFCURVE",
"67 0 OFFCURVE",
"100 0 CURVE SMOOTH"
);
}
);
width = 1438;
},
{
layerId = "05202388-ED6B-49B3-97C3-39168626F3FE";
paths = (
{
closed = 1;
nodes = (
"262 0 LINE SMOOTH",
"309 0 OFFCURVE",
"338 25 OFFCURVE",
"349 75 CURVE SMOOTH",
"518 806 LINE SMOOTH",
"527 846 OFFCURVE",
"535 886 OFFCURVE",
"541 926 CURVE",
"548 926 LINE",
"883 70 LINE SMOOTH",
"902 23 OFFCURVE",
"940 0 OFFCURVE",
"997 0 CURVE SMOOTH",
"1122 0 LINE SMOOTH",
"1169 0 OFFCURVE",
"1198 25 OFFCURVE",
"1209 75 CURVE SMOOTH",
"1506 1359 LINE SMOOTH",
"1517 1409 OFFCURVE",
"1500 1434 OFFCURVE",
"1453 1434 CURVE SMOOTH",
"1301 1434 LINE SMOOTH",
"1254 1434 OFFCURVE",
"1225 1409 OFFCURVE",
"1214 1359 CURVE SMOOTH",
"1049 644 LINE SMOOTH",
"1040 604 OFFCURVE",
"1032 564 OFFCURVE",
"1026 524 CURVE",
"1019 524 LINE",
"690 1364 LINE SMOOTH",
"671 1411 OFFCURVE",
"633 1434 OFFCURVE",
"576 1434 CURVE SMOOTH",
"441 1434 LINE SMOOTH",
"394 1434 OFFCURVE",
"365 1409 OFFCURVE",
"354 1359 CURVE SMOOTH",
"57 75 LINE SMOOTH",
"46 25 OFFCURVE",
"63 0 OFFCURVE",
"110 0 CURVE SMOOTH"
);
}
);
width = 1472;
}
);
unicode = 004E;
},
{
glyphname = Eng;
lastChange = "2016-10-15 02:20:23 +0000";
layers = (
{
layerId = UUID0;
paths = (
{
closed = 1;
nodes = (
"192 0 LINE SMOOTH",
"225 0 OFFCURVE",
"246 18 OFFCURVE",
"255 55 CURVE SMOOTH",
"429 809 LINE SMOOTH",
"459 938 OFFCURVE",
"520 1054 OFFCURVE",
"613 1155 CURVE SMOOTH",
"706 1257 OFFCURVE",
"805 1308 OFFCURVE",
"910 1308 CURVE SMOOTH",
"1039 1308 OFFCURVE",
"1120 1280 OFFCURVE",
"1153 1224 CURVE SMOOTH",
"1186 1168 OFFCURVE",
"1188 1075 OFFCURVE",
"1158 944 CURVE SMOOTH",
"949 38 LINE SMOOTH",
"921 -85 OFFCURVE",
"887 -165 OFFCURVE",
"846 -203 CURVE",
"806 -242 OFFCURVE",
"762 -261 OFFCURVE",
"715 -261 CURVE SMOOTH",
"684 -261 OFFCURVE",
"649 -251 OFFCURVE",
"608 -232 CURVE SMOOTH",
"574 -216 OFFCURVE",
"551 -222 OFFCURVE",
"540 -249 CURVE SMOOTH",
"511 -320 LINE SMOOTH",
"498 -351 OFFCURVE",
"505 -371 OFFCURVE",
"530 -382 CURVE SMOOTH",
"585 -405 OFFCURVE",
"640 -417 OFFCURVE",
"696 -417 CURVE SMOOTH",
"808 -417 OFFCURVE",
"900 -387 OFFCURVE",
"971 -326 CURVE SMOOTH",
"1042 -266 OFFCURVE",
"1095 -160 OFFCURVE",
"1130 -9 CURVE SMOOTH",
"1370 1032 LINE",
"1401 1163 OFFCURVE",
"1384 1268 OFFCURVE",
"1321 1346 CURVE SMOOTH",
"1258 1425 OFFCURVE",
"1162 1464 OFFCURVE",
"1031 1464 CURVE SMOOTH",
"924 1464 OFFCURVE",
"826 1440 OFFCURVE",
"737 1392 CURVE SMOOTH",
"648 1344 OFFCURVE",
"578 1280 OFFCURVE",
"525 1199 CURVE",
"521 1199 LINE",
"550 1379 LINE SMOOTH",
"556 1416 OFFCURVE",
"544 1434 OFFCURVE",
"513 1434 CURVE SMOOTH",
"431 1434 LINE SMOOTH",
"398 1434 OFFCURVE",
"377 1416 OFFCURVE",
"368 1379 CURVE SMOOTH",
"63 55 LINE SMOOTH",
"54 18 OFFCURVE",
"67 0 OFFCURVE",
"100 0 CURVE SMOOTH"
);
}
);
width = 1422;
},
{
layerId = "05202388-ED6B-49B3-97C3-39168626F3FE";
paths = (
{
closed = 1;
nodes = (
"262 0 LINE SMOOTH",
"309 0 OFFCURVE",
"338 25 OFFCURVE",
"349 75 CURVE SMOOTH",
"463 567 LINE SMOOTH",
"511 774 OFFCURVE",
"580 936 OFFCURVE",
"670 1054 CURVE SMOOTH",
"761 1173 OFFCURVE",
"843 1232 OFFCURVE",
"916 1232 CURVE SMOOTH",
"1007 1232 OFFCURVE",
"1061 1197 OFFCURVE",
"1079 1128 CURVE SMOOTH",
"1097 1059 OFFCURVE",
"1094 971 OFFCURVE",
"1069 864 CURVE SMOOTH",
"891 91 LINE SMOOTH",
"866 -16 OFFCURVE",
"838 -88 OFFCURVE",
"806 -126 CURVE SMOOTH",
"774 -165 OFFCURVE",
"732 -184 OFFCURVE",
"681 -184 CURVE SMOOTH",
"650 -184 OFFCURVE",
"619 -178 OFFCURVE",
"590 -167 CURVE SMOOTH",
"555 -153 OFFCURVE",
"531 -166 OFFCURVE",
"518 -206 CURVE SMOOTH",
"479 -320 LINE SMOOTH",
"467 -356 OFFCURVE",
"474 -379 OFFCURVE",
"501 -389 CURVE SMOOTH",
"555 -410 OFFCURVE",
"616 -420 OFFCURVE",
"685 -420 CURVE SMOOTH",
"938 -420 OFFCURVE",
"1097 -281 OFFCURVE",
"1170 35 CURVE SMOOTH",
"1382 952 LINE SMOOTH",
"1417 1101 OFFCURVE",
"1401 1225 OFFCURVE",
"1336 1322 CURVE SMOOTH",
"1271 1419 OFFCURVE",
"1184 1468 OFFCURVE",
"1074 1468 CURVE SMOOTH",
"961 1468 OFFCURVE",
"868 1441 OFFCURVE",
"797 1387 CURVE SMOOTH",
"726 1333 OFFCURVE",
"662 1266 OFFCURVE",
"606 1187 CURVE",
"599 1187 LINE",
"628 1359 LINE SMOOTH",
"637 1409 OFFCURVE",
"619 1434 OFFCURVE",
"575 1434 CURVE SMOOTH",
"441 1434 LINE SMOOTH",
"394 1434 OFFCURVE",
"365 1409 OFFCURVE",
"354 1359 CURVE SMOOTH",
"57 75 LINE SMOOTH",
"46 25 OFFCURVE",
"63 0 OFFCURVE",
"110 0 CURVE SMOOTH"
);
}
);
width = 1442;
}
);
unicode = 014A;
},
{
glyphname = O;
lastChange = "2016-10-15 02:20:23 +0000";
layers = (
{
layerId = UUID0;
paths = (
{
closed = 1;
nodes = (
"110 390 OFFCURVE",
"162 241 OFFCURVE",
"266 132 CURVE SMOOTH",
"370 24 OFFCURVE",
"524 -30 OFFCURVE",
"727 -30 CURVE SMOOTH",
"954 -30 OFFCURVE",
"1138 51 OFFCURVE",
"1281 212 CURVE SMOOTH",
"1424 373 OFFCURVE",
"1495 587 OFFCURVE",
"1495 854 CURVE SMOOTH",
"1495 1044 OFFCURVE",
"1443 1193 OFFCURVE",
"1339 1301 CURVE SMOOTH",
"1235 1410 OFFCURVE",
"1081 1464 OFFCURVE",
"878 1464 CURVE SMOOTH",
"651 1464 OFFCURVE",
"467 1383 OFFCURVE",
"324 1222 CURVE SMOOTH",
"181 1061 OFFCURVE",
"110 847 OFFCURVE",
"110 580 CURVE SMOOTH"
);
},
{
closed = 1;
nodes = (
"315 813 OFFCURVE",
"370 1002 OFFCURVE",
"481 1124 CURVE SMOOTH",
"592 1247 OFFCURVE",
"720 1308 OFFCURVE",
"867 1308 CURVE SMOOTH",
"1147 1308 OFFCURVE",
"1290 1151 OFFCURVE",
"1290 878 CURVE SMOOTH",
"1290 621 OFFCURVE",
"1235 432 OFFCURVE",
"1124 309 CURVE SMOOTH",
"1013 187 OFFCURVE",
"885 126 OFFCURVE",
"738 126 CURVE SMOOTH",
"458 126 OFFCURVE",
"315 283 OFFCURVE",
"315 556 CURVE SMOOTH"
);
}
);
width = 1514;
},
{
layerId = "05202388-ED6B-49B3-97C3-39168626F3FE";
paths = (
{
closed = 1;
nodes = (
"104 380 OFFCURVE",
"160 225 OFFCURVE",
"273 121 CURVE SMOOTH",
"386 18 OFFCURVE",
"542 -34 OFFCURVE",
"742 -34 CURVE SMOOTH",
"975 -34 OFFCURVE",
"1163 51 OFFCURVE",
"1305 221 CURVE SMOOTH",
"1447 392 OFFCURVE",
"1518 600 OFFCURVE",
"1518 847 CURVE SMOOTH",
"1518 1054 OFFCURVE",
"1462 1209 OFFCURVE",
"1349 1312 CURVE SMOOTH",
"1236 1416 OFFCURVE",
"1080 1468 OFFCURVE",
"880 1468 CURVE SMOOTH",
"647 1468 OFFCURVE",
"459 1383 OFFCURVE",
"317 1212 CURVE SMOOTH",
"175 1042 OFFCURVE",
"104 834 OFFCURVE",
"104 587 CURVE SMOOTH"
);
},
{
closed = 1;
nodes = (
"416 752 OFFCURVE",
"458 918 OFFCURVE",
"541 1043 CURVE SMOOTH",
"624 1169 OFFCURVE",
"733 1232 OFFCURVE",
"866 1232 CURVE SMOOTH",
"1093 1232 OFFCURVE",
"1206 1102 OFFCURVE",
"1206 889 CURVE SMOOTH",
"1206 682 OFFCURVE",
"1164 516 OFFCURVE",
"1081 390 CURVE SMOOTH",
"998 265 OFFCURVE",
"889 202 OFFCURVE",
"756 202 CURVE SMOOTH",
"529 202 OFFCURVE",
"416 332 OFFCURVE",
"416 545 CURVE SMOOTH"
);
}
);
width = 1532;
}
);
unicode = 004F;
},
{
glyphname = Oslash;
lastChange = "2016-10-15 02:20:23 +0000";
layers = (
{
layerId = UUID0;
paths = (
{
closed = 1;
nodes = (
"110 457 OFFCURVE",
"132 351 OFFCURVE",
"176 262 CURVE",
"29 131 LINE SMOOTH",
"2 106 OFFCURVE",
"-2 83 OFFCURVE",
"18 60 CURVE SMOOTH",
"58 15 LINE SMOOTH",
"78 -8 OFFCURVE",
"102 -7 OFFCURVE",
"129 17 CURVE SMOOTH",
"263 136 LINE",
"367 25 OFFCURVE",
"522 -30 OFFCURVE",
"727 -30 CURVE SMOOTH",
"954 -30 OFFCURVE",
"1138 51 OFFCURVE",
"1281 212 CURVE SMOOTH",
"1424 373 OFFCURVE",
"1495 587 OFFCURVE",
"1495 854 CURVE SMOOTH",
"1495 977 OFFCURVE",
"1473 1084 OFFCURVE",
"1429 1173 CURVE",
"1575 1303 LINE SMOOTH",
"1602 1328 OFFCURVE",
"1606 1351 OFFCURVE",
"1586 1374 CURVE SMOOTH",
"1546 1419 LINE SMOOTH",
"1526 1442 OFFCURVE",
"1502 1441 OFFCURVE",
"1475 1417 CURVE SMOOTH",
"1342 1299 LINE",
"1237 1409 OFFCURVE",
"1083 1464 OFFCURVE",
"878 1464 CURVE SMOOTH",
"651 1464 OFFCURVE",
"467 1383 OFFCURVE",
"324 1222 CURVE SMOOTH",
"181 1061 OFFCURVE",
"110 847 OFFCURVE",
"110 580 CURVE SMOOTH"
);
},
{
closed = 1;
nodes = (
"315 813 OFFCURVE",
"370 1002 OFFCURVE",
"481 1124 CURVE SMOOTH",
"592 1247 OFFCURVE",
"720 1308 OFFCURVE",
"867 1308 CURVE SMOOTH",
"1019 1308 OFFCURVE",
"1131 1263 OFFCURVE",
"1202 1174 CURVE",
"333 402 LINE",
"321 448 OFFCURVE",
"315 499 OFFCURVE",
"315 556 CURVE SMOOTH"
);
},
{
closed = 1;
nodes = (
"1271 1033 LINE",
"1284 987 OFFCURVE",
"1290 935 OFFCURVE",
"1290 878 CURVE SMOOTH",
"1290 621 OFFCURVE",
"1235 432 OFFCURVE",
"1124 309 CURVE SMOOTH",
"1013 187 OFFCURVE",
"885 126 OFFCURVE",
"738 126 CURVE SMOOTH",
"586 126 OFFCURVE",
"474 171 OFFCURVE",
"403 260 CURVE"
);
}
);
width = 1514;
},
{
layerId = "05202388-ED6B-49B3-97C3-39168626F3FE";
paths = (
{
closed = 1;
nodes = (
"104 474 OFFCURVE",
"121 377 OFFCURVE",
"154 295 CURVE",
"6 166 LINE SMOOTH",
"-24 140 OFFCURVE",
"-27 113 OFFCURVE",
"-3 85 CURVE SMOOTH",
"75 -6 LINE SMOOTH",
"99 -34 OFFCURVE",
"126 -35 OFFCURVE",
"157 -8 CURVE SMOOTH",
"289 107 LINE",
"400 13 OFFCURVE",
"551 -34 OFFCURVE",
"742 -34 CURVE SMOOTH",
"975 -34 OFFCURVE",
"1163 51 OFFCURVE",
"1305 221 CURVE SMOOTH",
"1447 392 OFFCURVE",
"1518 600 OFFCURVE",
"1518 847 CURVE SMOOTH",
"1518 960 OFFCURVE",
"1501 1057 OFFCURVE",
"1468 1139 CURVE",
"1616 1268 LINE SMOOTH",
"1646 1294 OFFCURVE",
"1649 1321 OFFCURVE",
"1625 1349 CURVE SMOOTH",
"1547 1440 LINE SMOOTH",
"1523 1468 OFFCURVE",
"1496 1469 OFFCURVE",
"1465 1442 CURVE SMOOTH",
"1333 1327 LINE",
"1222 1421 OFFCURVE",
"1071 1468 OFFCURVE",
"880 1468 CURVE SMOOTH",
"647 1468 OFFCURVE",
"459 1383 OFFCURVE",
"317 1212 CURVE SMOOTH",
"175 1042 OFFCURVE",
"104 834 OFFCURVE",
"104 587 CURVE SMOOTH"
);
},
{
closed = 1;
nodes = (
"416 545 LINE",
"416 752 OFFCURVE",
"458 918 OFFCURVE",
"541 1043 CURVE SMOOTH",
"624 1169 OFFCURVE",
"733 1232 OFFCURVE",
"866 1232 CURVE SMOOTH",
"979 1232 OFFCURVE",
"1064 1202 OFFCURVE",
"1121 1141 CURVE",
"416 525 LINE"
);
},
{
closed = 1;
nodes = (
"1206 909 LINE",
"1206 889 LINE SMOOTH",
"1206 682 OFFCURVE",
"1164 516 OFFCURVE",
"1081 390 CURVE SMOOTH",
"998 265 OFFCURVE",
"889 202 OFFCURVE",
"756 202 CURVE SMOOTH",
"643 202 OFFCURVE",
"558 232 OFFCURVE",
"501 293 CURVE"
);
}
);
width = 1532;
}
);
unicode = 00D8;
},
{
glyphname = P;
lastChange = "2016-10-15 02:20:23 +0000";
layers = (
{
layerId = UUID0;
paths = (
{
closed = 1;
nodes = (
"192 0 LINE",
"225 0 OFFCURVE",
"246 18 OFFCURVE",
"255 55 CURVE SMOOTH",
"375 576 LINE",
"673 576 LINE SMOOTH",
"909 576 OFFCURVE",
"1075 624 OFFCURVE",
"1172 720 CURVE SMOOTH",
"1269 816 OFFCURVE",
"1318 924 OFFCURVE",
"1318 1045 CURVE SMOOTH",
"1318 1164 OFFCURVE",
"1277 1259 OFFCURVE",
"1196 1329 CURVE SMOOTH",
"1115 1399 OFFCURVE",
"997 1434 OFFCURVE",
"841 1434 CURVE SMOOTH",
"431 1434 LINE SMOOTH",
"398 1434 OFFCURVE",
"377 1416 OFFCURVE",
"368 1379 CURVE SMOOTH",
"63 55 LINE SMOOTH",
"54 18 OFFCURVE",
"67 0 OFFCURVE",
"100 0 CURVE SMOOTH"
);
},
{
closed = 1;
nodes = (
"535 1270 LINE",
"806 1270 LINE SMOOTH",
"917 1270 OFFCURVE",
"998 1252 OFFCURVE",
"1048 1215 CURVE SMOOTH",
"1098 1179 OFFCURVE",
"1123 1116 OFFCURVE",
"1123 1025 CURVE SMOOTH",
"1123 940 OFFCURVE",
"1091 871 OFFCURVE",
"1027 818 CURVE SMOOTH",
"963 766 OFFCURVE",
"862 740 OFFCURVE",
"724 740 CURVE SMOOTH",
"413 740 LINE"
);
}
);
width = 1298;
},
{
layerId = "05202388-ED6B-49B3-97C3-39168626F3FE";
paths = (
{
closed = 1;
nodes = (
"262 0 LINE",
"309 0 OFFCURVE",
"338 25 OFFCURVE",
"349 75 CURVE SMOOTH",
"456 536 LINE",
"628 536 LINE SMOOTH",
"868 536 OFFCURVE",
"1048 583 OFFCURVE",
"1168 678 CURVE SMOOTH",
"1288 773 OFFCURVE",
"1348 896 OFFCURVE",
"1348 1047 CURVE SMOOTH",
"1348 1315 OFFCURVE",
"1170 1434 OFFCURVE",
"795 1434 CURVE SMOOTH",
"441 1434 LINE SMOOTH",
"394 1434 OFFCURVE",
"365 1409 OFFCURVE",
"354 1359 CURVE SMOOTH",
"57 75 LINE SMOOTH",
"46 25 OFFCURVE",
"63 0 OFFCURVE",
"110 0 CURVE SMOOTH"
);
},
{
closed = 1;
nodes = (
"607 1190 LINE",
"738 1190 LINE SMOOTH",
"857 1190 OFFCURVE",
"939 1177 OFFCURVE",
"984 1151 CURVE SMOOTH",
"1029 1126 OFFCURVE",
"1052 1079 OFFCURVE",
"1052 1011 CURVE SMOOTH",
"1052 945 OFFCURVE",
"1025 890 OFFCURVE",
"972 846 CURVE SMOOTH",
"919 802 OFFCURVE",
"822 780 OFFCURVE",
"683 780 CURVE SMOOTH",
"512 780 LINE"
);
}
);
width = 1328;
}
);
unicode = 0050;
},
{
glyphname = Thorn;
lastChange = "2016-10-15 02:20:23 +0000";
layers = (
{
layerId = UUID0;
paths = (
{
closed = 1;
nodes = (
"190 -8 LINE",
"223 -8 OFFCURVE",
"244 10 OFFCURVE",
"253 47 CURVE SMOOTH",
"320 336 LINE",
"538 336 LINE SMOOTH",
"755 336 OFFCURVE",
"919 379 OFFCURVE",
"1029 465 CURVE SMOOTH",
"1139 551 OFFCURVE",
"1194 665 OFFCURVE",
"1194 808 CURVE SMOOTH",
"1194 908 OFFCURVE",
"1161 994 OFFCURVE",
"1095 1067 CURVE SMOOTH",
"1029 1140 OFFCURVE",
"901 1176 OFFCURVE",
"712 1176 CURVE SMOOTH",
"514 1176 LINE",
"561 1380 LINE SMOOTH",
"570 1417 OFFCURVE",
"557 1435 OFFCURVE",
"523 1435 CURVE SMOOTH",
"431 1435 LINE SMOOTH",
"398 1435 OFFCURVE",
"378 1417 OFFCURVE",
"369 1380 CURVE SMOOTH",
"61 47 LINE SMOOTH",
"52 10 OFFCURVE",
"65 -8 OFFCURVE",
"98 -8 CURVE SMOOTH"
);
},
{
closed = 1;
nodes = (
"476 1012 LINE",
"672 1012 LINE SMOOTH",
"785 1012 OFFCURVE",
"866 995 OFFCURVE",
"915 961 CURVE SMOOTH",
"964 927 OFFCURVE",
"989 869 OFFCURVE",
"989 788 CURVE SMOOTH",
"989 700 OFFCURVE",
"954 630 OFFCURVE",
"884 578 CURVE SMOOTH",
"815 526 OFFCURVE",
"718 500 OFFCURVE",
"593 500 CURVE SMOOTH",
"357 500 LINE"
);
}
);
width = 1233;
},
{
layerId = "05202388-ED6B-49B3-97C3-39168626F3FE";
paths = (
{
closed = 1;
nodes = (
"259 -11 LINE",
"306 -11 OFFCURVE",
"336 14 OFFCURVE",
"347 64 CURVE SMOOTH",
"402 302 LINE",
"588 302 LINE SMOOTH",
"818 302 OFFCURVE",
"989 348 OFFCURVE",
"1101 440 CURVE SMOOTH",
"1214 533 OFFCURVE",
"1270 656 OFFCURVE",
"1270 811 CURVE SMOOTH",
"1270 927 OFFCURVE",
"1227 1020 OFFCURVE",
"1142 1091 CURVE SMOOTH",
"1057 1162 OFFCURVE",
"921 1198 OFFCURVE",
"735 1198 CURVE SMOOTH",
"609 1198 LINE",
"647 1363 LINE SMOOTH",
"658 1413 OFFCURVE",
"641 1438 OFFCURVE",
"594 1438 CURVE SMOOTH",
"442 1438 LINE SMOOTH",
"395 1438 OFFCURVE",
"366 1413 OFFCURVE",
"355 1363 CURVE SMOOTH",
"55 64 LINE SMOOTH",
"44 14 OFFCURVE",
"61 -11 OFFCURVE",
"107 -11 CURVE SMOOTH"
);
},
{
closed = 1;
nodes = (
"552 954 LINE",
"685 954 LINE SMOOTH",
"772 954 OFFCURVE",
"841 941 OFFCURVE",
"892 914 CURVE SMOOTH",
"943 887 OFFCURVE",
"968 840 OFFCURVE",
"968 773 CURVE SMOOTH",
"968 695 OFFCURVE",
"939 638 OFFCURVE",
"881 601 CURVE SMOOTH",
"823 564 OFFCURVE",
"746 546 OFFCURVE",
"651 546 CURVE SMOOTH",
"458 546 LINE"
);
}
);
width = 1306;
}
);
unicode = 00DE;
},
{
glyphname = Q;
lastChange = "2016-10-15 02:20:23 +0000";
layers = (
{
layerId = UUID0;
paths = (
{
closed = 1;
nodes = (
"110 390 OFFCURVE",
"162 241 OFFCURVE",
"266 132 CURVE SMOOTH",
"352 43 OFFCURVE",
"472 -10 OFFCURVE",
"625 -25 CURVE",
"625 -147 OFFCURVE",
"654 -236 OFFCURVE",
"712 -292 CURVE SMOOTH",
"770 -349 OFFCURVE",
"867 -377 OFFCURVE",
"1004 -377 CURVE SMOOTH",
"1039 -377 OFFCURVE",
"1098 -370 OFFCURVE",
"1179 -357 CURVE SMOOTH",
"1200 -354 OFFCURVE",
"1209 -345 OFFCURVE",
"1207 -329 CURVE SMOOTH",
"1195 -239 LINE SMOOTH",
"1193 -224 OFFCURVE",
"1179 -219 OFFCURVE",
"1152 -224 CURVE SMOOTH",
"1109 -233 OFFCURVE",
"1070 -237 OFFCURVE",
"1036 -237 CURVE SMOOTH",
"959 -237 OFFCURVE",
"904 -222 OFFCURVE",
"869 -193 CURVE SMOOTH",
"835 -164 OFFCURVE",
"818 -108 OFFCURVE",
"817 -26 CURVE",
"1003 -7 OFFCURVE",
"1158 73 OFFCURVE",
"1281 212 CURVE SMOOTH",
"1424 373 OFFCURVE",
"1495 587 OFFCURVE",
"1495 854 CURVE SMOOTH",
"1495 1044 OFFCURVE",
"1443 1193 OFFCURVE",
"1339 1301 CURVE SMOOTH",
"1235 1410 OFFCURVE",
"1081 1464 OFFCURVE",
"878 1464 CURVE SMOOTH",
"651 1464 OFFCURVE",
"467 1383 OFFCURVE",
"324 1222 CURVE SMOOTH",
"181 1061 OFFCURVE",
"110 847 OFFCURVE",
"110 580 CURVE SMOOTH"
);
},
{
closed = 1;
nodes = (
"315 813 OFFCURVE",
"370 1002 OFFCURVE",
"481 1124 CURVE SMOOTH",
"592 1247 OFFCURVE",
"720 1308 OFFCURVE",
"867 1308 CURVE SMOOTH",
"1147 1308 OFFCURVE",
"1290 1151 OFFCURVE",
"1290 878 CURVE SMOOTH",
"1290 621 OFFCURVE",
"1235 432 OFFCURVE",
"1124 309 CURVE SMOOTH",
"1013 187 OFFCURVE",
"885 126 OFFCURVE",
"738 126 CURVE SMOOTH",
"458 126 OFFCURVE",
"315 283 OFFCURVE",
"315 556 CURVE SMOOTH"
);
}
);
width = 1514;
},
{
layerId = "05202388-ED6B-49B3-97C3-39168626F3FE";
paths = (
{
closed = 1;
nodes = (
"104 381 OFFCURVE",
"160 226 OFFCURVE",
"273 122 CURVE SMOOTH",
"357 45 OFFCURVE",
"466 -4 OFFCURVE",
"599 -24 CURVE",
"604 -143 OFFCURVE",
"637 -237 OFFCURVE",
"698 -305 CURVE SMOOTH",
"759 -373 OFFCURVE",
"862 -407 OFFCURVE",
"1007 -407 CURVE SMOOTH",
"1086 -407 OFFCURVE",
"1159 -396 OFFCURVE",
"1228 -373 CURVE SMOOTH",
"1259 -363 OFFCURVE",
"1271 -346 OFFCURVE",
"1264 -323 CURVE SMOOTH",
"1231 -207 LINE SMOOTH",
"1224 -182 OFFCURVE",
"1205 -175 OFFCURVE",
"1173 -185 CURVE SMOOTH",
"1137 -196 OFFCURVE",
"1102 -202 OFFCURVE",
"1069 -202 CURVE SMOOTH",
"998 -202 OFFCURVE",
"951 -187 OFFCURVE",
"930 -156 CURVE SMOOTH",
"909 -126 OFFCURVE",
"896 -81 OFFCURVE",
"892 -21 CURVE",
"1057 9 OFFCURVE",
"1195 90 OFFCURVE",
"1305 222 CURVE SMOOTH",
"1447 393 OFFCURVE",
"1518 601 OFFCURVE",
"1518 847 CURVE SMOOTH",
"1518 1054 OFFCURVE",
"1462 1209 OFFCURVE",
"1349 1312 CURVE SMOOTH",
"1236 1416 OFFCURVE",
"1080 1468 OFFCURVE",
"880 1468 CURVE SMOOTH",
"647 1468 OFFCURVE",
"459 1383 OFFCURVE",
"317 1212 CURVE SMOOTH",
"175 1042 OFFCURVE",
"104 834 OFFCURVE",
"104 587 CURVE SMOOTH"
);
},
{
closed = 1;
nodes = (
"416 752 OFFCURVE",
"458 918 OFFCURVE",
"541 1043 CURVE SMOOTH",
"624 1169 OFFCURVE",
"733 1232 OFFCURVE",
"866 1232 CURVE SMOOTH",
"1093 1232 OFFCURVE",
"1206 1102 OFFCURVE",
"1206 889 CURVE SMOOTH",
"1206 682 OFFCURVE",
"1164 516 OFFCURVE",
"1081 390 CURVE SMOOTH",
"998 265 OFFCURVE",
"889 202 OFFCURVE",
"756 202 CURVE SMOOTH",
"529 202 OFFCURVE",
"416 332 OFFCURVE",
"416 545 CURVE SMOOTH"
);
}
);
width = 1532;
}
);
unicode = 0051;
},
{
glyphname = R;
lastChange = "2016-10-15 02:20:23 +0000";
layers = (
{
layerId = UUID0;
paths = (
{
closed = 1;
nodes = (
"192 0 LINE",
"225 0 OFFCURVE",
"246 18 OFFCURVE",
"255 55 CURVE SMOOTH",
"385 621 LINE",
"559 621 LINE SMOOTH",
"650 621 OFFCURVE",
"720 596 OFFCURVE",
"767 545 CURVE",
"815 495 OFFCURVE",
"847 445 OFFCURVE",
"863 396 CURVE SMOOTH",
"979 39 LINE SMOOTH",
"988 13 OFFCURVE",
"1008 0 OFFCURVE",
"1040 0 CURVE SMOOTH",
"1133 0 LINE SMOOTH",
"1171 0 OFFCURVE",
"1182 22 OFFCURVE",
"1166 66 CURVE SMOOTH",
"1035 433 LINE SMOOTH",
"1020 474 OFFCURVE",
"1005 508 OFFCURVE",
"989 536 CURVE SMOOTH",
"973 565 OFFCURVE",
"937 604 OFFCURVE",
"880 655 CURVE",
"881 657 LINE",
"1012 668 OFFCURVE",
"1123 709 OFFCURVE",
"1214 782 CURVE SMOOTH",
"1306 855 OFFCURVE",
"1352 946 OFFCURVE",
"1352 1056 CURVE SMOOTH",
"1352 1164 OFFCURVE",
"1316 1254 OFFCURVE",
"1244 1326 CURVE SMOOTH",
"1172 1398 OFFCURVE",
"1052 1434 OFFCURVE",
"884 1434 CURVE SMOOTH",
"431 1434 LINE SMOOTH",
"398 1434 OFFCURVE",
"377 1416 OFFCURVE",
"368 1379 CURVE SMOOTH",
"63 55 LINE SMOOTH",
"54 18 OFFCURVE",
"67 0 OFFCURVE",
"100 0 CURVE SMOOTH"
);
},
{
closed = 1;
nodes = (
"535 1270 LINE",
"832 1270 LINE SMOOTH",
"929 1270 OFFCURVE",
"1008 1255 OFFCURVE",
"1067 1226 CURVE SMOOTH",
"1127 1197 OFFCURVE",
"1157 1134 OFFCURVE",
"1157 1038 CURVE SMOOTH",
"1157 952 OFFCURVE",
"1116 888 OFFCURVE",
"1034 847 CURVE SMOOTH",
"953 806 OFFCURVE",
"852 785 OFFCURVE",
"732 785 CURVE SMOOTH",
"423 785 LINE"
);
}
);
width = 1384;
},
{
layerId = "05202388-ED6B-49B3-97C3-39168626F3FE";
paths = (
{
closed = 1;
nodes = (
"262 0 LINE",
"309 0 OFFCURVE",
"338 25 OFFCURVE",
"349 75 CURVE SMOOTH",
"466 579 LINE",
"560 579 LINE SMOOTH",
"619 579 OFFCURVE",
"670 561 OFFCURVE",
"713 526 CURVE SMOOTH",
"757 491 OFFCURVE",
"788 447 OFFCURVE",
"806 396 CURVE SMOOTH",
"925 59 LINE SMOOTH",
"939 20 OFFCURVE",
"964 0 OFFCURVE",
"1001 0 CURVE SMOOTH",
"1154 0 LINE SMOOTH",
"1215 0 OFFCURVE",
"1234 29 OFFCURVE",
"1212 86 CURVE SMOOTH",
"1078 433 LINE SMOOTH",
"1064 468 OFFCURVE",
"1045 507 OFFCURVE",
"1022 549 CURVE SMOOTH",
"999 591 OFFCURVE",
"961 623 OFFCURVE",
"908 645 CURVE",
"908 647 LINE",
"1067 668 OFFCURVE",
"1189 718 OFFCURVE",
"1276 797 CURVE SMOOTH",
"1363 877 OFFCURVE",
"1407 970 OFFCURVE",
"1407 1077 CURVE SMOOTH",
"1407 1189 OFFCURVE",
"1364 1276 OFFCURVE",
"1279 1339 CURVE SMOOTH",
"1194 1402 OFFCURVE",
"1052 1434 OFFCURVE",
"851 1434 CURVE SMOOTH",
"441 1434 LINE SMOOTH",
"394 1434 OFFCURVE",
"365 1409 OFFCURVE",
"354 1359 CURVE SMOOTH",
"57 75 LINE SMOOTH",
"46 25 OFFCURVE",
"63 0 OFFCURVE",
"110 0 CURVE SMOOTH"
);
},
{
closed = 1;
nodes = (
"607 1190 LINE",
"794 1190 LINE SMOOTH",
"897 1190 OFFCURVE",
"977 1181 OFFCURVE",
"1034 1163 CURVE",
"1092 1146 OFFCURVE",
"1121 1108 OFFCURVE",
"1121 1049 CURVE SMOOTH",
"1121 976 OFFCURVE",
"1080 920 OFFCURVE",
"998 883 CURVE SMOOTH",
"917 846 OFFCURVE",
"828 827 OFFCURVE",
"732 827 CURVE SMOOTH",
"523 827 LINE"
);
}
);
width = 1428;
}
);
unicode = 0052;
},
{
glyphname = S;
lastChange = "2016-10-15 02:20:23 +0000";
layers = (
{
layerId = UUID0;
paths = (
{
closed = 1;
nodes = (
"169 29 OFFCURVE",
"307 -30 OFFCURVE",
"526 -30 CURVE SMOOTH",
"653 -30 OFFCURVE",
"753 -13 OFFCURVE",
"827 22 CURVE SMOOTH",
"901 57 OFFCURVE",
"963 106 OFFCURVE",
"1014 169 CURVE SMOOTH",
"1065 232 OFFCURVE",
"1090 311 OFFCURVE",
"1090 405 CURVE SMOOTH",
"1090 452 OFFCURVE",
"1080 501 OFFCURVE",
"1061 552 CURVE SMOOTH",
"1042 604 OFFCURVE",
"1010 647 OFFCURVE",
"965 681 CURVE SMOOTH",
"921 715 OFFCURVE",
"872 743 OFFCURVE",
"819 764 CURVE SMOOTH",
"752 791 OFFCURVE",
"665 815 OFFCURVE",
"588 852 CURVE SMOOTH",
"539 876 OFFCURVE",
"490 917 OFFCURVE",
"474 970 CURVE SMOOTH",
"466 997 OFFCURVE",
"462 1026 OFFCURVE",
"462 1055 CURVE SMOOTH",
"462 1111 OFFCURVE",
"479 1158 OFFCURVE",
"514 1197 CURVE SMOOTH",
"549 1236 OFFCURVE",
"588 1262 OFFCURVE",
"632 1275 CURVE SMOOTH",
"676 1288 OFFCURVE",
"717 1294 OFFCURVE",
"755 1294 CURVE SMOOTH",
"814 1294 OFFCURVE",
"871 1282 OFFCURVE",
"926 1259 CURVE SMOOTH",
"981 1236 OFFCURVE",
"1020 1214 OFFCURVE",
"1044 1194 CURVE SMOOTH",
"1075 1169 OFFCURVE",
"1098 1166 OFFCURVE",
"1113 1186 CURVE SMOOTH",
"1171 1261 LINE SMOOTH",
"1192 1289 OFFCURVE",
"1187 1316 OFFCURVE",
"1154 1341 CURVE SMOOTH",
"1105 1379 OFFCURVE",
"1050 1409 OFFCURVE",
"990 1431 CURVE SMOOTH",
"930 1453 OFFCURVE",
"856 1464 OFFCURVE",
"767 1464 CURVE SMOOTH",
"704 1464 OFFCURVE",
"635 1453 OFFCURVE",
"561 1432 CURVE SMOOTH",
"487 1411 OFFCURVE",
"420 1364 OFFCURVE",
"360 1291 CURVE SMOOTH",
"300 1218 OFFCURVE",
"270 1135 OFFCURVE",
"270 1041 CURVE SMOOTH",
"270 883 OFFCURVE",
"356 760 OFFCURVE",
"480 698 CURVE SMOOTH",
"581 647 OFFCURVE",
"662 626 OFFCURVE",
"735 597 CURVE SMOOTH",
"799 572 OFFCURVE",
"858 523 OFFCURVE",
"874 462 CURVE SMOOTH",
"883 431 OFFCURVE",
"887 402 OFFCURVE",
"887 373 CURVE SMOOTH",
"887 319 OFFCURVE",
"869 274 OFFCURVE",
"833 237 CURVE SMOOTH",
"798 201 OFFCURVE",
"757 173 OFFCURVE",
"711 154 CURVE SMOOTH",
"665 135 OFFCURVE",
"609 126 OFFCURVE",
"542 126 CURVE SMOOTH",
"463 126 OFFCURVE",
"399 137 OFFCURVE",
"348 160 CURVE SMOOTH",
"297 183 OFFCURVE",
"250 214 OFFCURVE",
"207 255 CURVE SMOOTH",
"170 289 OFFCURVE",
"142 293 OFFCURVE",
"121 268 CURVE SMOOTH",
"64 198 LINE SMOOTH",
"44 173 OFFCURVE",
"51 145 OFFCURVE",
"84 112 CURVE SMOOTH"
);
}
);
width = 1217;
},
{
layerId = "05202388-ED6B-49B3-97C3-39168626F3FE";
paths = (
{
closed = 1;
nodes = (
"145 60 OFFCURVE",
"210 22 OFFCURVE",
"278 0 CURVE SMOOTH",
"347 -23 OFFCURVE",
"440 -34 OFFCURVE",
"559 -34 CURVE SMOOTH",
"706 -34 OFFCURVE",
"824 -11 OFFCURVE",
"913 34 CURVE SMOOTH",
"1002 79 OFFCURVE",
"1068 134 OFFCURVE",
"1111 197 CURVE SMOOTH",
"1155 260 OFFCURVE",
"1177 333 OFFCURVE",
"1177 416 CURVE",
"1180 597 OFFCURVE",
"1092 729 OFFCURVE",
"933 791 CURVE",
"898 806 OFFCURVE",
"852 821 OFFCURVE",
"797 837 CURVE SMOOTH",
"742 854 OFFCURVE",
"693 872 OFFCURVE",
"650 892 CURVE SMOOTH",
"561 935 OFFCURVE",
"530 998 OFFCURVE",
"530 1068 CURVE SMOOTH",
"530 1127 OFFCURVE",
"573 1190 OFFCURVE",
"638 1214 CURVE SMOOTH",
"671 1226 OFFCURVE",
"716 1232 OFFCURVE",
"773 1232 CURVE SMOOTH",
"886 1232 OFFCURVE",
"983 1196 OFFCURVE",
"1051 1141 CURVE SMOOTH",
"1096 1106 OFFCURVE",
"1132 1105 OFFCURVE",
"1161 1138 CURVE SMOOTH",
"1249 1238 LINE SMOOTH",
"1274 1266 OFFCURVE",
"1267 1299 OFFCURVE",
"1228 1337 CURVE SMOOTH",
"1189 1375 OFFCURVE",
"1131 1406 OFFCURVE",
"1052 1431 CURVE SMOOTH",
"974 1456 OFFCURVE",
"890 1468 OFFCURVE",
"799 1468 CURVE SMOOTH",
"709 1468 OFFCURVE",
"622 1455 OFFCURVE",
"537 1430 CURVE SMOOTH",
"453 1405 OFFCURVE",
"382 1354 OFFCURVE",
"325 1277 CURVE SMOOTH",
"268 1200 OFFCURVE",
"240 1120 OFFCURVE",
"240 1035 CURVE SMOOTH",
"240 958 OFFCURVE",
"253 895 OFFCURVE",
"279 844 CURVE SMOOTH",
"305 793 OFFCURVE",
"332 757 OFFCURVE",
"361 735 CURVE SMOOTH",
"390 714 OFFCURVE",
"426 693 OFFCURVE",
"468 672 CURVE SMOOTH",
"520 647 OFFCURVE",
"565 626 OFFCURVE",
"603 611 CURVE SMOOTH",
"641 596 OFFCURVE",
"680 582 OFFCURVE",
"720 567 CURVE SMOOTH",
"783 544 OFFCURVE",
"833 522 OFFCURVE",
"860 473 CURVE SMOOTH",
"874 448 OFFCURVE",
"881 423 OFFCURVE",
"881 397 CURVE SMOOTH",
"881 290 OFFCURVE",
"803 202 OFFCURVE",
"595 202 CURVE SMOOTH",
"527 202 OFFCURVE",
"464 214 OFFCURVE",
"405 237 CURVE SMOOTH",
"347 260 OFFCURVE",
"299 286 OFFCURVE",
"262 314 CURVE SMOOTH",
"215 350 OFFCURVE",
"178 352 OFFCURVE",
"151 319 CURVE SMOOTH",
"64 212 LINE SMOOTH",
"39 181 OFFCURVE",
"45 148 OFFCURVE",
"84 114 CURVE SMOOTH"
);
}
);
width = 1299;
}
);
unicode = 0053;
},
{
glyphname = uni1E9E;
lastChange = "2016-10-15 02:20:23 +0000";
layers = (
{
layerId = UUID0;
paths = (
{
closed = 1;
nodes = (
"192 0 LINE SMOOTH",
"225 0 OFFCURVE",
"246 18 OFFCURVE",
"255 55 CURVE SMOOTH",
"462 952 LINE SMOOTH",
"491 1079 OFFCURVE",
"548 1170 OFFCURVE",
"632 1225 CURVE SMOOTH",
"716 1280 OFFCURVE",
"799 1308 OFFCURVE",
"882 1308 CURVE SMOOTH",
"986 1308 OFFCURVE",
"1035 1281 OFFCURVE",
"1072 1228 CURVE",
"1071 1225 LINE",
"661 816 LINE SMOOTH",
"643 798 OFFCURVE",
"638 775 OFFCURVE",
"646 746 CURVE SMOOTH",
"660 696 LINE SMOOTH",
"665 676 OFFCURVE",
"680 665 OFFCURVE",
"704 663 CURVE SMOOTH",
"780 656 OFFCURVE",
"844 636 OFFCURVE",
"895 602 CURVE SMOOTH",
"946 569 OFFCURVE",
"972 518 OFFCURVE",
"972 451 CURVE SMOOTH",
"972 358 OFFCURVE",
"945 281 OFFCURVE",
"891 219 CURVE SMOOTH",
"837 157 OFFCURVE",
"764 126 OFFCURVE",
"673 126 CURVE SMOOTH",
"602 126 OFFCURVE",
"551 143 OFFCURVE",
"528 162 CURVE SMOOTH",
"495 189 OFFCURVE",
"469 187 OFFCURVE",
"449 156 CURVE SMOOTH",
"408 91 LINE SMOOTH",
"391 63 OFFCURVE",
"393 42 OFFCURVE",
"416 27 CURVE SMOOTH",
"452 4 OFFCURVE",
"488 -11 OFFCURVE",
"523 -18 CURVE SMOOTH",
"559 -26 OFFCURVE",
"608 -30 OFFCURVE",
"670 -30 CURVE SMOOTH",
"821 -30 OFFCURVE",
"943 16 OFFCURVE",
"1036 109 CURVE SMOOTH",
"1130 202 OFFCURVE",
"1177 322 OFFCURVE",
"1177 468 CURVE SMOOTH",
"1177 636 OFFCURVE",
"1074 754 OFFCURVE",
"893 799 CURVE",
"894 802 LINE",
"1265 1175 LINE SMOOTH",
"1284 1194 OFFCURVE",
"1294 1219 OFFCURVE",
"1294 1248 CURVE SMOOTH",
"1294 1267 OFFCURVE",
"1286 1286 OFFCURVE",
"1270 1307 CURVE SMOOTH",
"1239 1346 OFFCURVE",
"1195 1382 OFFCURVE",
"1136 1415 CURVE SMOOTH",
"1077 1448 OFFCURVE",
"1005 1464 OFFCURVE",
"918 1464 CURVE SMOOTH",
"767 1464 OFFCURVE",
"632 1425 OFFCURVE",
"513 1347 CURVE SMOOTH",
"394 1269 OFFCURVE",
"308 1116 OFFCURVE",
"255 889 CURVE SMOOTH",
"63 55 LINE SMOOTH",
"54 18 OFFCURVE",
"67 0 OFFCURVE",
"100 0 CURVE SMOOTH"
);
}
);
width = 1306;
},
{
layerId = "05202388-ED6B-49B3-97C3-39168626F3FE";
paths = (
{
closed = 1;
nodes = (
"262 0 LINE SMOOTH",
"309 0 OFFCURVE",
"338 25 OFFCURVE",
"349 75 CURVE SMOOTH",
"533 872 LINE SMOOTH",
"566 1017 OFFCURVE",
"622 1113 OFFCURVE",
"701 1160 CURVE SMOOTH",
"780 1208 OFFCURVE",
"856 1232 OFFCURVE",
"928 1232 CURVE SMOOTH",
"987 1232 OFFCURVE",
"1017 1216 OFFCURVE",
"1036 1169 CURVE",
"1035 1166 LINE",
"728 830 LINE SMOOTH",
"697 796 OFFCURVE",
"687 766 OFFCURVE",
"698 740 CURVE SMOOTH",
"720 688 LINE SMOOTH",
"732 660 OFFCURVE",
"751 645 OFFCURVE",
"778 643 CURVE SMOOTH",
"835 638 OFFCURVE",
"884 621 OFFCURVE",
"923 592 CURVE SMOOTH",
"963 563 OFFCURVE",
"983 519 OFFCURVE",
"983 460 CURVE SMOOTH",
"983 392 OFFCURVE",
"964 332 OFFCURVE",
"926 280 CURVE SMOOTH",
"889 228 OFFCURVE",
"834 202 OFFCURVE",
"762 202 CURVE SMOOTH",
"691 202 OFFCURVE",
"651 216 OFFCURVE",
"616 239 CURVE SMOOTH",
"577 264 OFFCURVE",
"550 262 OFFCURVE",
"536 233 CURVE SMOOTH",
"467 97 LINE SMOOTH",
"452 68 OFFCURVE",
"455 46 OFFCURVE",
"475 33 CURVE SMOOTH",
"540 -11 OFFCURVE",
"632 -34 OFFCURVE",
"736 -34 CURVE SMOOTH",
"895 -34 OFFCURVE",
"1026 11 OFFCURVE",
"1129 101 CURVE SMOOTH",
"1233 192 OFFCURVE",
"1285 316 OFFCURVE",
"1285 474 CURVE SMOOTH",
"1285 550 OFFCURVE",
"1268 616 OFFCURVE",
"1235 672 CURVE SMOOTH",
"1202 728 OFFCURVE",
"1142 774 OFFCURVE",
"1056 811 CURVE",
"1057 814 LINE",
"1358 1146 LINE SMOOTH",
"1380 1171 OFFCURVE",
"1392 1198 OFFCURVE",
"1393 1227 CURVE SMOOTH",
"1393 1250 OFFCURVE",
"1384 1274 OFFCURVE",
"1367 1298 CURVE SMOOTH",
"1334 1342 OFFCURVE",
"1289 1381 OFFCURVE",
"1232 1416 CURVE SMOOTH",
"1175 1451 OFFCURVE",
"1097 1468 OFFCURVE",
"999 1468 CURVE SMOOTH",
"802 1468 OFFCURVE",
"638 1419 OFFCURVE",
"507 1320 CURVE SMOOTH",
"376 1222 OFFCURVE",
"283 1052 OFFCURVE",
"227 809 CURVE SMOOTH",
"57 75 LINE SMOOTH",
"46 25 OFFCURVE",
"63 0 OFFCURVE",
"110 0 CURVE SMOOTH"
);
}
);
width = 1408;
}
);
unicode = 1E9E;
},
{
glyphname = T;
lastChange = "2016-10-15 02:20:23 +0000";
layers = (
{
layerId = UUID0;
paths = (
{
closed = 1;
nodes = (
"695 1262 LINE",
"417 55 LINE SMOOTH",
"408 18 OFFCURVE",
"421 0 OFFCURVE",
"454 0 CURVE SMOOTH",
"546 0 LINE SMOOTH",
"579 0 OFFCURVE",
"600 18 OFFCURVE",
"609 55 CURVE SMOOTH",
"887 1262 LINE",
"1320 1262 LINE SMOOTH",
"1357 1262 OFFCURVE",
"1379 1277 OFFCURVE",
"1386 1307 CURVE SMOOTH",
"1405 1389 LINE SMOOTH",
"1412 1419 OFFCURVE",
"1397 1434 OFFCURVE",
"1360 1434 CURVE SMOOTH",
"302 1434 LINE SMOOTH",
"265 1434 OFFCURVE",
"244 1419 OFFCURVE",
"237 1389 CURVE SMOOTH",
"218 1307 LINE SMOOTH",
"211 1277 OFFCURVE",
"225 1262 OFFCURVE",
"262 1262 CURVE SMOOTH"
);
}
);
width = 1240;
},
{
layerId = "05202388-ED6B-49B3-97C3-39168626F3FE";
paths = (
{
closed = 1;
nodes = (
"629 1178 LINE",
"370 55 LINE SMOOTH",
"361 18 OFFCURVE",
"374 0 OFFCURVE",
"407 0 CURVE SMOOTH",
"599 0 LINE SMOOTH",
"632 0 OFFCURVE",
"653 18 OFFCURVE",
"662 55 CURVE SMOOTH",
"921 1178 LINE",
"1289 1178 LINE SMOOTH",
"1339 1178 OFFCURVE",
"1369 1200 OFFCURVE",
"1379 1243 CURVE SMOOTH",
"1408 1369 LINE SMOOTH",
"1418 1412 OFFCURVE",
"1398 1434 OFFCURVE",
"1348 1434 CURVE SMOOTH",
"320 1434 LINE SMOOTH",
"270 1434 OFFCURVE",
"240 1412 OFFCURVE",
"230 1369 CURVE SMOOTH",
"201 1243 LINE SMOOTH",
"191 1200 OFFCURVE",
"211 1178 OFFCURVE",
"261 1178 CURVE SMOOTH"
);
}
);
width = 1246;
}
);
unicode = 0054;
},
{
glyphname = U;
lastChange = "2016-10-15 02:20:23 +0000";
layers = (
{
layerId = UUID0;
paths = (
{
closed = 1;
nodes = (
"176 547 LINE",
"127 336 OFFCURVE",
"148 187 OFFCURVE",
"239 100 CURVE SMOOTH",
"330 13 OFFCURVE",
"441 -30 OFFCURVE",
"574 -30 CURVE SMOOTH",
"753 -30 OFFCURVE",
"897 13 OFFCURVE",
"1004 100 CURVE SMOOTH",
"1111 187 OFFCURVE",
"1189 336 OFFCURVE",
"1238 547 CURVE SMOOTH",
"1430 1379 LINE SMOOTH",
"1439 1416 OFFCURVE",
"1426 1434 OFFCURVE",
"1393 1434 CURVE SMOOTH",
"1301 1434 LINE SMOOTH",
"1268 1434 OFFCURVE",
"1247 1416 OFFCURVE",
"1238 1379 CURVE SMOOTH",
"1053 577 LINE SMOOTH",
"1010 390 OFFCURVE",
"950 268 OFFCURVE",
"872 211 CURVE SMOOTH",
"795 154 OFFCURVE",
"707 126 OFFCURVE",
"610 126 CURVE SMOOTH",
"489 126 OFFCURVE",
"409 154 OFFCURVE",
"370 211 CURVE SMOOTH",
"331 268 OFFCURVE",
"332 390 OFFCURVE",
"375 577 CURVE SMOOTH",
"560 1379 LINE SMOOTH",
"569 1416 OFFCURVE",
"556 1434 OFFCURVE",
"523 1434 CURVE SMOOTH",
"431 1434 LINE SMOOTH",
"398 1434 OFFCURVE",
"377 1416 OFFCURVE",
"368 1379 CURVE SMOOTH",
"176 547 LINE"
);
}
);
width = 1402;
},
{
layerId = "05202388-ED6B-49B3-97C3-39168626F3FE";
paths = (
{
closed = 1;
nodes = (
"178 597 LINE",
"127 374 OFFCURVE",
"145 213 OFFCURVE",
"233 114 CURVE SMOOTH",
"322 15 OFFCURVE",
"446 -34 OFFCURVE",
"607 -34 CURVE SMOOTH",
"794 -34 OFFCURVE",
"939 10 OFFCURVE",
"1042 99 CURVE SMOOTH",
"1145 188 OFFCURVE",
"1224 354 OFFCURVE",
"1280 597 CURVE SMOOTH",
"1460 1379 LINE SMOOTH",
"1469 1416 OFFCURVE",
"1450 1434 OFFCURVE",
"1403 1434 CURVE SMOOTH",
"1251 1434 LINE SMOOTH",
"1204 1434 OFFCURVE",
"1177 1416 OFFCURVE",
"1168 1379 CURVE SMOOTH",
"990 607 LINE SMOOTH",
"953 447 OFFCURVE",
"902 339 OFFCURVE",
"836 284 CURVE SMOOTH",
"771 229 OFFCURVE",
"704 202 OFFCURVE",
"637 202 CURVE SMOOTH",
"559 202 OFFCURVE",
"502 225 OFFCURVE",
"465 270 CURVE SMOOTH",
"428 316 OFFCURVE",
"431 428 OFFCURVE",
"472 607 CURVE SMOOTH",
"650 1379 LINE SMOOTH",
"659 1416 OFFCURVE",
"640 1434 OFFCURVE",
"593 1434 CURVE SMOOTH",
"441 1434 LINE SMOOTH",
"394 1434 OFFCURVE",
"367 1416 OFFCURVE",
"358 1379 CURVE SMOOTH",
"178 597 LINE"
);
}
);
width = 1422;
}
);
unicode = 0055;
},
{
glyphname = V;
lastChange = "2016-10-15 02:20:23 +0000";
layers = (
{
layerId = UUID0;
paths = (
{
closed = 1;
nodes = (
"427 61 LINE SMOOTH",
"433 20 OFFCURVE",
"450 0 OFFCURVE",
"479 0 CURVE SMOOTH",
"619 0 LINE SMOOTH",
"648 0 OFFCURVE",
"674 20 OFFCURVE",
"699 61 CURVE SMOOTH",
"1488 1368 LINE SMOOTH",
"1515 1412 OFFCURVE",
"1511 1434 OFFCURVE",
"1476 1434 CURVE SMOOTH",
"1362 1434 LINE SMOOTH",
"1326 1434 OFFCURVE",
"1298 1418 OFFCURVE",
"1279 1385 CURVE SMOOTH",
"747 490 LINE SMOOTH",
"726 455 OFFCURVE",
"697 404 OFFCURVE",
"660 337 CURVE SMOOTH",
"623 270 OFFCURVE",
"596 215 OFFCURVE",
"579 173 CURVE",
"575 173 LINE",
"575 214 OFFCURVE",
"573 268 OFFCURVE",
"568 333 CURVE SMOOTH",
"563 398 OFFCURVE",
"558 451 OFFCURVE",
"553 490 CURVE SMOOTH",
"435 1385 LINE SMOOTH",
"431 1418 OFFCURVE",
"411 1434 OFFCURVE",
"374 1434 CURVE SMOOTH",
"284 1434 LINE SMOOTH",
"250 1434 OFFCURVE",
"236 1412 OFFCURVE",
"242 1368 CURVE SMOOTH"
);
}
);
width = 1338;
},
{
layerId = "05202388-ED6B-49B3-97C3-39168626F3FE";
paths = (
{
closed = 1;
nodes = (
"420 81 LINE",
"427 27 OFFCURVE",
"452 0 OFFCURVE",
"495 0 CURVE SMOOTH",
"635 0 LINE SMOOTH",
"678 0 OFFCURVE",
"715 27 OFFCURVE",
"748 81 CURVE SMOOTH",
"1523 1368 LINE SMOOTH",
"1550 1412 OFFCURVE",
"1539 1434 OFFCURVE",
"1491 1434 CURVE SMOOTH",
"1312 1434 LINE SMOOTH",
"1267 1434 OFFCURVE",
"1231 1411 OFFCURVE",
"1204 1365 CURVE SMOOTH",
"705 530 LINE SMOOTH",
"682 491 OFFCURVE",
"667 464 OFFCURVE",
"660 447 CURVE SMOOTH",
"653 430 OFFCURVE",
"644 406 OFFCURVE",
"633 373 CURVE",
"629 373 LINE",
"634 406 OFFCURVE",
"636 430 OFFCURVE",
"636 446 CURVE SMOOTH",
"636 462 OFFCURVE",
"634 490 OFFCURVE",
"629 530 CURVE SMOOTH",
"516 1365 LINE SMOOTH",
"510 1411 OFFCURVE",
"485 1434 OFFCURVE",
"440 1434 CURVE SMOOTH",
"301 1434 LINE SMOOTH",
"254 1434 OFFCURVE",
"233 1412 OFFCURVE",
"239 1368 CURVE SMOOTH"
);
}
);
width = 1370;
}
);
unicode = 0056;
},
{
glyphname = W;
lastChange = "2016-10-15 02:20:23 +0000";
layers = (
{
layerId = UUID0;
paths = (
{
closed = 1;
nodes = (
"295 77 LINE SMOOTH",
"297 26 OFFCURVE",
"316 0 OFFCURVE",
"351 0 CURVE SMOOTH",
"476 0 LINE SMOOTH",
"509 0 OFFCURVE",
"539 28 OFFCURVE",
"566 84 CURVE SMOOTH",
"1019 1043 LINE SMOOTH",
"1041 1090 OFFCURVE",
"1057 1127 OFFCURVE",
"1068 1155 CURVE SMOOTH",
"1079 1184 OFFCURVE",
"1091 1218 OFFCURVE",
"1105 1259 CURVE",
"1107 1259 LINE",
"1107 1221 OFFCURVE",
"1106 1188 OFFCURVE",
"1104 1160 CURVE SMOOTH",
"1103 1133 OFFCURVE",
"1103 1094 OFFCURVE",
"1104 1043 CURVE SMOOTH",
"1130 84 LINE SMOOTH",
"1131 28 OFFCURVE",
"1149 0 OFFCURVE",
"1182 0 CURVE SMOOTH",
"1307 0 LINE SMOOTH",
"1343 0 OFFCURVE",
"1374 26 OFFCURVE",
"1399 77 CURVE SMOOTH",
"2032 1374 LINE SMOOTH",
"2051 1414 OFFCURVE",
"2047 1434 OFFCURVE",
"2020 1434 CURVE SMOOTH",
"1888 1434 LINE SMOOTH",
"1866 1434 OFFCURVE",
"1848 1419 OFFCURVE",
"1834 1388 CURVE SMOOTH",
"1400 427 LINE SMOOTH",
"1386 396 OFFCURVE",
"1367 355 OFFCURVE",
"1343 306 CURVE SMOOTH",
"1319 257 OFFCURVE",
"1298 213 OFFCURVE",
"1280 173 CURVE",
"1275 173 LINE",
"1275 268 OFFCURVE",
"1277 361 OFFCURVE",
"1276 426 CURVE SMOOTH",
"1258 1380 LINE SMOOTH",
"1257 1416 OFFCURVE",
"1240 1434 OFFCURVE",
"1206 1434 CURVE SMOOTH",
"1071 1434 LINE SMOOTH",
"1037 1434 OFFCURVE",
"1012 1416 OFFCURVE",
"995 1380 CURVE SMOOTH",
"556 426 LINE",
"509 322 OFFCURVE",
"476 252 OFFCURVE",
"444 173 CURVE",
"439 173 LINE",
"439 226 OFFCURVE",
"440 272 OFFCURVE",
"441 309 CURVE SMOOTH",
"442 347 OFFCURVE",
"443 386 OFFCURVE",
"442 427 CURVE SMOOTH",
"419 1388 LINE SMOOTH",
"418 1419 OFFCURVE",
"408 1434 OFFCURVE",
"387 1434 CURVE SMOOTH",
"280 1434 LINE SMOOTH",
"251 1434 OFFCURVE",
"238 1414 OFFCURVE",
"240 1374 CURVE SMOOTH"
);
}
);
width = 1888;
},
{
layerId = "05202388-ED6B-49B3-97C3-39168626F3FE";
paths = (
{
closed = 1;
nodes = (
"287 97 LINE SMOOTH",
"290 32 OFFCURVE",
"314 0 OFFCURVE",
"359 0 CURVE SMOOTH",
"534 0 LINE SMOOTH",
"572 0 OFFCURVE",
"608 32 OFFCURVE",
"641 96 CURVE SMOOTH",
"1075 934 LINE SMOOTH",
"1098 978 OFFCURVE",
"1112 1007 OFFCURVE",
"1117 1021 CURVE SMOOTH",
"1123 1036 OFFCURVE",
"1132 1062 OFFCURVE",
"1144 1099 CURVE",
"1146 1099 LINE",
"1141 1062 OFFCURVE",
"1137 1036 OFFCURVE",
"1136 1023 CURVE SMOOTH",
"1135 1010 OFFCURVE",
"1136 981 OFFCURVE",
"1139 934 CURVE SMOOTH",
"1185 96 LINE SMOOTH",
"1188 32 OFFCURVE",
"1209 0 OFFCURVE",
"1248 0 CURVE SMOOTH",
"1423 0 LINE SMOOTH",
"1468 0 OFFCURVE",
"1506 32 OFFCURVE",
"1539 97 CURVE SMOOTH",
"2170 1354 LINE SMOOTH",
"2197 1407 OFFCURVE",
"2187 1434 OFFCURVE",
"2142 1434 CURVE SMOOTH",
"1942 1434 LINE SMOOTH",
"1911 1434 OFFCURVE",
"1885 1412 OFFCURVE",
"1864 1368 CURVE SMOOTH",
"1492 582 LINE",
"1443 476 LINE SMOOTH",
"1430 447 OFFCURVE",
"1417 410 OFFCURVE",
"1403 363 CURVE",
"1398 363 LINE",
"1405 410 OFFCURVE",
"1410 445 OFFCURVE",
"1412 468 CURVE SMOOTH",
"1415 492 OFFCURVE",
"1414 532 OFFCURVE",
"1411 588 CURVE SMOOTH",
"1366 1360 LINE SMOOTH",
"1363 1409 OFFCURVE",
"1341 1434 OFFCURVE",
"1299 1434 CURVE SMOOTH",
"1115 1434 LINE SMOOTH",
"1073 1434 OFFCURVE",
"1039 1409 OFFCURVE",
"1014 1360 CURVE SMOOTH",
"613 588 LINE SMOOTH",
"584 533 OFFCURVE",
"565 494 OFFCURVE",
"556 469 CURVE SMOOTH",
"547 445 OFFCURVE",
"536 410 OFFCURVE",
"522 363 CURVE",
"517 363 LINE",
"524 410 OFFCURVE",
"528 443 OFFCURVE",
"528 462 CURVE SMOOTH",
"529 481 OFFCURVE",
"529 521 OFFCURVE",
"528 582 CURVE SMOOTH",
"520 1368 LINE",
"519 1412 OFFCURVE",
"503 1434 OFFCURVE",
"472 1434 CURVE SMOOTH",
"302 1434 LINE SMOOTH",
"257 1434 OFFCURVE",
"236 1407 OFFCURVE",
"238 1354 CURVE SMOOTH"
);
}
);
width = 2022;
}
);
unicode = 0057;
},
{
glyphname = X;
lastChange = "2016-10-15 02:20:23 +0000";
layers = (
{
layerId = UUID0;
paths = (
{
closed = 1;
nodes = (
"103 0 LINE SMOOTH",
"133 0 OFFCURVE",
"159 13 OFFCURVE",
"182 39 CURVE SMOOTH",
"679 607 LINE",
"933 39 LINE SMOOTH",
"944 13 OFFCURVE",
"965 0 OFFCURVE",
"994 0 CURVE SMOOTH",
"1099 0 LINE SMOOTH",
"1143 0 OFFCURVE",
"1154 22 OFFCURVE",
"1132 66 CURVE SMOOTH",
"806 727 LINE",
"1397 1368 LINE SMOOTH",
"1438 1412 OFFCURVE",
"1437 1434 OFFCURVE",
"1394 1434 CURVE SMOOTH",
"1256 1434 LINE SMOOTH",
"1226 1434 OFFCURVE",
"1200 1421 OFFCURVE",
"1177 1395 CURVE SMOOTH",
"721 873 LINE",
"486 1395 LINE SMOOTH",
"474 1421 OFFCURVE",
"454 1434 OFFCURVE",
"425 1434 CURVE SMOOTH",
"327 1434 LINE SMOOTH",
"284 1434 OFFCURVE",
"273 1412 OFFCURVE",
"294 1368 CURVE SMOOTH",
"593 752 LINE",
"-45 66 LINE SMOOTH",
"-86 22 OFFCURVE",
"-85 0 OFFCURVE",
"-42 0 CURVE SMOOTH"
);
}
);
width = 1298;
},
{
layerId = "05202388-ED6B-49B3-97C3-39168626F3FE";
paths = (
{
closed = 1;
nodes = (
"226 0 LINE SMOOTH",
"263 0 OFFCURVE",
"298 20 OFFCURVE",
"330 59 CURVE SMOOTH",
"709 528 LINE",
"909 59 LINE SMOOTH",
"926 20 OFFCURVE",
"951 0 OFFCURVE",
"985 0 CURVE SMOOTH",
"1164 0 LINE SMOOTH",
"1232 0 OFFCURVE",
"1251 29 OFFCURVE",
"1222 86 CURVE SMOOTH",
"898 722 LINE",
"1477 1348 LINE SMOOTH",
"1530 1405 OFFCURVE",
"1524 1434 OFFCURVE",
"1459 1434 CURVE SMOOTH",
"1224 1434 LINE SMOOTH",
"1187 1434 OFFCURVE",
"1152 1414 OFFCURVE",
"1120 1375 CURVE SMOOTH",
"782 958 LINE",
"607 1375 LINE SMOOTH",
"590 1414 OFFCURVE",
"565 1434 OFFCURVE",
"531 1434 CURVE SMOOTH",
"355 1434 LINE SMOOTH",
"287 1434 OFFCURVE",
"268 1405 OFFCURVE",
"297 1348 CURVE SMOOTH",
"594 764 LINE",
"-30 86 LINE SMOOTH",
"-83 29 OFFCURVE",
"-77 0 OFFCURVE",
"-12 0 CURVE SMOOTH"
);
}
);
width = 1392;
}
);
unicode = 0058;
},
{
glyphname = Y;
lastChange = "2016-10-15 02:20:23 +0000";
layers = (
{
layerId = UUID0;
paths = (
{
closed = 1;
nodes = (
"571 590 LINE",
"448 55 LINE SMOOTH",
"439 18 OFFCURVE",
"452 0 OFFCURVE",
"485 0 CURVE SMOOTH",
"577 0 LINE SMOOTH",
"610 0 OFFCURVE",
"631 18 OFFCURVE",
"640 55 CURVE SMOOTH",
"763 590 LINE",
"1444 1368 LINE SMOOTH",
"1483 1412 OFFCURVE",
"1479 1434 OFFCURVE",
"1432 1434 CURVE SMOOTH",
"1307 1434 LINE SMOOTH",
"1278 1434 OFFCURVE",
"1251 1418 OFFCURVE",
"1224 1385 CURVE SMOOTH",
"866 948 LINE SMOOTH",
"825 898 OFFCURVE",
"790 856 OFFCURVE",
"763 821 CURVE SMOOTH",
"736 786 OFFCURVE",
"709 749 OFFCURVE",
"681 709 CURVE",
"677 709 LINE",
"668 749 OFFCURVE",
"655 792 OFFCURVE",
"639 838 CURVE",
"624 885 OFFCURVE",
"611 921 OFFCURVE",
"602 948 CURVE SMOOTH",
"446 1385 LINE",
"435 1418 OFFCURVE",
"414 1434 OFFCURVE",
"385 1434 CURVE SMOOTH",
"292 1434 LINE SMOOTH",
"246 1434 OFFCURVE",
"232 1412 OFFCURVE",
"250 1368 CURVE SMOOTH"
);
}
);
width = 1302;
},
{
layerId = "05202388-ED6B-49B3-97C3-39168626F3FE";
paths = (
{
closed = 1;
nodes = (
"539 525 LINE",
"431 55 LINE SMOOTH",
"422 18 OFFCURVE",
"441 0 OFFCURVE",
"488 0 CURVE SMOOTH",
"640 0 LINE SMOOTH",
"687 0 OFFCURVE",
"714 18 OFFCURVE",
"723 55 CURVE SMOOTH",
"831 525 LINE",
"1508 1348 LINE SMOOTH",
"1555 1405 OFFCURVE",
"1546 1434 OFFCURVE",
"1481 1434 CURVE SMOOTH",
"1276 1434 LINE SMOOTH",
"1241 1434 OFFCURVE",
"1205 1411 OFFCURVE",
"1168 1365 CURVE SMOOTH",
"869 994 LINE SMOOTH",
"838 955 OFFCURVE",
"808 916 OFFCURVE",
"778 877 CURVE SMOOTH",
"749 838 OFFCURVE",
"728 795 OFFCURVE",
"715 748 CURVE",
"711 748 LINE",
"711 801 OFFCURVE",
"705 847 OFFCURVE",
"692 885 CURVE SMOOTH",
"657 994 LINE",
"530 1365 LINE SMOOTH",
"514 1411 OFFCURVE",
"489 1434 OFFCURVE",
"454 1434 CURVE SMOOTH",
"309 1434 LINE SMOOTH",
"244 1434 OFFCURVE",
"221 1405 OFFCURVE",
"242 1348 CURVE SMOOTH"
);
}
);
width = 1368;
}
);
unicode = 0059;
},
{
glyphname = Z;
lastChange = "2016-10-15 02:20:23 +0000";
layers = (
{
layerId = UUID0;
paths = (
{
closed = 1;
nodes = (
"976 0 LINE SMOOTH",
"1013 0 OFFCURVE",
"1034 15 OFFCURVE",
"1041 45 CURVE SMOOTH",
"1058 119 LINE SMOOTH",
"1065 149 OFFCURVE",
"1050 164 OFFCURVE",
"1014 164 CURVE SMOOTH",
"334 164 LINE SMOOTH",
"299 164 OFFCURVE",
"272 163 OFFCURVE",
"253 162 CURVE",
"254 166 LINE",
"1288 1297 LINE SMOOTH",
"1307 1318 OFFCURVE",
"1318 1338 OFFCURVE",
"1323 1358 CURVE SMOOTH",
"1330 1389 LINE SMOOTH",
"1337 1419 OFFCURVE",
"1322 1434 OFFCURVE",
"1285 1434 CURVE SMOOTH",
"363 1434 LINE SMOOTH",
"326 1434 OFFCURVE",
"305 1419 OFFCURVE",
"298 1389 CURVE SMOOTH",
"281 1315 LINE SMOOTH",
"274 1285 OFFCURVE",
"289 1270 OFFCURVE",
"325 1270 CURVE SMOOTH",
"947 1270 LINE SMOOTH",
"974 1270 OFFCURVE",
"1001 1271 OFFCURVE",
"1028 1272 CURVE",
"1027 1268 LINE",
"17 182 LINE SMOOTH",
"-10 153 OFFCURVE",
"-27 123 OFFCURVE",
"-34 93 CURVE SMOOTH",
"-45 45 LINE SMOOTH",
"-52 15 OFFCURVE",
"-37 0 OFFCURVE",
"0 0 CURVE SMOOTH"
);
}
);
width = 1216;
},
{
layerId = "05202388-ED6B-49B3-97C3-39168626F3FE";
paths = (
{
closed = 1;
nodes = (
"996 0 LINE SMOOTH",
"1046 0 OFFCURVE",
"1076 22 OFFCURVE",
"1086 65 CURVE SMOOTH",
"1113 183 LINE SMOOTH",
"1123 226 OFFCURVE",
"1103 248 OFFCURVE",
"1053 248 CURVE SMOOTH",
"517 248 LINE SMOOTH",
"477 248 OFFCURVE",
"437 246 OFFCURVE",
"396 243 CURVE",
"398 250 LINE",
"1285 1197 LINE SMOOTH",
"1316 1230 OFFCURVE",
"1336 1265 OFFCURVE",
"1344 1302 CURVE SMOOTH",
"1359 1369 LINE SMOOTH",
"1369 1412 OFFCURVE",
"1349 1434 OFFCURVE",
"1299 1434 CURVE SMOOTH",
"387 1434 LINE SMOOTH",
"337 1434 OFFCURVE",
"307 1412 OFFCURVE",
"297 1369 CURVE SMOOTH",
"270 1251 LINE SMOOTH",
"260 1208 OFFCURVE",
"280 1186 OFFCURVE",
"330 1186 CURVE SMOOTH",
"775 1186 LINE SMOOTH",
"815 1186 OFFCURVE",
"855 1188 OFFCURVE",
"896 1191 CURVE",
"894 1184 LINE",
"58 290 LINE SMOOTH",
"14 243 OFFCURVE",
"-14 195 OFFCURVE",
"-25 147 CURVE SMOOTH",
"-44 65 LINE SMOOTH",
"-54 22 OFFCURVE",
"-34 0 OFFCURVE",
"16 0 CURVE SMOOTH"
);
}
);
width = 1252;
}
);
unicode = 005A;
},
{
glyphname = uni0190;
lastChange = "2016-10-15 02:20:23 +0000";
layers = (
{
layerId = UUID0;
paths = (
{
closed = 1;
nodes = (
"85 197 OFFCURVE",
"126 113 OFFCURVE",
"209 56 CURVE SMOOTH",
"292 -1 OFFCURVE",
"396 -30 OFFCURVE",
"519 -30 CURVE SMOOTH",
"626 -30 OFFCURVE",
"721 -12 OFFCURVE",
"804 24 CURVE SMOOTH",
"887 61 OFFCURVE",
"951 98 OFFCURVE",
"997 135 CURVE SMOOTH",
"1030 162 OFFCURVE",
"1038 186 OFFCURVE",
"1021 207 CURVE SMOOTH",
"966 279 LINE SMOOTH",
"947 304 OFFCURVE",
"919 301 OFFCURVE",
"884 269 CURVE SMOOTH",
"846 234 OFFCURVE",
"797 202 OFFCURVE",
"737 171 CURVE SMOOTH",
"677 141 OFFCURVE",
"616 126 OFFCURVE",
"553 126 CURVE SMOOTH",
"476 126 OFFCURVE",
"412 140 OFFCURVE",
"363 168 CURVE SMOOTH",
"314 197 OFFCURVE",
"290 255 OFFCURVE",
"290 343 CURVE SMOOTH",
"290 429 OFFCURVE",
"328 506 OFFCURVE",
"405 573 CURVE SMOOTH",
"482 641 OFFCURVE",
"567 675 OFFCURVE",
"661 675 CURVE SMOOTH",
"774 675 LINE SMOOTH",
"805 675 OFFCURVE",
"824 689 OFFCURVE",
"831 718 CURVE SMOOTH",
"847 788 LINE SMOOTH",
"854 818 OFFCURVE",
"841 833 OFFCURVE",
"810 833 CURVE SMOOTH",
"704 833 LINE SMOOTH",
"611 833 OFFCURVE",
"550 856 OFFCURVE",
"523 901 CURVE SMOOTH",
"496 947 OFFCURVE",
"482 994 OFFCURVE",
"482 1041 CURVE SMOOTH",
"482 1132 OFFCURVE",
"511 1199 OFFCURVE",
"568 1242 CURVE SMOOTH",
"626 1286 OFFCURVE",
"688 1308 OFFCURVE",
"755 1308 CURVE SMOOTH",
"890 1308 OFFCURVE",
"967 1278 OFFCURVE",
"1038 1199 CURVE SMOOTH",
"1067 1168 OFFCURVE",
"1090 1160 OFFCURVE",
"1108 1177 CURVE SMOOTH",
"1177 1239 LINE SMOOTH",
"1202 1262 OFFCURVE",
"1198 1290 OFFCURVE",
"1163 1324 CURVE SMOOTH",
"1106 1380 OFFCURVE",
"1045 1417 OFFCURVE",
"982 1436 CURVE SMOOTH",
"919 1455 OFFCURVE",
"848 1464 OFFCURVE",
"771 1464 CURVE SMOOTH",
"618 1464 OFFCURVE",
"499 1420 OFFCURVE",
"414 1331 CURVE SMOOTH",
"329 1242 OFFCURVE",
"287 1151 OFFCURVE",
"287 1056 CURVE SMOOTH",
"287 985 OFFCURVE",
"299 927 OFFCURVE",
"324 883 CURVE SMOOTH",
"349 839 OFFCURVE",
"398 800 OFFCURVE",
"472 767 CURVE",
"472 763 LINE",
"354 739 OFFCURVE",
"260 685 OFFCURVE",
"190 602 CURVE SMOOTH",
"120 519 OFFCURVE",
"85 421 OFFCURVE",
"85 306 CURVE SMOOTH"
);
}
);
width = 1194;
},
{
layerId = "05202388-ED6B-49B3-97C3-39168626F3FE";
paths = (
{
closed = 1;
nodes = (
"78 216 OFFCURVE",
"120 133 OFFCURVE",
"205 66 CURVE SMOOTH",
"290 -1 OFFCURVE",
"419 -34 OFFCURVE",
"592 -34 CURVE SMOOTH",
"797 -34 OFFCURVE",
"957 35 OFFCURVE",
"1080 128 CURVE SMOOTH",
"1120 158 OFFCURVE",
"1127 191 OFFCURVE",
"1100 226 CURVE SMOOTH",
"1024 327 LINE SMOOTH",
"1001 358 OFFCURVE",
"964 356 OFFCURVE",
"913 322 CURVE SMOOTH",
"870 293 OFFCURVE",
"826 265 OFFCURVE",
"781 240 CURVE SMOOTH",
"737 215 OFFCURVE",
"683 202 OFFCURVE",
"618 202 CURVE SMOOTH",
"575 202 OFFCURVE",
"525 209 OFFCURVE",
"467 224 CURVE SMOOTH",
"409 239 OFFCURVE",
"380 285 OFFCURVE",
"380 362 CURVE SMOOTH",
"380 440 OFFCURVE",
"413 505 OFFCURVE",
"479 557 CURVE SMOOTH",
"546 610 OFFCURVE",
"614 636 OFFCURVE",
"684 636 CURVE SMOOTH",
"805 636 LINE SMOOTH",
"847 636 OFFCURVE",
"873 657 OFFCURVE",
"883 699 CURVE SMOOTH",
"908 807 LINE SMOOTH",
"918 850 OFFCURVE",
"902 872 OFFCURVE",
"859 872 CURVE SMOOTH",
"724 872 LINE SMOOTH",
"653 872 OFFCURVE",
"607 888 OFFCURVE",
"585 921 CURVE SMOOTH",
"564 954 OFFCURVE",
"553 984 OFFCURVE",
"553 1013 CURVE SMOOTH",
"553 1068 OFFCURVE",
"573 1119 OFFCURVE",
"614 1164 CURVE SMOOTH",
"655 1209 OFFCURVE",
"707 1232 OFFCURVE",
"768 1232 CURVE SMOOTH",
"829 1232 OFFCURVE",
"879 1226 OFFCURVE",
"917 1213 CURVE SMOOTH",
"956 1200 OFFCURVE",
"993 1179 OFFCURVE",
"1030 1148 CURVE SMOOTH",
"1076 1109 OFFCURVE",
"1113 1103 OFFCURVE",
"1140 1128 CURVE SMOOTH",
"1227 1210 LINE SMOOTH",
"1262 1242 OFFCURVE",
"1261 1276 OFFCURVE",
"1225 1311 CURVE SMOOTH",
"1160 1374 OFFCURVE",
"1093 1416 OFFCURVE",
"1022 1437 CURVE SMOOTH",
"952 1458 OFFCURVE",
"874 1468 OFFCURVE",
"789 1468 CURVE SMOOTH",
"653 1468 OFFCURVE",
"533 1421 OFFCURVE",
"428 1328 CURVE SMOOTH",
"324 1235 OFFCURVE",
"272 1127 OFFCURVE",
"272 1006 CURVE SMOOTH",
"272 939 OFFCURVE",
"294 886 OFFCURVE",
"338 846 CURVE SMOOTH",
"382 806 OFFCURVE",
"427 780 OFFCURVE",
"472 768 CURVE",
"472 764 LINE",
"351 737 OFFCURVE",
"255 685 OFFCURVE",
"184 607 CURVE SMOOTH",
"113 529 OFFCURVE",
"78 432 OFFCURVE",
"78 315 CURVE SMOOTH"
);
}
);
width = 1254;
}
);
unicode = 0190;
},
{
glyphname = uni0191;
lastChange = "2016-10-15 02:20:23 +0000";
layers = (
{
layerId = UUID0;
paths = (
{
closed = 1;
nodes = (
"-305 -405 OFFCURVE",
"-250 -417 OFFCURVE",
"-194 -417 CURVE SMOOTH",
"-82 -417 OFFCURVE",
"10 -387 OFFCURVE",
"81 -326 CURVE SMOOTH",
"152 -266 OFFCURVE",
"205 -160 OFFCURVE",
"240 -9 CURVE SMOOTH",
"388 632 LINE",
"975 632 LINE SMOOTH",
"1012 632 OFFCURVE",
"1033 647 OFFCURVE",
"1040 677 CURVE SMOOTH",
"1057 751 LINE SMOOTH",
"1064 781 OFFCURVE",
"1049 796 OFFCURVE",
"1013 796 CURVE SMOOTH",
"426 796 LINE",
"535 1270 LINE",
"1208 1270 LINE SMOOTH",
"1245 1270 OFFCURVE",
"1267 1285 OFFCURVE",
"1274 1315 CURVE SMOOTH",
"1291 1389 LINE SMOOTH",
"1298 1419 OFFCURVE",
"1283 1434 OFFCURVE",
"1246 1434 CURVE SMOOTH",
"431 1434 LINE SMOOTH",
"398 1434 OFFCURVE",
"377 1416 OFFCURVE",
"368 1379 CURVE SMOOTH",
"59 38 LINE SMOOTH",
"31 -85 OFFCURVE",
"-3 -165 OFFCURVE",
"-43 -203 CURVE SMOOTH",
"-84 -242 OFFCURVE",
"-128 -261 OFFCURVE",
"-175 -261 CURVE SMOOTH",
"-206 -261 OFFCURVE",
"-241 -251 OFFCURVE",
"-282 -232 CURVE SMOOTH",
"-316 -216 OFFCURVE",
"-339 -222 OFFCURVE",
"-350 -249 CURVE SMOOTH",
"-379 -320 LINE SMOOTH",
"-392 -351 OFFCURVE",
"-385 -371 OFFCURVE",
"-360 -382 CURVE SMOOTH"
);
}
);
width = 1166;
},
{
layerId = "05202388-ED6B-49B3-97C3-39168626F3FE";
paths = (
{
closed = 1;
nodes = (
"-275 -410 OFFCURVE",
"-214 -420 OFFCURVE",
"-145 -420 CURVE SMOOTH",
"108 -420 OFFCURVE",
"267 -281 OFFCURVE",
"340 35 CURVE SMOOTH",
"468 590 LINE",
"955 590 LINE SMOOTH",
"1005 590 OFFCURVE",
"1035 612 OFFCURVE",
"1045 655 CURVE SMOOTH",
"1072 773 LINE SMOOTH",
"1082 816 OFFCURVE",
"1062 838 OFFCURVE",
"1012 838 CURVE SMOOTH",
"525 838 LINE",
"606 1186 LINE",
"1175 1186 LINE SMOOTH",
"1225 1186 OFFCURVE",
"1255 1208 OFFCURVE",
"1265 1251 CURVE SMOOTH",
"1292 1369 LINE SMOOTH",
"1302 1412 OFFCURVE",
"1282 1434 OFFCURVE",
"1232 1434 CURVE SMOOTH",
"441 1434 LINE SMOOTH",
"394 1434 OFFCURVE",
"365 1409 OFFCURVE",
"354 1359 CURVE SMOOTH",
"61 91 LINE SMOOTH",
"36 -16 OFFCURVE",
"8 -88 OFFCURVE",
"-24 -126 CURVE SMOOTH",
"-56 -165 OFFCURVE",
"-98 -184 OFFCURVE",
"-149 -184 CURVE SMOOTH",
"-180 -184 OFFCURVE",
"-211 -178 OFFCURVE",
"-240 -167 CURVE SMOOTH",
"-275 -153 OFFCURVE",
"-299 -166 OFFCURVE",
"-312 -206 CURVE SMOOTH",
"-351 -320 LINE SMOOTH",
"-363 -356 OFFCURVE",
"-356 -379 OFFCURVE",
"-329 -389 CURVE SMOOTH"
);
}
);
width = 1176;
}
);
unicode = 0191;
},
{
glyphname = uni0194;
lastChange = "2016-10-15 02:20:23 +0000";
layers = (
{
layerId = UUID0;
paths = (
{
closed = 1;
nodes = (
"536 552 LINE",
"463 485 OFFCURVE",
"402 419 OFFCURVE",
"354 354 CURVE SMOOTH",
"307 289 OFFCURVE",
"283 232 OFFCURVE",
"283 183 CURVE SMOOTH",
"283 105 OFFCURVE",
"307 50 OFFCURVE",
"355 18 CURVE SMOOTH",
"404 -14 OFFCURVE",
"465 -30 OFFCURVE",
"539 -30 CURVE SMOOTH",
"636 -30 OFFCURVE",
"713 -2 OFFCURVE",
"772 54 CURVE SMOOTH",
"831 110 OFFCURVE",
"860 180 OFFCURVE",
"860 263 CURVE SMOOTH",
"860 315 OFFCURVE",
"832 403 OFFCURVE",
"748 536 CURVE",
"1424 1368 LINE SMOOTH",
"1460 1412 OFFCURVE",
"1456 1434 OFFCURVE",
"1412 1434 CURVE SMOOTH",
"1288 1434 LINE SMOOTH",
"1257 1434 OFFCURVE",
"1230 1418 OFFCURVE",
"1205 1385 CURVE SMOOTH",
"838 898 LINE SMOOTH",
"801 849 OFFCURVE",
"770 807 OFFCURVE",
"745 772 CURVE SMOOTH",
"720 737 OFFCURVE",
"694 699 OFFCURVE",
"666 656 CURVE",
"662 656 LINE",
"651 700 OFFCURVE",
"641 739 OFFCURVE",
"630 774 CURVE",
"594 898 LINE",
"453 1385 LINE SMOOTH",
"444 1418 OFFCURVE",
"423 1434 OFFCURVE",
"392 1434 CURVE SMOOTH",
"292 1434 LINE SMOOTH",
"249 1434 OFFCURVE",
"235 1412 OFFCURVE",
"250 1368 CURVE SMOOTH"
);
},
{
closed = 1;
nodes = (
"475 234 OFFCURVE",
"488 271 OFFCURVE",
"515 314 CURVE SMOOTH",
"542 357 OFFCURVE",
"576 393 OFFCURVE",
"615 424 CURVE",
"619 424 LINE",
"640 381 OFFCURVE",
"653 348 OFFCURVE",
"659 324 CURVE SMOOTH",
"665 301 OFFCURVE",
"668 278 OFFCURVE",
"668 256 CURVE SMOOTH",
"668 226 OFFCURVE",
"657 197 OFFCURVE",
"636 168 CURVE SMOOTH",
"615 140 OFFCURVE",
"589 126 OFFCURVE",
"559 126 CURVE SMOOTH",
"499 126 OFFCURVE",
"475 143 OFFCURVE",
"475 203 CURVE SMOOTH"
);
}
);
width = 1282;
},
{
layerId = "05202388-ED6B-49B3-97C3-39168626F3FE";
paths = (
{
closed = 1;
nodes = (
"503 542 LINE",
"440 503 OFFCURVE",
"384 454 OFFCURVE",
"336 394 CURVE SMOOTH",
"288 334 OFFCURVE",
"264 271 OFFCURVE",
"264 204 CURVE SMOOTH",
"264 135 OFFCURVE",
"288 78 OFFCURVE",
"336 33 CURVE SMOOTH",
"384 -12 OFFCURVE",
"460 -34 OFFCURVE",
"564 -34 CURVE SMOOTH",
"697 -34 OFFCURVE",
"797 -1 OFFCURVE",
"863 65 CURVE SMOOTH",
"929 132 OFFCURVE",
"962 201 OFFCURVE",
"962 272 CURVE SMOOTH",
"962 365 OFFCURVE",
"913 445 OFFCURVE",
"845 528 CURVE",
"1488 1348 LINE SMOOTH",
"1533 1405 OFFCURVE",
"1524 1434 OFFCURVE",
"1461 1434 CURVE SMOOTH",
"1266 1434 LINE SMOOTH",
"1229 1434 OFFCURVE",
"1193 1411 OFFCURVE",
"1158 1365 CURVE SMOOTH",
"865 974 LINE",
"781 865 LINE SMOOTH",
"748 823 OFFCURVE",
"724 777 OFFCURVE",
"708 728 CURVE",
"704 728 LINE",
"704 827 OFFCURVE",
"672 907 OFFCURVE",
"653 974 CURVE SMOOTH",
"540 1365 LINE SMOOTH",
"527 1411 OFFCURVE",
"501 1434 OFFCURVE",
"464 1434 CURVE SMOOTH",
"309 1434 LINE SMOOTH",
"246 1434 OFFCURVE",
"223 1408 OFFCURVE",
"240 1356 CURVE SMOOTH"
);
},
{
closed = 1;
nodes = (
"538 279 OFFCURVE",
"572 345 OFFCURVE",
"643 394 CURVE",
"647 394 LINE",
"686 345 OFFCURVE",
"688 308 OFFCURVE",
"688 292 CURVE SMOOTH",
"688 240 OFFCURVE",
"645 196 OFFCURVE",
"594 196 CURVE SMOOTH",
"562 196 OFFCURVE",
"538 209 OFFCURVE",
"538 254 CURVE SMOOTH"
);
}
);
width = 1348;
}
);
unicode = 0194;
},
{
glyphname = uni0196;
lastChange = "2016-10-15 02:20:23 +0000";
layers = (
{
layerId = UUID0;
paths = (
{
closed = 1;
nodes = (
"139 388 LINE",
"76 116 OFFCURVE",
"171 -30 OFFCURVE",
"390 -30 CURVE SMOOTH",
"483 -30 OFFCURVE",
"584 8 OFFCURVE",
"649 49 CURVE SMOOTH",
"672 63 OFFCURVE",
"678 81 OFFCURVE",
"667 103 CURVE SMOOTH",
"640 159 LINE SMOOTH",
"628 184 OFFCURVE",
"605 189 OFFCURVE",
"570 173 CURVE SMOOTH",
"503 142 OFFCURVE",
"459 126 OFFCURVE",
"411 126 CURVE SMOOTH",
"315 126 OFFCURVE",
"291 197 OFFCURVE",
"316 310 CURVE",
"560 1379 LINE SMOOTH",
"569 1416 OFFCURVE",
"556 1434 OFFCURVE",
"523 1434 CURVE SMOOTH",
"431 1434 LINE SMOOTH",
"398 1434 OFFCURVE",
"377 1416 OFFCURVE",
"368 1379 CURVE SMOOTH",
"139 388 LINE"
);
}
);
width = 815;
},
{
layerId = "05202388-ED6B-49B3-97C3-39168626F3FE";
paths = (
{
closed = 1;
nodes = (
"160 518 LINE",
"121 351 OFFCURVE",
"130 218 OFFCURVE",
"187 117 CURVE SMOOTH",
"244 16 OFFCURVE",
"343 -34 OFFCURVE",
"484 -34 CURVE SMOOTH",
"583 -34 OFFCURVE",
"671 -17 OFFCURVE",
"763 26 CURVE SMOOTH",
"795 41 OFFCURVE",
"806 64 OFFCURVE",
"797 97 CURVE SMOOTH",
"766 208 LINE SMOOTH",
"757 242 OFFCURVE",
"730 251 OFFCURVE",
"685 234 CURVE SMOOTH",
"636 215 OFFCURVE",
"591 202 OFFCURVE",
"538 202 CURVE SMOOTH",
"434 202 OFFCURVE",
"397 283 OFFCURVE",
"436 448 CURVE",
"646 1359 LINE SMOOTH",
"657 1409 OFFCURVE",
"640 1434 OFFCURVE",
"593 1434 CURVE SMOOTH",
"441 1434 LINE SMOOTH",
"394 1434 OFFCURVE",
"365 1409 OFFCURVE",
"354 1359 CURVE SMOOTH",
"160 518 LINE"
);
}
);
width = 938;
}
);
unicode = 0196;
},
{
glyphname = uni0197;
lastChange = "2016-10-15 02:20:23 +0000";
layers = (
{
layerId = UUID0;
paths = (
{
closed = 1;
nodes = (
"277 0 LINE SMOOTH",
"310 0 OFFCURVE",
"331 18 OFFCURVE",
"340 55 CURVE SMOOTH",
"476 644 LINE",
"626 644 LINE SMOOTH",
"663 644 OFFCURVE",
"684 659 OFFCURVE",
"691 689 CURVE SMOOTH",
"708 763 LINE SMOOTH",
"715 793 OFFCURVE",
"701 808 OFFCURVE",
"664 808 CURVE SMOOTH",
"514 808 LINE",
"645 1379 LINE SMOOTH",
"654 1416 OFFCURVE",
"641 1434 OFFCURVE",
"608 1434 CURVE SMOOTH",
"516 1434 LINE SMOOTH",
"483 1434 OFFCURVE",
"462 1416 OFFCURVE",
"453 1379 CURVE SMOOTH",
"322 808 LINE",
"172 808 LINE SMOOTH",
"135 808 OFFCURVE",
"113 793 OFFCURVE",
"106 763 CURVE SMOOTH",
"89 689 LINE SMOOTH",
"82 659 OFFCURVE",
"97 644 OFFCURVE",
"134 644 CURVE SMOOTH",
"284 644 LINE",
"148 55 LINE SMOOTH",
"139 18 OFFCURVE",
"152 0 OFFCURVE",
"185 0 CURVE SMOOTH"
);
}
);
width = 702;
},
{
layerId = "05202388-ED6B-49B3-97C3-39168626F3FE";
paths = (
{
closed = 1;
nodes = (
"278 622 LINE",
"151 75 LINE SMOOTH",
"140 25 OFFCURVE",
"157 0 OFFCURVE",
"204 0 CURVE SMOOTH",
"356 0 LINE SMOOTH",
"403 0 OFFCURVE",
"432 25 OFFCURVE",
"443 75 CURVE SMOOTH",
"570 622 LINE",
"703 622 LINE SMOOTH",
"753 622 OFFCURVE",
"783 644 OFFCURVE",
"793 687 CURVE SMOOTH",
"820 805 LINE SMOOTH",
"830 848 OFFCURVE",
"810 870 OFFCURVE",
"760 870 CURVE SMOOTH",
"627 870 LINE",
"740 1359 LINE SMOOTH",
"751 1409 OFFCURVE",
"734 1434 OFFCURVE",
"687 1434 CURVE SMOOTH",
"535 1434 LINE SMOOTH",
"488 1434 OFFCURVE",
"459 1409 OFFCURVE",
"448 1359 CURVE SMOOTH",
"335 870 LINE",
"202 870 LINE SMOOTH",
"152 870 OFFCURVE",
"122 848 OFFCURVE",
"112 805 CURVE SMOOTH",
"85 687 LINE SMOOTH",
"75 644 OFFCURVE",
"95 622 OFFCURVE",
"145 622 CURVE SMOOTH"
);
}
);
width = 800;
}
);
unicode = 0197;
},
{
glyphname = uni01B2;
lastChange = "2016-10-15 02:20:23 +0000";
layers = (
{
layerId = UUID0;
paths = (
{
closed = 1;
nodes = (
"176 547 LINE",
"129 341 OFFCURVE",
"147 193 OFFCURVE",
"230 104 CURVE SMOOTH",
"313 15 OFFCURVE",
"425 -30 OFFCURVE",
"566 -30 CURVE SMOOTH",
"805 -30 OFFCURVE",
"990 66 OFFCURVE",
"1120 258 CURVE SMOOTH",
"1250 451 OFFCURVE",
"1315 682 OFFCURVE",
"1315 952 CURVE SMOOTH",
"1315 1156 OFFCURVE",
"1257 1310 OFFCURVE",
"1178 1426 CURVE SMOOTH",
"1155 1460 OFFCURVE",
"1128 1467 OFFCURVE",
"1099 1446 CURVE SMOOTH",
"1024 1394 LINE SMOOTH",
"996 1375 OFFCURVE",
"991 1352 OFFCURVE",
"1009 1325 CURVE SMOOTH",
"1046 1271 OFFCURVE",
"1072 1211 OFFCURVE",
"1087 1144 CURVE SMOOTH",
"1102 1078 OFFCURVE",
"1110 990 OFFCURVE",
"1110 880 CURVE SMOOTH",
"1110 648 OFFCURVE",
"1055 464 OFFCURVE",
"944 329 CURVE SMOOTH",
"833 194 OFFCURVE",
"716 126 OFFCURVE",
"593 126 CURVE SMOOTH",
"502 126 OFFCURVE",
"432 152 OFFCURVE",
"382 204 CURVE SMOOTH",
"332 257 OFFCURVE",
"330 381 OFFCURVE",
"375 577 CURVE SMOOTH",
"560 1379 LINE SMOOTH",
"569 1416 OFFCURVE",
"556 1434 OFFCURVE",
"523 1434 CURVE SMOOTH",
"431 1434 LINE SMOOTH",
"398 1434 OFFCURVE",
"377 1416 OFFCURVE",
"368 1379 CURVE SMOOTH",
"176 547 LINE"
);
}
);
width = 1341;
},
{
layerId = "05202388-ED6B-49B3-97C3-39168626F3FE";
paths = (
{
closed = 1;
nodes = (
"178 597 LINE",
"126 370 OFFCURVE",
"146 208 OFFCURVE",
"237 111 CURVE SMOOTH",
"329 14 OFFCURVE",
"462 -34 OFFCURVE",
"637 -34 CURVE SMOOTH",
"857 -34 OFFCURVE",
"1033 62 OFFCURVE",
"1166 253 CURVE SMOOTH",
"1299 444 OFFCURVE",
"1365 676 OFFCURVE",
"1365 947 CURVE SMOOTH",
"1365 1002 OFFCURVE",
"1352 1071 OFFCURVE",
"1327 1156 CURVE SMOOTH",
"1302 1241 OFFCURVE",
"1263 1325 OFFCURVE",
"1208 1407 CURVE SMOOTH",
"1173 1459 OFFCURVE",
"1133 1470 OFFCURVE",
"1088 1439 CURVE SMOOTH",
"954 1347 LINE SMOOTH",
"921 1324 OFFCURVE",
"920 1287 OFFCURVE",
"950 1235 CURVE SMOOTH",
"975 1192 OFFCURVE",
"998 1138 OFFCURVE",
"1020 1074 CURVE SMOOTH",
"1042 1010 OFFCURVE",
"1053 950 OFFCURVE",
"1053 893 CURVE SMOOTH",
"1053 732 OFFCURVE",
"1014 576 OFFCURVE",
"937 426 CURVE SMOOTH",
"860 277 OFFCURVE",
"771 202 OFFCURVE",
"669 202 CURVE SMOOTH",
"591 202 OFFCURVE",
"528 224 OFFCURVE",
"481 269 CURVE SMOOTH",
"434 314 OFFCURVE",
"431 427 OFFCURVE",
"472 607 CURVE SMOOTH",
"650 1379 LINE SMOOTH",
"659 1416 OFFCURVE",
"640 1434 OFFCURVE",
"593 1434 CURVE SMOOTH",
"441 1434 LINE SMOOTH",
"394 1434 OFFCURVE",
"367 1416 OFFCURVE",
"358 1379 CURVE SMOOTH",
"178 597 LINE"
);
}
);
width = 1377;
}
);
unicode = 01B2;
},
{
glyphname = uni0244;
lastChange = "2016-10-15 02:20:23 +0000";
layers = (
{
layerId = UUID0;
paths = (
{
closed = 1;
nodes = (
"283 644 LINE",
"261 547 LINE SMOOTH",
"212 336 OFFCURVE",
"233 187 OFFCURVE",
"324 100 CURVE SMOOTH",
"415 13 OFFCURVE",
"526 -30 OFFCURVE",
"659 -30 CURVE SMOOTH",
"838 -30 OFFCURVE",
"982 13 OFFCURVE",
"1089 100 CURVE SMOOTH",
"1196 187 OFFCURVE",
"1274 336 OFFCURVE",
"1323 547 CURVE SMOOTH",
"1345 644 LINE",
"1346 644 LINE",
"1496 644 LINE SMOOTH",
"1533 644 OFFCURVE",
"1554 659 OFFCURVE",
"1561 689 CURVE SMOOTH",
"1578 763 LINE SMOOTH",
"1585 793 OFFCURVE",
"1571 808 OFFCURVE",
"1534 808 CURVE SMOOTH",
"1384 808 LINE",
"1383 808 LINE",
"1515 1379 LINE SMOOTH",
"1524 1416 OFFCURVE",
"1511 1434 OFFCURVE",
"1478 1434 CURVE SMOOTH",
"1386 1434 LINE SMOOTH",
"1353 1434 OFFCURVE",
"1332 1416 OFFCURVE",
"1323 1379 CURVE SMOOTH",
"1191 808 LINE",
"513 808 LINE",
"645 1379 LINE SMOOTH",
"654 1416 OFFCURVE",
"641 1434 OFFCURVE",
"608 1434 CURVE SMOOTH",
"516 1434 LINE SMOOTH",
"483 1434 OFFCURVE",
"462 1416 OFFCURVE",
"453 1379 CURVE SMOOTH",
"321 808 LINE",
"172 808 LINE SMOOTH",
"135 808 OFFCURVE",
"113 793 OFFCURVE",
"106 763 CURVE SMOOTH",
"89 689 LINE SMOOTH",
"82 659 OFFCURVE",
"97 644 OFFCURVE",
"134 644 CURVE SMOOTH"
);
},
{
closed = 1;
nodes = (
"475 644 LINE",
"1153 644 LINE",
"1138 577 LINE SMOOTH",
"1095 390 OFFCURVE",
"1034 268 OFFCURVE",
"957 211 CURVE SMOOTH",
"880 154 OFFCURVE",
"792 126 OFFCURVE",
"695 126 CURVE SMOOTH",
"574 126 OFFCURVE",
"494 154 OFFCURVE",
"455 211 CURVE SMOOTH",
"416 268 OFFCURVE",
"417 390 OFFCURVE",
"460 577 CURVE SMOOTH"
);
}
);
width = 1572;
},
{
layerId = "05202388-ED6B-49B3-97C3-39168626F3FE";
paths = (
{
closed = 1;
nodes = (
"278 622 LINE",
"272 597 LINE SMOOTH",
"221 374 OFFCURVE",
"239 213 OFFCURVE",
"327 114 CURVE SMOOTH",
"416 15 OFFCURVE",
"540 -34 OFFCURVE",
"701 -34 CURVE SMOOTH",
"888 -34 OFFCURVE",
"1033 11 OFFCURVE",
"1136 100 CURVE SMOOTH",
"1239 189 OFFCURVE",
"1318 355 OFFCURVE",
"1374 597 CURVE SMOOTH",
"1380 622 LINE",
"1513 622 LINE SMOOTH",
"1563 622 OFFCURVE",
"1593 644 OFFCURVE",
"1603 687 CURVE SMOOTH",
"1630 805 LINE SMOOTH",
"1640 848 OFFCURVE",
"1620 870 OFFCURVE",
"1570 870 CURVE SMOOTH",
"1437 870 LINE",
"1554 1379 LINE SMOOTH",
"1563 1416 OFFCURVE",
"1544 1434 OFFCURVE",
"1497 1434 CURVE SMOOTH",
"1345 1434 LINE SMOOTH",
"1298 1434 OFFCURVE",
"1271 1416 OFFCURVE",
"1262 1379 CURVE SMOOTH",
"1145 870 LINE",
"627 870 LINE",
"744 1379 LINE SMOOTH",
"753 1416 OFFCURVE",
"734 1434 OFFCURVE",
"687 1434 CURVE SMOOTH",
"535 1434 LINE SMOOTH",
"488 1434 OFFCURVE",
"461 1416 OFFCURVE",
"452 1379 CURVE SMOOTH",
"335 870 LINE",
"202 870 LINE SMOOTH",
"152 870 OFFCURVE",
"122 848 OFFCURVE",
"112 805 CURVE SMOOTH",
"85 687 LINE SMOOTH",
"75 644 OFFCURVE",
"95 622 OFFCURVE",
"145 622 CURVE SMOOTH"
);
},
{
closed = 1;
nodes = (
"569 622 LINE",
"1087 622 LINE",
"1084 607 LINE SMOOTH",
"1047 447 OFFCURVE",
"996 339 OFFCURVE",
"930 284 CURVE SMOOTH",
"865 229 OFFCURVE",
"798 202 OFFCURVE",
"731 202 CURVE SMOOTH",
"653 202 OFFCURVE",
"596 225 OFFCURVE",
"559 270 CURVE SMOOTH",
"522 316 OFFCURVE",
"525 428 OFFCURVE",
"566 607 CURVE SMOOTH"
);
}
);
width = 1610;
}
);
unicode = 0244;
},
{
glyphname = uni0245;
lastChange = "2016-10-15 02:20:23 +0000";
layers = (
{
layerId = UUID0;
paths = (
{
closed = 1;
nodes = (
"67 0 LINE SMOOTH",
"103 0 OFFCURVE",
"131 16 OFFCURVE",
"150 49 CURVE SMOOTH",
"682 944 LINE SMOOTH",
"703 979 OFFCURVE",
"731 1030 OFFCURVE",
"768 1097 CURVE SMOOTH",
"805 1164 OFFCURVE",
"833 1219 OFFCURVE",
"850 1261 CURVE",
"854 1261 LINE",
"854 1220 OFFCURVE",
"856 1166 OFFCURVE",
"861 1101 CURVE SMOOTH",
"866 1036 OFFCURVE",
"871 983 OFFCURVE",
"876 944 CURVE SMOOTH",
"994 49 LINE SMOOTH",
"998 16 OFFCURVE",
"1018 0 OFFCURVE",
"1055 0 CURVE SMOOTH",
"1145 0 LINE SMOOTH",
"1179 0 OFFCURVE",
"1193 22 OFFCURVE",
"1187 66 CURVE SMOOTH",
"1002 1373 LINE SMOOTH",
"996 1414 OFFCURVE",
"979 1434 OFFCURVE",
"950 1434 CURVE SMOOTH",
"810 1434 LINE SMOOTH",
"781 1434 OFFCURVE",
"755 1414 OFFCURVE",
"730 1373 CURVE SMOOTH",
"-59 66 LINE SMOOTH",
"-86 22 OFFCURVE",
"-82 0 OFFCURVE",
"-47 0 CURVE SMOOTH"
);
}
);
width = 1338;
},
{
layerId = "05202388-ED6B-49B3-97C3-39168626F3FE";
paths = (
{
closed = 1;
nodes = (
"149 0 LINE SMOOTH",
"194 0 OFFCURVE",
"230 23 OFFCURVE",
"257 69 CURVE SMOOTH",
"756 904 LINE SMOOTH",
"779 943 OFFCURVE",
"793 970 OFFCURVE",
"800 987 CURVE SMOOTH",
"807 1004 OFFCURVE",
"817 1028 OFFCURVE",
"828 1061 CURVE",
"832 1061 LINE",
"827 1028 OFFCURVE",
"825 1004 OFFCURVE",
"825 988 CURVE SMOOTH",
"825 972 OFFCURVE",
"827 944 OFFCURVE",
"832 904 CURVE SMOOTH",
"945 69 LINE SMOOTH",
"951 23 OFFCURVE",
"976 0 OFFCURVE",
"1021 0 CURVE SMOOTH",
"1160 0 LINE SMOOTH",
"1207 0 OFFCURVE",
"1228 22 OFFCURVE",
"1222 66 CURVE SMOOTH",
"1041 1353 LINE",
"1034 1407 OFFCURVE",
"1009 1434 OFFCURVE",
"966 1434 CURVE SMOOTH",
"826 1434 LINE SMOOTH",
"783 1434 OFFCURVE",
"746 1407 OFFCURVE",
"713 1353 CURVE SMOOTH",
"-62 66 LINE SMOOTH",
"-89 22 OFFCURVE",
"-78 0 OFFCURVE",
"-30 0 CURVE SMOOTH"
);
}
);
width = 1370;
}
);
unicode = 0245;
},
{
glyphname = uni2C6E;
lastChange = "2016-10-15 02:20:23 +0000";
layers = (
{
layerId = UUID0;
paths = (
{
closed = 1;
nodes = (
"192 0 LINE SMOOTH",
"225 0 OFFCURVE",
"246 18 OFFCURVE",
"255 55 CURVE SMOOTH",
"497 1104 LINE SMOOTH",
"502 1128 OFFCURVE",
"508 1155 OFFCURVE",
"513 1184 CURVE",
"517 1184 LINE",
"627 61 LINE SMOOTH",
"631 20 OFFCURVE",
"648 0 OFFCURVE",
"679 0 CURVE SMOOTH",
"789 0 LINE SMOOTH",
"820 0 OFFCURVE",
"846 20 OFFCURVE",
"869 61 CURVE SMOOTH",
"1497 1184 LINE",
"1501 1184 LINE",
"1494 1161 OFFCURVE",
"1488 1134 OFFCURVE",
"1481 1104 CURVE SMOOTH",
"1235 38 LINE SMOOTH",
"1207 -85 OFFCURVE",
"1173 -165 OFFCURVE",
"1132 -203 CURVE",
"1092 -242 OFFCURVE",
"1048 -261 OFFCURVE",
"1001 -261 CURVE SMOOTH",
"970 -261 OFFCURVE",
"935 -251 OFFCURVE",
"894 -232 CURVE SMOOTH",
"860 -216 OFFCURVE",
"837 -222 OFFCURVE",
"826 -249 CURVE SMOOTH",
"797 -320 LINE SMOOTH",
"784 -351 OFFCURVE",
"791 -371 OFFCURVE",
"816 -382 CURVE SMOOTH",
"871 -405 OFFCURVE",
"926 -417 OFFCURVE",
"982 -417 CURVE SMOOTH",
"1094 -417 OFFCURVE",
"1186 -387 OFFCURVE",
"1257 -326 CURVE SMOOTH",
"1328 -266 OFFCURVE",
"1381 -160 OFFCURVE",
"1416 -9 CURVE SMOOTH",
"1736 1379 LINE SMOOTH",
"1745 1416 OFFCURVE",
"1732 1434 OFFCURVE",
"1699 1434 CURVE SMOOTH",
"1474 1434 LINE SMOOTH",
"1449 1434 OFFCURVE",
"1425 1414 OFFCURVE",
"1403 1374 CURVE SMOOTH",
"910 477 LINE SMOOTH",
"849 365 OFFCURVE",
"809 290 OFFCURVE",
"773 206 CURVE",
"767 206 LINE",
"767 286 OFFCURVE",
"763 368 OFFCURVE",
"754 477 CURVE SMOOTH",
"675 1374 LINE SMOOTH",
"672 1414 OFFCURVE",
"657 1434 OFFCURVE",
"632 1434 CURVE SMOOTH",
"431 1434 LINE SMOOTH",
"398 1434 OFFCURVE",
"377 1416 OFFCURVE",
"368 1379 CURVE SMOOTH",
"63 55 LINE SMOOTH",
"54 18 OFFCURVE",
"67 0 OFFCURVE",
"100 0 CURVE SMOOTH"
);
}
);
width = 1708;
},
{
layerId = "05202388-ED6B-49B3-97C3-39168626F3FE";
paths = (
{
closed = 1;
nodes = (
"262 0 LINE SMOOTH",
"309 0 OFFCURVE",
"338 25 OFFCURVE",
"349 75 CURVE SMOOTH",
"540 901 LINE SMOOTH",
"549 940 OFFCURVE",
"556 980 OFFCURVE",
"563 1021 CURVE",
"570 1021 LINE",
"642 81 LINE SMOOTH",
"646 27 OFFCURVE",
"668 0 OFFCURVE",
"709 0 CURVE SMOOTH",
"879 0 LINE SMOOTH",
"920 0 OFFCURVE",
"955 27 OFFCURVE",
"984 81 CURVE SMOOTH",
"1490 1021 LINE",
"1497 1021 LINE",
"1484 977 OFFCURVE",
"1473 937 OFFCURVE",
"1464 901 CURVE",
"1277 91 LINE SMOOTH",
"1252 -16 OFFCURVE",
"1224 -88 OFFCURVE",
"1192 -126 CURVE SMOOTH",
"1160 -165 OFFCURVE",
"1118 -184 OFFCURVE",
"1067 -184 CURVE SMOOTH",
"1036 -184 OFFCURVE",
"1005 -178 OFFCURVE",
"976 -167 CURVE SMOOTH",
"941 -153 OFFCURVE",
"917 -166 OFFCURVE",
"904 -206 CURVE SMOOTH",
"865 -320 LINE SMOOTH",
"853 -356 OFFCURVE",
"860 -379 OFFCURVE",
"887 -389 CURVE SMOOTH",
"941 -410 OFFCURVE",
"1002 -420 OFFCURVE",
"1071 -420 CURVE SMOOTH",
"1324 -420 OFFCURVE",
"1483 -281 OFFCURVE",
"1556 35 CURVE SMOOTH",
"1862 1359 LINE SMOOTH",
"1873 1409 OFFCURVE",
"1856 1434 OFFCURVE",
"1809 1434 CURVE SMOOTH",
"1505 1434 LINE SMOOTH",
"1466 1434 OFFCURVE",
"1433 1407 OFFCURVE",
"1404 1354 CURVE SMOOTH",
"930 477 LINE SMOOTH",
"907 435 OFFCURVE",
"891 403 OFFCURVE",
"882 380 CURVE SMOOTH",
"873 358 OFFCURVE",
"863 330 OFFCURVE",
"852 297 CURVE",
"846 297 LINE",
"850 330 OFFCURVE",
"852 358 OFFCURVE",
"853 380 CURVE SMOOTH",
"854 402 OFFCURVE",
"853 434 OFFCURVE",
"850 477 CURVE SMOOTH",
"782 1354 LINE SMOOTH",
"778 1407 OFFCURVE",
"756 1434 OFFCURVE",
"717 1434 CURVE SMOOTH",
"441 1434 LINE SMOOTH",
"394 1434 OFFCURVE",
"365 1409 OFFCURVE",
"354 1359 CURVE SMOOTH",
"57 75 LINE SMOOTH",
"46 25 OFFCURVE",
"63 0 OFFCURVE",
"110 0 CURVE SMOOTH"
);
}
);
width = 1828;
}
);
unicode = 2C6E;
},
{
glyphname = a;
lastChange = "2016-10-15 02:20:23 +0000";
layers = (
{
layerId = UUID0;
paths = (
{
closed = 1;
nodes = (
"66 218 OFFCURVE",
"95 129 OFFCURVE",
"154 70 CURVE SMOOTH",
"213 12 OFFCURVE",
"290 -17 OFFCURVE",
"387 -17 CURVE SMOOTH",
"454 -17 OFFCURVE",
"514 2 OFFCURVE",
"568 41 CURVE SMOOTH",
"623 80 OFFCURVE",
"666 122 OFFCURVE",
"699 165 CURVE",
"701 165 LINE",
"676 45 LINE SMOOTH",
"670 15 OFFCURVE",
"682 0 OFFCURVE",
"711 0 CURVE SMOOTH",
"792 0 LINE SMOOTH",
"822 0 OFFCURVE",
"840 15 OFFCURVE",
"847 45 CURVE SMOOTH",
"1069 1005 LINE SMOOTH",
"1076 1035 OFFCURVE",
"1064 1050 OFFCURVE",
"1034 1050 CURVE SMOOTH",
"950 1050 LINE SMOOTH",
"927 1050 OFFCURVE",
"911 1035 OFFCURVE",
"901 1005 CURVE SMOOTH",
"880 942 LINE",
"878 942 LINE",
"859 975 OFFCURVE",
"831 1004 OFFCURVE",
"792 1029 CURVE SMOOTH",
"753 1054 OFFCURVE",
"704 1067 OFFCURVE",
"644 1067 CURVE SMOOTH",
"507 1067 OFFCURVE",
"377 991 OFFCURVE",
"252 840 CURVE SMOOTH",
"128 689 OFFCURVE",
"66 522 OFFCURVE",
"66 339 CURVE SMOOTH"
);
},
{
closed = 1;
nodes = (
"252 496 OFFCURVE",
"293 638 OFFCURVE",
"375 757 CURVE SMOOTH",
"457 877 OFFCURVE",
"545 937 OFFCURVE",
"638 937 CURVE SMOOTH",
"695 937 OFFCURVE",
"742 924 OFFCURVE",
"780 898 CURVE",
"819 873 OFFCURVE",
"838 830 OFFCURVE",
"838 770 CURVE",
"771 480 LINE SMOOTH",
"751 394 OFFCURVE",
"705 311 OFFCURVE",
"632 232 CURVE SMOOTH",
"559 153 OFFCURVE",
"493 113 OFFCURVE",
"433 113 CURVE SMOOTH",
"360 113 OFFCURVE",
"311 138 OFFCURVE",
"287 189 CURVE SMOOTH",
"264 240 OFFCURVE",
"252 288 OFFCURVE",
"252 332 CURVE SMOOTH"
);
}
);
width = 1099;
},
{
layerId = "05202388-ED6B-49B3-97C3-39168626F3FE";
paths = (
{
closed = 1;
nodes = (
"62 274 OFFCURVE",
"91 182 OFFCURVE",
"150 101 CURVE SMOOTH",
"209 20 OFFCURVE",
"292 -20 OFFCURVE",
"398 -20 CURVE SMOOTH",
"511 -20 OFFCURVE",
"595 42 OFFCURVE",
"674 138 CURVE",
"678 138 LINE",
"664 60 LINE SMOOTH",
"657 20 OFFCURVE",
"672 0 OFFCURVE",
"709 0 CURVE SMOOTH",
"862 0 LINE SMOOTH",
"902 0 OFFCURVE",
"927 20 OFFCURVE",
"936 60 CURVE SMOOTH",
"1151 990 LINE SMOOTH",
"1160 1030 OFFCURVE",
"1145 1050 OFFCURVE",
"1104 1050 CURVE SMOOTH",
"951 1050 LINE SMOOTH",
"925 1050 OFFCURVE",
"903 1030 OFFCURVE",
"884 990 CURVE SMOOTH",
"867 954 LINE",
"863 954 LINE",
"831 1001 OFFCURVE",
"795 1032 OFFCURVE",
"756 1047 CURVE SMOOTH",
"717 1062 OFFCURVE",
"682 1070 OFFCURVE",
"652 1070 CURVE SMOOTH",
"502 1070 OFFCURVE",
"366 1002 OFFCURVE",
"244 865 CURVE SMOOTH",
"123 728 OFFCURVE",
"62 566 OFFCURVE",
"62 379 CURVE SMOOTH"
);
},
{
closed = 1;
nodes = (
"358 492 OFFCURVE",
"386 611 OFFCURVE",
"441 716 CURVE SMOOTH",
"496 821 OFFCURVE",
"565 874 OFFCURVE",
"648 874 CURVE SMOOTH",
"763 874 OFFCURVE",
"800 801 OFFCURVE",
"800 680 CURVE",
"763 522 LINE SMOOTH",
"708 291 OFFCURVE",
"598 176 OFFCURVE",
"483 176 CURVE SMOOTH",
"451 176 OFFCURVE",
"422 192 OFFCURVE",
"396 225 CURVE SMOOTH",
"371 258 OFFCURVE",
"358 303 OFFCURVE",
"358 360 CURVE SMOOTH"
);
}
);
width = 1178;
}
);
unicode = 0061;
},
{
glyphname = aogonek;
lastChange = "2016-10-15 02:20:23 +0000";
layers = (
{
layerId = UUID0;
paths = (
{
closed = 1;
nodes = (
"66 218 OFFCURVE",
"95 129 OFFCURVE",
"154 70 CURVE SMOOTH",
"213 12 OFFCURVE",
"290 -17 OFFCURVE",
"387 -17 CURVE SMOOTH",
"454 -17 OFFCURVE",
"514 2 OFFCURVE",
"568 41 CURVE SMOOTH",
"623 80 OFFCURVE",
"666 122 OFFCURVE",
"699 165 CURVE",
"701 165 LINE",
"676 45 LINE SMOOTH",
"671 20 OFFCURVE",
"662 3 OFFCURVE",
"649 -6 CURVE SMOOTH",
"582 -50 OFFCURVE",
"533 -85 OFFCURVE",
"502 -110 CURVE SMOOTH",
"471 -136 OFFCURVE",
"450 -163 OFFCURVE",
"438 -190 CURVE",
"427 -218 OFFCURVE",
"421 -249 OFFCURVE",
"421 -284 CURVE SMOOTH",
"421 -361 OFFCURVE",
"484 -417 OFFCURVE",
"617 -417 CURVE SMOOTH",
"657 -417 OFFCURVE",
"696 -414 OFFCURVE",
"735 -408 CURVE",
"748 -405 OFFCURVE",
"754 -396 OFFCURVE",
"753 -380 CURVE SMOOTH",
"747 -303 LINE SMOOTH",
"746 -285 OFFCURVE",
"737 -278 OFFCURVE",
"720 -281 CURVE SMOOTH",
"700 -285 OFFCURVE",
"676 -287 OFFCURVE",
"647 -287 CURVE SMOOTH",
"599 -287 OFFCURVE",
"581 -269 OFFCURVE",
"581 -233 CURVE SMOOTH",
"581 -202 OFFCURVE",
"605 -167 OFFCURVE",
"653 -128 CURVE SMOOTH",
"702 -89 OFFCURVE",
"757 -47 OFFCURVE",
"820 0 CURVE SMOOTH",
"833 10 OFFCURVE",
"842 25 OFFCURVE",
"847 45 CURVE SMOOTH",
"1069 1005 LINE SMOOTH",
"1076 1035 OFFCURVE",
"1064 1050 OFFCURVE",
"1034 1050 CURVE SMOOTH",
"950 1050 LINE SMOOTH",
"927 1050 OFFCURVE",
"911 1035 OFFCURVE",
"901 1005 CURVE SMOOTH",
"880 942 LINE",
"878 942 LINE",
"859 975 OFFCURVE",
"831 1004 OFFCURVE",
"792 1029 CURVE SMOOTH",
"753 1054 OFFCURVE",
"704 1067 OFFCURVE",
"644 1067 CURVE SMOOTH",
"507 1067 OFFCURVE",
"377 991 OFFCURVE",
"252 840 CURVE SMOOTH",
"128 689 OFFCURVE",
"66 522 OFFCURVE",
"66 339 CURVE SMOOTH"
);
},
{
closed = 1;
nodes = (
"252 496 OFFCURVE",
"293 638 OFFCURVE",
"375 757 CURVE SMOOTH",
"457 877 OFFCURVE",
"545 937 OFFCURVE",
"638 937 CURVE SMOOTH",
"695 937 OFFCURVE",
"742 924 OFFCURVE",
"780 898 CURVE",
"819 873 OFFCURVE",
"838 830 OFFCURVE",
"838 770 CURVE",
"771 480 LINE SMOOTH",
"751 394 OFFCURVE",
"705 311 OFFCURVE",
"632 232 CURVE SMOOTH",
"559 153 OFFCURVE",
"493 113 OFFCURVE",
"433 113 CURVE SMOOTH",
"360 113 OFFCURVE",
"311 138 OFFCURVE",
"287 189 CURVE SMOOTH",
"264 240 OFFCURVE",
"252 288 OFFCURVE",
"252 332 CURVE SMOOTH"
);
}
);
width = 1099;
},
{
layerId = "05202388-ED6B-49B3-97C3-39168626F3FE";
paths = (
{
closed = 1;
nodes = (
"62 274 OFFCURVE",
"91 182 OFFCURVE",
"150 101 CURVE SMOOTH",
"209 20 OFFCURVE",
"292 -20 OFFCURVE",
"398 -20 CURVE SMOOTH",
"511 -20 OFFCURVE",
"595 42 OFFCURVE",
"674 138 CURVE",
"678 138 LINE",
"664 60 LINE SMOOTH",
"658 27 OFFCURVE",
"643 5 OFFCURVE",
"620 -7 CURVE",
"511 -78 OFFCURVE",
"441 -150 OFFCURVE",
"429 -195 CURVE SMOOTH",
"423 -218 OFFCURVE",
"420 -242 OFFCURVE",
"420 -266 CURVE SMOOTH",
"420 -355 OFFCURVE",
"499 -420 OFFCURVE",
"664 -420 CURVE SMOOTH",
"716 -420 OFFCURVE",
"765 -417 OFFCURVE",
"811 -411 CURVE SMOOTH",
"834 -408 OFFCURVE",
"846 -393 OFFCURVE",
"845 -368 CURVE SMOOTH",
"842 -253 LINE SMOOTH",
"841 -227 OFFCURVE",
"828 -216 OFFCURVE",
"802 -219 CURVE SMOOTH",
"775 -222 OFFCURVE",
"746 -224 OFFCURVE",
"717 -224 CURVE SMOOTH",
"681 -224 OFFCURVE",
"656 -217 OFFCURVE",
"656 -189 CURVE SMOOTH",
"656 -150 OFFCURVE",
"734 -103 OFFCURVE",
"882 -11 CURVE",
"911 6 OFFCURVE",
"929 30 OFFCURVE",
"936 60 CURVE SMOOTH",
"1151 990 LINE SMOOTH",
"1160 1030 OFFCURVE",
"1145 1050 OFFCURVE",
"1104 1050 CURVE SMOOTH",
"951 1050 LINE SMOOTH",
"925 1050 OFFCURVE",
"903 1030 OFFCURVE",
"884 990 CURVE SMOOTH",
"867 954 LINE",
"863 954 LINE",
"831 1001 OFFCURVE",
"795 1032 OFFCURVE",
"756 1047 CURVE SMOOTH",
"717 1062 OFFCURVE",
"682 1070 OFFCURVE",
"652 1070 CURVE SMOOTH",
"502 1070 OFFCURVE",
"366 1002 OFFCURVE",
"244 865 CURVE SMOOTH",
"123 728 OFFCURVE",
"62 566 OFFCURVE",
"62 379 CURVE SMOOTH"
);
},
{
closed = 1;
nodes = (
"358 492 OFFCURVE",
"386 611 OFFCURVE",
"441 716 CURVE SMOOTH",
"496 821 OFFCURVE",
"565 874 OFFCURVE",
"648 874 CURVE SMOOTH",
"763 874 OFFCURVE",
"800 801 OFFCURVE",
"800 680 CURVE",
"763 522 LINE SMOOTH",
"708 291 OFFCURVE",
"598 176 OFFCURVE",
"483 176 CURVE SMOOTH",
"451 176 OFFCURVE",
"422 192 OFFCURVE",
"396 225 CURVE SMOOTH",
"371 258 OFFCURVE",
"358 303 OFFCURVE",
"358 360 CURVE SMOOTH"
);
}
);
width = 1178;
}
);
unicode = 0105;
},
{
glyphname = ae;
lastChange = "2016-10-15 02:20:23 +0000";
layers = (
{
layerId = UUID0;
paths = (
{
closed = 1;
nodes = (
"35 147 OFFCURVE",
"58 89 OFFCURVE",
"105 46 CURVE SMOOTH",
"152 4 OFFCURVE",
"238 -17 OFFCURVE",
"363 -17 CURVE SMOOTH",
"427 -17 OFFCURVE",
"496 1 OFFCURVE",
"569 36 CURVE SMOOTH",
"642 72 OFFCURVE",
"710 121 OFFCURVE",
"773 182 CURVE",
"775 182 LINE",
"834 45 OFFCURVE",
"957 -17 OFFCURVE",
"1113 -17 CURVE SMOOTH",
"1237 -17 OFFCURVE",
"1329 4 OFFCURVE",
"1389 45 CURVE SMOOTH",
"1449 87 OFFCURVE",
"1489 121 OFFCURVE",
"1510 146 CURVE SMOOTH",
"1529 169 OFFCURVE",
"1531 188 OFFCURVE",
"1516 202 CURVE SMOOTH",
"1460 253 LINE SMOOTH",
"1443 269 OFFCURVE",
"1422 262 OFFCURVE",
"1397 232 CURVE SMOOTH",
"1382 213 OFFCURVE",
"1351 189 OFFCURVE",
"1304 159 CURVE SMOOTH",
"1258 129 OFFCURVE",
"1202 114 OFFCURVE",
"1137 114 CURVE SMOOTH",
"1058 114 OFFCURVE",
"1001 138 OFFCURVE",
"964 185 CURVE SMOOTH",
"927 232 OFFCURVE",
"909 290 OFFCURVE",
"909 359 CURVE SMOOTH",
"909 360 OFFCURVE",
"911 374 OFFCURVE",
"915 399 CURVE",
"1139 445 LINE SMOOTH",
"1302 478 OFFCURVE",
"1422 518 OFFCURVE",
"1500 565 CURVE SMOOTH",
"1579 612 OFFCURVE",
"1618 683 OFFCURVE",
"1618 778 CURVE SMOOTH",
"1618 847 OFFCURVE",
"1589 913 OFFCURVE",
"1532 974 CURVE SMOOTH",
"1475 1036 OFFCURVE",
"1395 1067 OFFCURVE",
"1292 1067 CURVE SMOOTH",
"1197 1067 OFFCURVE",
"1119 1050 OFFCURVE",
"1056 1015 CURVE SMOOTH",
"993 980 OFFCURVE",
"949 950 OFFCURVE",
"923 923 CURVE",
"921 923 LINE",
"872 1031 OFFCURVE",
"771 1067 OFFCURVE",
"630 1067 CURVE SMOOTH",
"574 1067 OFFCURVE",
"510 1056 OFFCURVE",
"438 1035 CURVE SMOOTH",
"366 1014 OFFCURVE",
"301 980 OFFCURVE",
"242 932 CURVE SMOOTH",
"216 911 OFFCURVE",
"211 891 OFFCURVE",
"227 872 CURVE SMOOTH",
"274 817 LINE SMOOTH",
"289 800 OFFCURVE",
"306 801 OFFCURVE",
"325 820 CURVE SMOOTH",
"372 865 OFFCURVE",
"417 896 OFFCURVE",
"459 912 CURVE SMOOTH",
"501 929 OFFCURVE",
"553 937 OFFCURVE",
"614 937 CURVE SMOOTH",
"695 937 OFFCURVE",
"747 916 OFFCURVE",
"770 874 CURVE",
"794 833 OFFCURVE",
"798 777 OFFCURVE",
"781 706 CURVE SMOOTH",
"765 638 LINE",
"499 625 OFFCURVE",
"311 582 OFFCURVE",
"200 510 CURVE SMOOTH",
"90 438 OFFCURVE",
"35 341 OFFCURVE",
"35 220 CURVE SMOOTH"
);
},
{
closed = 1;
nodes = (
"217 306 OFFCURVE",
"250 363 OFFCURVE",
"315 412 CURVE SMOOTH",
"381 461 OFFCURVE",
"522 493 OFFCURVE",
"739 507 CURVE",
"719 421 OFFCURVE",
"717 345 OFFCURVE",
"734 278 CURVE",
"637 175 OFFCURVE",
"511 118 OFFCURVE",
"378 118 CURVE SMOOTH",
"261 118 OFFCURVE",
"217 159 OFFCURVE",
"217 242 CURVE SMOOTH"
);
},
{
closed = 1;
nodes = (
"920 538 LINE",
"949 681 OFFCURVE",
"995 784 OFFCURVE",
"1058 845 CURVE SMOOTH",
"1121 906 OFFCURVE",
"1188 937 OFFCURVE",
"1259 937 CURVE SMOOTH",
"1384 937 OFFCURVE",
"1442 877 OFFCURVE",
"1442 786 CURVE SMOOTH",
"1442 729 OFFCURVE",
"1419 686 OFFCURVE",
"1372 657 CURVE SMOOTH",
"1326 629 OFFCURVE",
"1236 602 OFFCURVE",
"1103 575 CURVE SMOOTH"
);
}
);
width = 1698;
},
{
layerId = "05202388-ED6B-49B3-97C3-39168626F3FE";
paths = (
{
closed = 1;
nodes = (
"19 60 OFFCURVE",
"127 -20 OFFCURVE",
"314 -20 CURVE SMOOTH",
"491 -20 OFFCURVE",
"632 48 OFFCURVE",
"732 168 CURVE",
"734 168 LINE",
"771 100 OFFCURVE",
"826 52 OFFCURVE",
"901 23 CURVE SMOOTH",
"976 -6 OFFCURVE",
"1056 -20 OFFCURVE",
"1141 -20 CURVE SMOOTH",
"1326 -20 OFFCURVE",
"1468 19 OFFCURVE",
"1555 99 CURVE SMOOTH",
"1584 126 OFFCURVE",
"1587 156 OFFCURVE",
"1563 187 CURVE SMOOTH",
"1504 265 LINE SMOOTH",
"1485 291 OFFCURVE",
"1458 291 OFFCURVE",
"1423 265 CURVE SMOOTH",
"1393 242 OFFCURVE",
"1353 222 OFFCURVE",
"1302 203 CURVE SMOOTH",
"1251 185 OFFCURVE",
"1204 176 OFFCURVE",
"1159 176 CURVE SMOOTH",
"1084 176 OFFCURVE",
"1033 195 OFFCURVE",
"1007 233 CURVE SMOOTH",
"981 271 OFFCURVE",
"968 311 OFFCURVE",
"968 354 CURVE SMOOTH",
"968 364 OFFCURVE",
"968 373 OFFCURVE",
"969 382 CURVE",
"1173 418 LINE SMOOTH",
"1331 446 OFFCURVE",
"1459 480 OFFCURVE",
"1556 520 CURVE SMOOTH",
"1656 561 OFFCURVE",
"1706 646 OFFCURVE",
"1706 774 CURVE SMOOTH",
"1706 851 OFFCURVE",
"1669 920 OFFCURVE",
"1596 980 CURVE SMOOTH",
"1523 1040 OFFCURVE",
"1420 1070 OFFCURVE",
"1285 1070 CURVE SMOOTH",
"1208 1070 OFFCURVE",
"1140 1058 OFFCURVE",
"1081 1034 CURVE SMOOTH",
"1022 1011 OFFCURVE",
"962 970 OFFCURVE",
"899 912 CURVE",
"896 912 LINE",
"852 1012 OFFCURVE",
"754 1070 OFFCURVE",
"642 1070 CURVE SMOOTH",
"538 1070 OFFCURVE",
"453 1058 OFFCURVE",
"387 1033 CURVE SMOOTH",
"321 1008 OFFCURVE",
"269 982 OFFCURVE",
"230 954 CURVE SMOOTH",
"199 932 OFFCURVE",
"194 906 OFFCURVE",
"215 876 CURVE SMOOTH",
"278 785 LINE SMOOTH",
"293 762 OFFCURVE",
"319 764 OFFCURVE",
"354 789 CURVE SMOOTH",
"382 809 OFFCURVE",
"419 828 OFFCURVE",
"464 846 CURVE SMOOTH",
"510 865 OFFCURVE",
"554 874 OFFCURVE",
"597 874 CURVE SMOOTH",
"649 874 OFFCURVE",
"688 858 OFFCURVE",
"713 826 CURVE SMOOTH",
"738 794 OFFCURVE",
"746 754 OFFCURVE",
"735 706 CURVE SMOOTH",
"726 666 LINE",
"537 658 OFFCURVE",
"372 617 OFFCURVE",
"231 544 CURVE SMOOTH",
"90 471 OFFCURVE",
"19 365 OFFCURVE",
"19 228 CURVE SMOOTH"
);
},
{
closed = 1;
nodes = (
"315 305 OFFCURVE",
"347 352 OFFCURVE",
"410 397 CURVE SMOOTH",
"474 442 OFFCURVE",
"566 468 OFFCURVE",
"687 473 CURVE",
"675 407 OFFCURVE",
"673 349 OFFCURVE",
"682 298 CURVE",
"582 221 OFFCURVE",
"480 176 OFFCURVE",
"415 176 CURVE SMOOTH",
"348 176 OFFCURVE",
"315 196 OFFCURVE",
"315 256 CURVE SMOOTH"
);
},
{
closed = 1;
nodes = (
"982 570 LINE",
"1005 655 OFFCURVE",
"1042 727 OFFCURVE",
"1095 786 CURVE SMOOTH",
"1148 845 OFFCURVE",
"1213 874 OFFCURVE",
"1288 874 CURVE SMOOTH",
"1337 874 OFFCURVE",
"1379 863 OFFCURVE",
"1415 840 CURVE SMOOTH",
"1451 817 OFFCURVE",
"1469 788 OFFCURVE",
"1469 751 CURVE SMOOTH",
"1469 710 OFFCURVE",
"1440 679 OFFCURVE",
"1383 656 CURVE SMOOTH",
"1326 634 OFFCURVE",
"1263 617 OFFCURVE",
"1196 606 CURVE SMOOTH"
);
}
);
width = 1752;
}
);
unicode = 00E6;
},
{
glyphname = b;
lastChange = "2016-10-15 02:20:23 +0000";
layers = (
{
layerId = UUID0;
paths = (
{
closed = 1;
nodes = (
"151 0 LINE",
"174 0 OFFCURVE",
"191 15 OFFCURVE",
"200 45 CURVE SMOOTH",
"223 118 LINE",
"225 118 LINE",
"259 73 OFFCURVE",
"297 39 OFFCURVE",
"338 16 CURVE SMOOTH",
"379 -6 OFFCURVE",
"437 -17 OFFCURVE",
"511 -17 CURVE SMOOTH",
"656 -17 OFFCURVE",
"783 55 OFFCURVE",
"890 199 CURVE SMOOTH",
"997 344 OFFCURVE",
"1051 501 OFFCURVE",
"1051 671 CURVE SMOOTH",
"1051 780 OFFCURVE",
"1026 873 OFFCURVE",
"976 950 CURVE",
"927 1028 OFFCURVE",
"839 1067 OFFCURVE",
"712 1067 CURVE SMOOTH",
"659 1067 OFFCURVE",
"601 1050 OFFCURVE",
"539 1015 CURVE SMOOTH",
"477 981 OFFCURVE",
"431 938 OFFCURVE",
"402 885 CURVE",
"400 885 LINE",
"416 946 LINE",
"528 1431 LINE SMOOTH",
"535 1461 OFFCURVE",
"523 1476 OFFCURVE",
"493 1476 CURVE SMOOTH",
"407 1476 LINE SMOOTH",
"377 1476 OFFCURVE",
"359 1461 OFFCURVE",
"352 1431 CURVE SMOOTH",
"32 45 LINE SMOOTH",
"25 15 OFFCURVE",
"37 0 OFFCURVE",
"67 0 CURVE SMOOTH"
);
},
{
closed = 1;
nodes = (
"330 570 LINE",
"351 658 OFFCURVE",
"395 741 OFFCURVE",
"462 819 CURVE SMOOTH",
"530 898 OFFCURVE",
"597 937 OFFCURVE",
"662 937 CURVE SMOOTH",
"737 937 OFFCURVE",
"790 911 OFFCURVE",
"820 859 CURVE SMOOTH",
"850 808 OFFCURVE",
"865 747 OFFCURVE",
"865 678 CURVE SMOOTH",
"865 527 OFFCURVE",
"829 395 OFFCURVE",
"757 282 CURVE SMOOTH",
"685 169 OFFCURVE",
"598 113 OFFCURVE",
"497 113 CURVE SMOOTH",
"422 113 OFFCURVE",
"367 126 OFFCURVE",
"330 151 CURVE SMOOTH",
"293 177 OFFCURVE",
"272 223 OFFCURVE",
"265 290 CURVE"
);
}
);
width = 1119;
},
{
layerId = "05202388-ED6B-49B3-97C3-39168626F3FE";
paths = (
{
closed = 1;
nodes = (
"234 0 LINE",
"266 0 OFFCURVE",
"289 20 OFFCURVE",
"302 60 CURVE SMOOTH",
"314 96 LINE",
"318 96 LINE",
"351 44 OFFCURVE",
"394 12 OFFCURVE",
"446 -1 CURVE SMOOTH",
"498 -14 OFFCURVE",
"548 -20 OFFCURVE",
"596 -20 CURVE SMOOTH",
"737 -20 OFFCURVE",
"861 48 OFFCURVE",
"968 184 CURVE SMOOTH",
"1075 320 OFFCURVE",
"1129 476 OFFCURVE",
"1129 651 CURVE SMOOTH",
"1129 757 OFFCURVE",
"1101 853 OFFCURVE",
"1046 940 CURVE SMOOTH",
"991 1027 OFFCURVE",
"898 1070 OFFCURVE",
"766 1070 CURVE SMOOTH",
"717 1070 OFFCURVE",
"674 1058 OFFCURVE",
"636 1034 CURVE SMOOTH",
"598 1010 OFFCURVE",
"555 969 OFFCURVE",
"507 912 CURVE",
"503 912 LINE",
"512 938 OFFCURVE",
"520 965 OFFCURVE",
"526 992 CURVE SMOOTH",
"623 1416 LINE SMOOTH",
"632 1456 OFFCURVE",
"617 1476 OFFCURVE",
"577 1476 CURVE SMOOTH",
"417 1476 LINE SMOOTH",
"377 1476 OFFCURVE",
"352 1456 OFFCURVE",
"343 1416 CURVE SMOOTH",
"30 60 LINE SMOOTH",
"21 20 OFFCURVE",
"36 0 OFFCURVE",
"76 0 CURVE SMOOTH"
);
},
{
closed = 1;
nodes = (
"418 528 LINE",
"444 640 OFFCURVE",
"484 726 OFFCURVE",
"537 785 CURVE SMOOTH",
"591 844 OFFCURVE",
"641 874 OFFCURVE",
"688 874 CURVE SMOOTH",
"779 874 OFFCURVE",
"833 809 OFFCURVE",
"833 670 CURVE SMOOTH",
"833 543 OFFCURVE",
"808 429 OFFCURVE",
"758 328 CURVE SMOOTH",
"708 227 OFFCURVE",
"638 176 OFFCURVE",
"548 176 CURVE SMOOTH",
"481 176 OFFCURVE",
"437 192 OFFCURVE",
"414 225 CURVE SMOOTH",
"392 258 OFFCURVE",
"381 306 OFFCURVE",
"381 370 CURVE"
);
}
);
width = 1192;
}
);
unicode = 0062;
},
{
glyphname = c;
lastChange = "2016-10-15 02:20:23 +0000";
layers = (
{
layerId = UUID0;
paths = (
{
closed = 1;
nodes = (
"68 301 OFFCURVE",
"99 205 OFFCURVE",
"161 116 CURVE SMOOTH",
"223 27 OFFCURVE",
"332 -17 OFFCURVE",
"488 -17 CURVE SMOOTH",
"603 -17 OFFCURVE",
"693 8 OFFCURVE",
"758 59 CURVE SMOOTH",
"823 110 OFFCURVE",
"866 148 OFFCURVE",
"885 175 CURVE SMOOTH",
"901 198 OFFCURVE",
"899 216 OFFCURVE",
"880 230 CURVE SMOOTH",
"817 276 LINE SMOOTH",
"797 290 OFFCURVE",
"779 285 OFFCURVE",
"764 262 CURVE SMOOTH",
"745 234 OFFCURVE",
"714 202 OFFCURVE",
"670 166 CURVE SMOOTH",
"626 131 OFFCURVE",
"570 113 OFFCURVE",
"501 113 CURVE SMOOTH",
"414 113 OFFCURVE",
"351 138 OFFCURVE",
"312 189 CURVE SMOOTH",
"273 240 OFFCURVE",
"254 306 OFFCURVE",
"254 387 CURVE SMOOTH",
"254 567 OFFCURVE",
"293 704 OFFCURVE",
"372 797 CURVE SMOOTH",
"451 890 OFFCURVE",
"543 937 OFFCURVE",
"647 937 CURVE SMOOTH",
"712 937 OFFCURVE",
"761 923 OFFCURVE",
"794 896 CURVE SMOOTH",
"827 869 OFFCURVE",
"849 845 OFFCURVE",
"858 824 CURVE SMOOTH",
"871 795 OFFCURVE",
"888 787 OFFCURVE",
"911 799 CURVE SMOOTH",
"977 834 LINE SMOOTH",
"997 845 OFFCURVE",
"1002 862 OFFCURVE",
"991 886 CURVE SMOOTH",
"970 931 OFFCURVE",
"937 973 OFFCURVE",
"891 1010 CURVE SMOOTH",
"845 1048 OFFCURVE",
"768 1067 OFFCURVE",
"660 1067 CURVE SMOOTH",
"483 1067 OFFCURVE",
"340 1000 OFFCURVE",
"231 867 CURVE SMOOTH",
"122 734 OFFCURVE",
"68 579 OFFCURVE",
"68 402 CURVE SMOOTH"
);
}
);
width = 1026;
},
{
layerId = "05202388-ED6B-49B3-97C3-39168626F3FE";
paths = (
{
closed = 1;
nodes = (
"58 295 OFFCURVE",
"91 194 OFFCURVE",
"158 108 CURVE SMOOTH",
"225 23 OFFCURVE",
"345 -20 OFFCURVE",
"518 -20 CURVE SMOOTH",
"629 -20 OFFCURVE",
"717 -1 OFFCURVE",
"782 36 CURVE SMOOTH",
"848 74 OFFCURVE",
"894 110 OFFCURVE",
"920 143 CURVE SMOOTH",
"947 178 OFFCURVE",
"948 207 OFFCURVE",
"922 231 CURVE SMOOTH",
"841 306 LINE SMOOTH",
"812 333 OFFCURVE",
"785 332 OFFCURVE",
"760 301 CURVE SMOOTH",
"729 262 OFFCURVE",
"696 231 OFFCURVE",
"663 209 CURVE SMOOTH",
"630 187 OFFCURVE",
"588 176 OFFCURVE",
"536 176 CURVE SMOOTH",
"424 176 OFFCURVE",
"354 247 OFFCURVE",
"354 387 CURVE SMOOTH",
"354 544 OFFCURVE",
"387 664 OFFCURVE",
"452 748 CURVE SMOOTH",
"517 832 OFFCURVE",
"588 874 OFFCURVE",
"663 874 CURVE SMOOTH",
"710 874 OFFCURVE",
"745 865 OFFCURVE",
"769 847 CURVE SMOOTH",
"793 830 OFFCURVE",
"812 811 OFFCURVE",
"826 790 CURVE SMOOTH",
"851 753 OFFCURVE",
"877 743 OFFCURVE",
"903 760 CURVE SMOOTH",
"1012 833 LINE SMOOTH",
"1043 854 OFFCURVE",
"1048 878 OFFCURVE",
"1029 906 CURVE SMOOTH",
"995 955 OFFCURVE",
"952 995 OFFCURVE",
"900 1025 CURVE SMOOTH",
"848 1055 OFFCURVE",
"772 1070 OFFCURVE",
"673 1070 CURVE SMOOTH",
"487 1070 OFFCURVE",
"338 999 OFFCURVE",
"226 857 CURVE SMOOTH",
"114 715 OFFCURVE",
"58 567 OFFCURVE",
"58 412 CURVE SMOOTH"
);
}
);
width = 1086;
}
);
unicode = 0063;
},
{
glyphname = d;
lastChange = "2016-10-15 02:20:23 +0000";
layers = (
{
layerId = UUID0;
paths = (
{
closed = 1;
nodes = (
"70 270 OFFCURVE",
"95 177 OFFCURVE",
"144 99 CURVE",
"194 22 OFFCURVE",
"282 -17 OFFCURVE",
"409 -17 CURVE SMOOTH",
"462 -17 OFFCURVE",
"520 0 OFFCURVE",
"582 34 CURVE SMOOTH",
"644 69 OFFCURVE",
"690 112 OFFCURVE",
"719 165 CURVE",
"721 165 LINE",
"699 45 LINE SMOOTH",
"694 15 OFFCURVE",
"703 0 OFFCURVE",
"728 0 CURVE SMOOTH",
"812 0 LINE SMOOTH",
"842 0 OFFCURVE",
"860 15 OFFCURVE",
"867 45 CURVE SMOOTH",
"1187 1431 LINE SMOOTH",
"1194 1461 OFFCURVE",
"1182 1476 OFFCURVE",
"1152 1476 CURVE SMOOTH",
"1066 1476 LINE SMOOTH",
"1036 1476 OFFCURVE",
"1018 1461 OFFCURVE",
"1011 1431 CURVE SMOOTH",
"910 993 LINE SMOOTH",
"904 968 OFFCURVE",
"900 948 OFFCURVE",
"898 932 CURVE",
"896 932 LINE",
"862 977 OFFCURVE",
"824 1011 OFFCURVE",
"783 1033 CURVE SMOOTH",
"742 1056 OFFCURVE",
"684 1067 OFFCURVE",
"610 1067 CURVE SMOOTH",
"465 1067 OFFCURVE",
"338 995 OFFCURVE",
"231 850 CURVE SMOOTH",
"124 706 OFFCURVE",
"70 549 OFFCURVE",
"70 379 CURVE SMOOTH"
);
},
{
closed = 1;
nodes = (
"256 523 OFFCURVE",
"292 654 OFFCURVE",
"364 767 CURVE SMOOTH",
"436 880 OFFCURVE",
"523 937 OFFCURVE",
"624 937 CURVE SMOOTH",
"699 937 OFFCURVE",
"754 924 OFFCURVE",
"791 898 CURVE SMOOTH",
"828 873 OFFCURVE",
"849 827 OFFCURVE",
"856 760 CURVE",
"791 480 LINE SMOOTH",
"770 392 OFFCURVE",
"726 309 OFFCURVE",
"658 230 CURVE SMOOTH",
"591 152 OFFCURVE",
"524 113 OFFCURVE",
"459 113 CURVE SMOOTH",
"384 113 OFFCURVE",
"331 139 OFFCURVE",
"301 190 CURVE SMOOTH",
"271 242 OFFCURVE",
"256 303 OFFCURVE",
"256 372 CURVE SMOOTH"
);
}
);
width = 1119;
},
{
layerId = "05202388-ED6B-49B3-97C3-39168626F3FE";
paths = (
{
closed = 1;
nodes = (
"66 293 OFFCURVE",
"93 197 OFFCURVE",
"148 110 CURVE SMOOTH",
"203 23 OFFCURVE",
"297 -20 OFFCURVE",
"429 -20 CURVE SMOOTH",
"478 -20 OFFCURVE",
"521 -8 OFFCURVE",
"559 16 CURVE SMOOTH",
"597 40 OFFCURVE",
"640 81 OFFCURVE",
"688 138 CURVE",
"692 138 LINE",
"678 60 LINE SMOOTH",
"671 20 OFFCURVE",
"684 0 OFFCURVE",
"718 0 CURVE SMOOTH",
"876 0 LINE SMOOTH",
"916 0 OFFCURVE",
"941 20 OFFCURVE",
"950 60 CURVE SMOOTH",
"1263 1416 LINE SMOOTH",
"1272 1456 OFFCURVE",
"1257 1476 OFFCURVE",
"1217 1476 CURVE SMOOTH",
"1057 1476 LINE SMOOTH",
"1017 1476 OFFCURVE",
"992 1456 OFFCURVE",
"983 1416 CURVE SMOOTH",
"896 1034 LINE SMOOTH",
"889 1001 OFFCURVE",
"884 975 OFFCURVE",
"881 954 CURVE",
"877 954 LINE",
"844 1006 OFFCURVE",
"801 1038 OFFCURVE",
"749 1051 CURVE SMOOTH",
"697 1064 OFFCURVE",
"647 1070 OFFCURVE",
"599 1070 CURVE SMOOTH",
"458 1070 OFFCURVE",
"333 1002 OFFCURVE",
"226 866 CURVE SMOOTH",
"119 730 OFFCURVE",
"66 574 OFFCURVE",
"66 399 CURVE SMOOTH"
);
},
{
closed = 1;
nodes = (
"362 507 OFFCURVE",
"387 621 OFFCURVE",
"437 722 CURVE SMOOTH",
"487 823 OFFCURVE",
"557 874 OFFCURVE",
"647 874 CURVE SMOOTH",
"714 874 OFFCURVE",
"758 858 OFFCURVE",
"780 825 CURVE SMOOTH",
"803 792 OFFCURVE",
"814 744 OFFCURVE",
"814 680 CURVE",
"777 522 LINE SMOOTH",
"751 410 OFFCURVE",
"711 324 OFFCURVE",
"657 265 CURVE SMOOTH",
"604 206 OFFCURVE",
"554 176 OFFCURVE",
"507 176 CURVE SMOOTH",
"416 176 OFFCURVE",
"362 241 OFFCURVE",
"362 380 CURVE SMOOTH"
);
}
);
width = 1192;
}
);
unicode = 0064;
},
{
glyphname = eth;
lastChange = "2016-10-15 02:20:23 +0000";
layers = (
{
layerId = UUID0;
paths = (
{
closed = 1;
nodes = (
"68 278 OFFCURVE",
"102 177 OFFCURVE",
"170 99 CURVE",
"239 22 OFFCURVE",
"345 -17 OFFCURVE",
"488 -17 CURVE SMOOTH",
"665 -17 OFFCURVE",
"811 51 OFFCURVE",
"927 187 CURVE SMOOTH",
"1044 324 OFFCURVE",
"1102 512 OFFCURVE",
"1102 752 CURVE SMOOTH",
"1102 889 OFFCURVE",
"1079 1003 OFFCURVE",
"1034 1095 CURVE SMOOTH",
"989 1188 OFFCURVE",
"949 1255 OFFCURVE",
"912 1298 CURVE",
"1020 1342 LINE SMOOTH",
"1048 1353 OFFCURVE",
"1058 1370 OFFCURVE",
"1049 1391 CURVE SMOOTH",
"1030 1438 LINE SMOOTH",
"1021 1460 OFFCURVE",
"1003 1465 OFFCURVE",
"975 1454 CURVE SMOOTH",
"816 1390 LINE",
"773 1425 OFFCURVE",
"723 1456 OFFCURVE",
"668 1484 CURVE SMOOTH",
"641 1497 OFFCURVE",
"621 1494 OFFCURVE",
"606 1474 CURVE SMOOTH",
"570 1425 LINE SMOOTH",
"554 1403 OFFCURVE",
"561 1385 OFFCURVE",
"590 1370 CURVE SMOOTH",
"616 1357 OFFCURVE",
"641 1343 OFFCURVE",
"664 1328 CURVE",
"552 1282 LINE SMOOTH",
"524 1271 OFFCURVE",
"514 1254 OFFCURVE",
"523 1233 CURVE SMOOTH",
"542 1186 LINE SMOOTH",
"551 1164 OFFCURVE",
"569 1159 OFFCURVE",
"597 1170 CURVE SMOOTH",
"771 1241 LINE",
"796 1214 OFFCURVE",
"830 1170 OFFCURVE",
"871 1109 CURVE SMOOTH",
"912 1048 OFFCURVE",
"937 979 OFFCURVE",
"946 903 CURVE",
"942 903 LINE",
"882 1015 OFFCURVE",
"779 1050 OFFCURVE",
"650 1050 CURVE SMOOTH",
"487 1050 OFFCURVE",
"349 984 OFFCURVE",
"236 852 CURVE SMOOTH",
"124 720 OFFCURVE",
"68 570 OFFCURVE",
"68 402 CURVE SMOOTH"
);
},
{
closed = 1;
nodes = (
"254 559 OFFCURVE",
"295 691 OFFCURVE",
"377 782 CURVE SMOOTH",
"460 874 OFFCURVE",
"553 920 OFFCURVE",
"657 920 CURVE SMOOTH",
"744 920 OFFCURVE",
"807 893 OFFCURVE",
"848 838 CURVE SMOOTH",
"889 784 OFFCURVE",
"910 721 OFFCURVE",
"910 650 CURVE SMOOTH",
"910 483 OFFCURVE",
"866 351 OFFCURVE",
"779 256 CURVE SMOOTH",
"692 161 OFFCURVE",
"599 113 OFFCURVE",
"501 113 CURVE SMOOTH",
"334 113 OFFCURVE",
"254 195 OFFCURVE",
"254 387 CURVE SMOOTH"
);
}
);
width = 1153;
},
{
layerId = "05202388-ED6B-49B3-97C3-39168626F3FE";
paths = (
{
closed = 1;
nodes = (
"58 285 OFFCURVE",
"94 189 OFFCURVE",
"167 105 CURVE SMOOTH",
"240 22 OFFCURVE",
"357 -20 OFFCURVE",
"518 -20 CURVE SMOOTH",
"717 -20 OFFCURVE",
"872 48 OFFCURVE",
"983 185 CURVE SMOOTH",
"1095 322 OFFCURVE",
"1151 483 OFFCURVE",
"1151 669 CURVE SMOOTH",
"1151 843 OFFCURVE",
"1120 979 OFFCURVE",
"1058 1077 CURVE SMOOTH",
"997 1175 OFFCURVE",
"943 1246 OFFCURVE",
"896 1291 CURVE",
"931 1307 LINE SMOOTH",
"968 1323 OFFCURVE",
"979 1347 OFFCURVE",
"964 1378 CURVE SMOOTH",
"932 1446 LINE SMOOTH",
"919 1475 OFFCURVE",
"894 1482 OFFCURVE",
"858 1465 CURVE SMOOTH",
"741 1411 LINE",
"696 1440 OFFCURVE",
"648 1466 OFFCURVE",
"596 1490 CURVE SMOOTH",
"561 1506 OFFCURVE",
"534 1501 OFFCURVE",
"515 1474 CURVE SMOOTH",
"458 1396 LINE SMOOTH",
"436 1366 OFFCURVE",
"446 1340 OFFCURVE",
"489 1317 CURVE SMOOTH",
"512 1305 LINE",
"467 1284 LINE SMOOTH",
"430 1268 OFFCURVE",
"419 1244 OFFCURVE",
"434 1213 CURVE SMOOTH",
"466 1145 LINE SMOOTH",
"479 1116 OFFCURVE",
"504 1109 OFFCURVE",
"540 1126 CURVE SMOOTH",
"681 1191 LINE",
"710 1169 OFFCURVE",
"754 1131 OFFCURVE",
"813 1077 CURVE SMOOTH",
"873 1023 OFFCURVE",
"912 952 OFFCURVE",
"930 864 CURVE",
"926 864 LINE",
"899 916 OFFCURVE",
"855 955 OFFCURVE",
"795 980 CURVE SMOOTH",
"736 1005 OFFCURVE",
"681 1018 OFFCURVE",
"632 1018 CURVE SMOOTH",
"445 1018 OFFCURVE",
"302 948 OFFCURVE",
"204 808 CURVE SMOOTH",
"107 669 OFFCURVE",
"58 531 OFFCURVE",
"58 394 CURVE SMOOTH"
);
},
{
closed = 1;
nodes = (
"354 509 OFFCURVE",
"384 612 OFFCURVE",
"445 696 CURVE SMOOTH",
"506 780 OFFCURVE",
"579 822 OFFCURVE",
"662 822 CURVE SMOOTH",
"709 822 OFFCURVE",
"752 808 OFFCURVE",
"793 781 CURVE SMOOTH",
"834 754 OFFCURVE",
"854 710 OFFCURVE",
"854 647 CURVE SMOOTH",
"854 508 OFFCURVE",
"822 394 OFFCURVE",
"757 307 CURVE SMOOTH",
"693 220 OFFCURVE",
"619 176 OFFCURVE",
"536 176 CURVE SMOOTH",
"423 176 OFFCURVE",
"354 235 OFFCURVE",
"354 387 CURVE SMOOTH"
);
}
);
width = 1206;
}
);
unicode = 00F0;
},
{
glyphname = dcroat;
lastChange = "2016-10-15 02:20:23 +0000";
layers = (
{
layerId = UUID0;
paths = (
{
closed = 1;
nodes = (
"70 270 OFFCURVE",
"95 177 OFFCURVE",
"144 99 CURVE",
"194 22 OFFCURVE",
"282 -17 OFFCURVE",
"409 -17 CURVE SMOOTH",
"462 -17 OFFCURVE",
"520 0 OFFCURVE",
"582 34 CURVE SMOOTH",
"644 69 OFFCURVE",
"690 112 OFFCURVE",
"719 165 CURVE",
"721 165 LINE",
"699 45 LINE SMOOTH",
"694 15 OFFCURVE",
"703 0 OFFCURVE",
"728 0 CURVE SMOOTH",
"812 0 LINE SMOOTH",
"842 0 OFFCURVE",
"860 15 OFFCURVE",
"867 45 CURVE SMOOTH",
"1136 1208 LINE",
"1250 1208 LINE SMOOTH",
"1280 1208 OFFCURVE",
"1298 1220 OFFCURVE",
"1303 1243 CURVE SMOOTH",
"1317 1305 LINE SMOOTH",
"1322 1328 OFFCURVE",
"1310 1340 OFFCURVE",
"1280 1340 CURVE SMOOTH",
"1166 1340 LINE",
"1187 1431 LINE SMOOTH",
"1194 1461 OFFCURVE",
"1182 1476 OFFCURVE",
"1152 1476 CURVE SMOOTH",
"1066 1476 LINE SMOOTH",
"1036 1476 OFFCURVE",
"1018 1461 OFFCURVE",
"1011 1431 CURVE SMOOTH",
"990 1340 LINE",
"682 1340 LINE SMOOTH",
"652 1340 OFFCURVE",
"634 1328 OFFCURVE",
"629 1305 CURVE SMOOTH",
"615 1243 LINE SMOOTH",
"610 1220 OFFCURVE",
"622 1208 OFFCURVE",
"652 1208 CURVE SMOOTH",
"960 1208 LINE",
"910 993 LINE SMOOTH",
"904 968 OFFCURVE",
"900 948 OFFCURVE",
"898 932 CURVE",
"896 932 LINE",
"862 977 OFFCURVE",
"824 1011 OFFCURVE",
"783 1033 CURVE SMOOTH",
"742 1056 OFFCURVE",
"684 1067 OFFCURVE",
"610 1067 CURVE SMOOTH",
"465 1067 OFFCURVE",
"338 995 OFFCURVE",
"231 850 CURVE SMOOTH",
"124 706 OFFCURVE",
"70 549 OFFCURVE",
"70 379 CURVE SMOOTH"
);
},
{
closed = 1;
nodes = (
"256 523 OFFCURVE",
"292 654 OFFCURVE",
"364 767 CURVE SMOOTH",
"436 880 OFFCURVE",
"523 937 OFFCURVE",
"624 937 CURVE SMOOTH",
"699 937 OFFCURVE",
"754 924 OFFCURVE",
"791 898 CURVE SMOOTH",
"828 873 OFFCURVE",
"849 827 OFFCURVE",
"856 760 CURVE",
"791 480 LINE SMOOTH",
"770 392 OFFCURVE",
"726 309 OFFCURVE",
"658 230 CURVE SMOOTH",
"591 152 OFFCURVE",
"524 113 OFFCURVE",
"459 113 CURVE SMOOTH",
"384 113 OFFCURVE",
"331 139 OFFCURVE",
"301 190 CURVE SMOOTH",
"271 242 OFFCURVE",
"256 303 OFFCURVE",
"256 372 CURVE SMOOTH"
);
}
);
width = 1156;
},
{
layerId = "05202388-ED6B-49B3-97C3-39168626F3FE";
paths = (
{
closed = 1;
nodes = (
"362 507 OFFCURVE",
"387 621 OFFCURVE",
"437 722 CURVE SMOOTH",
"487 823 OFFCURVE",
"557 874 OFFCURVE",
"647 874 CURVE SMOOTH",
"714 874 OFFCURVE",
"758 858 OFFCURVE",
"780 825 CURVE SMOOTH",
"803 792 OFFCURVE",
"814 744 OFFCURVE",
"814 680 CURVE",
"777 522 LINE SMOOTH",
"751 409 OFFCURVE",
"711 323 OFFCURVE",
"658 264 CURVE SMOOTH",
"605 205 OFFCURVE",
"554 176 OFFCURVE",
"507 176 CURVE SMOOTH",
"416 176 OFFCURVE",
"362 241 OFFCURVE",
"362 380 CURVE SMOOTH"
);
},
{
closed = 1;
nodes = (
"66 293 OFFCURVE",
"93 197 OFFCURVE",
"148 110 CURVE SMOOTH",
"203 23 OFFCURVE",
"297 -20 OFFCURVE",
"429 -20 CURVE SMOOTH",
"478 -20 OFFCURVE",
"521 -8 OFFCURVE",
"559 16 CURVE SMOOTH",
"597 40 OFFCURVE",
"640 81 OFFCURVE",
"688 138 CURVE",
"692 138 LINE",
"678 60 LINE SMOOTH",
"671 20 OFFCURVE",
"684 0 OFFCURVE",
"718 0 CURVE SMOOTH",
"876 0 LINE SMOOTH",
"916 0 OFFCURVE",
"941 20 OFFCURVE",
"950 60 CURVE SMOOTH",
"1209 1180 LINE",
"1313 1180 LINE SMOOTH",
"1353 1180 OFFCURVE",
"1377 1197 OFFCURVE",
"1385 1230 CURVE SMOOTH",
"1408 1330 LINE SMOOTH",
"1415 1363 OFFCURVE",
"1399 1380 OFFCURVE",
"1360 1380 CURVE SMOOTH",
"1255 1380 LINE",
"1263 1416 LINE SMOOTH",
"1272 1456 OFFCURVE",
"1257 1476 OFFCURVE",
"1217 1476 CURVE SMOOTH",
"1057 1476 LINE SMOOTH",
"1017 1476 OFFCURVE",
"992 1456 OFFCURVE",
"983 1416 CURVE SMOOTH",
"975 1380 LINE",
"704 1380 LINE SMOOTH",
"664 1380 OFFCURVE",
"640 1363 OFFCURVE",
"632 1330 CURVE SMOOTH",
"609 1230 LINE SMOOTH",
"602 1197 OFFCURVE",
"618 1180 OFFCURVE",
"657 1180 CURVE SMOOTH",
"929 1180 LINE",
"896 1034 LINE SMOOTH",
"889 1001 OFFCURVE",
"884 975 OFFCURVE",
"881 954 CURVE",
"877 954 LINE",
"844 1006 OFFCURVE",
"801 1038 OFFCURVE",
"749 1051 CURVE SMOOTH",
"697 1064 OFFCURVE",
"647 1070 OFFCURVE",
"599 1070 CURVE SMOOTH",
"458 1070 OFFCURVE",
"333 1002 OFFCURVE",
"226 866 CURVE SMOOTH",
"119 730 OFFCURVE",
"66 574 OFFCURVE",
"66 399 CURVE SMOOTH"
);
}
);
width = 1238;
}
);
unicode = 0111;
},
{
glyphname = e;
lastChange = "2016-10-15 02:20:23 +0000";
layers = (
{
layerId = UUID0;
paths = (
{
closed = 1;
nodes = (
"68 285 OFFCURVE",
"100 189 OFFCURVE",
"164 106 CURVE SMOOTH",
"228 24 OFFCURVE",
"331 -17 OFFCURVE",
"473 -17 CURVE SMOOTH",
"603 -17 OFFCURVE",
"702 4 OFFCURVE",
"769 46 CURVE SMOOTH",
"836 89 OFFCURVE",
"878 122 OFFCURVE",
"893 146 CURVE SMOOTH",
"910 172 OFFCURVE",
"912 191 OFFCURVE",
"899 202 CURVE SMOOTH",
"840 253 LINE SMOOTH",
"821 270 OFFCURVE",
"800 263 OFFCURVE",
"777 232 CURVE SMOOTH",
"760 209 OFFCURVE",
"729 184 OFFCURVE",
"682 156 CURVE SMOOTH",
"635 128 OFFCURVE",
"574 114 OFFCURVE",
"497 114 CURVE SMOOTH",
"407 114 OFFCURVE",
"344 138 OFFCURVE",
"308 187 CURVE SMOOTH",
"272 236 OFFCURVE",
"254 293 OFFCURVE",
"254 359 CURVE SMOOTH",
"254 360 OFFCURVE",
"256 374 OFFCURVE",
"260 399 CURVE",
"506 448 LINE SMOOTH",
"645 476 OFFCURVE",
"762 513 OFFCURVE",
"856 560 CURVE SMOOTH",
"951 607 OFFCURVE",
"998 679 OFFCURVE",
"998 778 CURVE SMOOTH",
"998 853 OFFCURVE",
"966 919 OFFCURVE",
"902 978 CURVE SMOOTH",
"839 1037 OFFCURVE",
"755 1067 OFFCURVE",
"652 1067 CURVE SMOOTH",
"471 1067 OFFCURVE",
"329 1005 OFFCURVE",
"224 881 CURVE SMOOTH",
"120 758 OFFCURVE",
"68 596 OFFCURVE",
"68 396 CURVE SMOOTH"
);
},
{
closed = 1;
nodes = (
"265 538 LINE",
"294 681 OFFCURVE",
"340 784 OFFCURVE",
"403 845 CURVE SMOOTH",
"466 906 OFFCURVE",
"538 937 OFFCURVE",
"619 937 CURVE SMOOTH",
"672 937 OFFCURVE",
"719 923 OFFCURVE",
"760 895 CURVE SMOOTH",
"801 868 OFFCURVE",
"822 831 OFFCURVE",
"822 786 CURVE SMOOTH",
"822 729 OFFCURVE",
"787 684 OFFCURVE",
"716 652 CURVE SMOOTH",
"645 621 OFFCURVE",
"563 596 OFFCURVE",
"470 578 CURVE SMOOTH"
);
}
);
width = 1078;
},
{
layerId = "05202388-ED6B-49B3-97C3-39168626F3FE";
paths = (
{
closed = 1;
nodes = (
"58 294 OFFCURVE",
"91 192 OFFCURVE",
"158 107 CURVE SMOOTH",
"225 22 OFFCURVE",
"350 -20 OFFCURVE",
"534 -20 CURVE SMOOTH",
"723 -20 OFFCURVE",
"864 19 OFFCURVE",
"951 99 CURVE SMOOTH",
"980 126 OFFCURVE",
"983 156 OFFCURVE",
"959 187 CURVE SMOOTH",
"900 265 LINE SMOOTH",
"881 291 OFFCURVE",
"854 291 OFFCURVE",
"819 265 CURVE SMOOTH",
"789 242 OFFCURVE",
"749 222 OFFCURVE",
"699 203 CURVE SMOOTH",
"649 185 OFFCURVE",
"600 176 OFFCURVE",
"552 176 CURVE SMOOTH",
"468 176 OFFCURVE",
"414 195 OFFCURVE",
"391 233 CURVE SMOOTH",
"368 271 OFFCURVE",
"356 311 OFFCURVE",
"356 354 CURVE SMOOTH",
"356 364 OFFCURVE",
"356 373 OFFCURVE",
"357 382 CURVE",
"566 418 LINE SMOOTH",
"735 447 OFFCURVE",
"866 482 OFFCURVE",
"961 522 CURVE SMOOTH",
"1056 562 OFFCURVE",
"1104 646 OFFCURVE",
"1104 774 CURVE SMOOTH",
"1104 851 OFFCURVE",
"1067 920 OFFCURVE",
"992 980 CURVE SMOOTH",
"917 1040 OFFCURVE",
"813 1070 OFFCURVE",
"679 1070 CURVE SMOOTH",
"485 1070 OFFCURVE",
"333 999 OFFCURVE",
"223 858 CURVE SMOOTH",
"113 717 OFFCURVE",
"58 569 OFFCURVE",
"58 415 CURVE SMOOTH"
);
},
{
closed = 1;
nodes = (
"370 570 LINE",
"393 655 OFFCURVE",
"429 727 OFFCURVE",
"479 786 CURVE SMOOTH",
"530 845 OFFCURVE",
"597 874 OFFCURVE",
"682 874 CURVE SMOOTH",
"735 874 OFFCURVE",
"779 863 OFFCURVE",
"814 840 CURVE SMOOTH",
"849 817 OFFCURVE",
"867 788 OFFCURVE",
"867 751 CURVE SMOOTH",
"867 710 OFFCURVE",
"838 679 OFFCURVE",
"780 656 CURVE SMOOTH",
"723 634 OFFCURVE",
"659 617 OFFCURVE",
"589 606 CURVE SMOOTH"
);
}
);
width = 1150;
}
);
unicode = 0065;
},
{
glyphname = eogonek;
lastChange = "2016-10-15 02:20:23 +0000";
layers = (
{
layerId = UUID0;
paths = (
{
closed = 1;
nodes = (
"68 285 OFFCURVE",
"100 189 OFFCURVE",
"164 106 CURVE SMOOTH",
"228 24 OFFCURVE",
"331 -17 OFFCURVE",
"473 -17 CURVE SMOOTH",
"485 -17 OFFCURVE",
"500 -16 OFFCURVE",
"517 -14 CURVE",
"517 -19 LINE",
"452 -58 OFFCURVE",
"406 -90 OFFCURVE",
"378 -113 CURVE",
"351 -137 OFFCURVE",
"331 -163 OFFCURVE",
"319 -190 CURVE",
"308 -218 OFFCURVE",
"302 -249 OFFCURVE",
"302 -284 CURVE SMOOTH",
"302 -361 OFFCURVE",
"365 -417 OFFCURVE",
"498 -417 CURVE SMOOTH",
"538 -417 OFFCURVE",
"577 -414 OFFCURVE",
"616 -408 CURVE",
"629 -405 OFFCURVE",
"635 -396 OFFCURVE",
"634 -380 CURVE SMOOTH",
"628 -303 LINE SMOOTH",
"627 -285 OFFCURVE",
"618 -278 OFFCURVE",
"601 -281 CURVE SMOOTH",
"581 -285 OFFCURVE",
"557 -287 OFFCURVE",
"528 -287 CURVE SMOOTH",
"480 -287 OFFCURVE",
"462 -269 OFFCURVE",
"462 -233 CURVE SMOOTH",
"462 -198 OFFCURVE",
"500 -152 OFFCURVE",
"575 -96 CURVE SMOOTH",
"701 -3 LINE SMOOTH",
"732 20 OFFCURVE",
"768 45 OFFCURVE",
"810 73 CURVE SMOOTH",
"852 102 OFFCURVE",
"880 126 OFFCURVE",
"893 146 CURVE SMOOTH",
"910 172 OFFCURVE",
"912 191 OFFCURVE",
"899 202 CURVE SMOOTH",
"840 253 LINE SMOOTH",
"821 270 OFFCURVE",
"800 263 OFFCURVE",
"777 232 CURVE SMOOTH",
"760 209 OFFCURVE",
"729 184 OFFCURVE",
"682 156 CURVE SMOOTH",
"635 128 OFFCURVE",
"574 114 OFFCURVE",
"497 114 CURVE SMOOTH",
"407 114 OFFCURVE",
"344 138 OFFCURVE",
"308 187 CURVE SMOOTH",
"272 236 OFFCURVE",
"254 293 OFFCURVE",
"254 359 CURVE SMOOTH",
"254 360 OFFCURVE",
"256 374 OFFCURVE",
"260 399 CURVE",
"506 448 LINE SMOOTH",
"645 475 OFFCURVE",
"761 512 OFFCURVE",
"856 559 CURVE SMOOTH",
"951 606 OFFCURVE",
"998 679 OFFCURVE",
"998 778 CURVE SMOOTH",
"998 853 OFFCURVE",
"966 919 OFFCURVE",
"902 978 CURVE SMOOTH",
"839 1037 OFFCURVE",
"755 1067 OFFCURVE",
"652 1067 CURVE SMOOTH",
"471 1067 OFFCURVE",
"329 1005 OFFCURVE",
"224 881 CURVE SMOOTH",
"120 758 OFFCURVE",
"68 596 OFFCURVE",
"68 396 CURVE SMOOTH"
);
},
{
closed = 1;
nodes = (
"265 538 LINE",
"294 681 OFFCURVE",
"340 784 OFFCURVE",
"403 845 CURVE SMOOTH",
"466 906 OFFCURVE",
"538 937 OFFCURVE",
"619 937 CURVE SMOOTH",
"672 937 OFFCURVE",
"719 923 OFFCURVE",
"760 895 CURVE SMOOTH",
"801 868 OFFCURVE",
"822 831 OFFCURVE",
"822 786 CURVE SMOOTH",
"822 729 OFFCURVE",
"787 684 OFFCURVE",
"716 652 CURVE SMOOTH",
"645 621 OFFCURVE",
"563 596 OFFCURVE",
"470 578 CURVE SMOOTH"
);
}
);
width = 1078;
},
{
layerId = "05202388-ED6B-49B3-97C3-39168626F3FE";
paths = (
{
closed = 1;
nodes = (
"58 294 OFFCURVE",
"91 192 OFFCURVE",
"158 107 CURVE SMOOTH",
"225 22 OFFCURVE",
"350 -20 OFFCURVE",
"534 -20 CURVE SMOOTH",
"553 -20 OFFCURVE",
"569 -18 OFFCURVE",
"584 -15 CURVE",
"584 -22 LINE",
"475 -93 OFFCURVE",
"398 -150 OFFCURVE",
"386 -195 CURVE SMOOTH",
"380 -218 OFFCURVE",
"377 -242 OFFCURVE",
"377 -266 CURVE SMOOTH",
"377 -355 OFFCURVE",
"456 -420 OFFCURVE",
"621 -420 CURVE SMOOTH",
"673 -420 OFFCURVE",
"722 -417 OFFCURVE",
"768 -411 CURVE SMOOTH",
"791 -408 OFFCURVE",
"803 -393 OFFCURVE",
"802 -368 CURVE SMOOTH",
"799 -253 LINE SMOOTH",
"798 -227 OFFCURVE",
"785 -216 OFFCURVE",
"759 -219 CURVE SMOOTH",
"732 -222 OFFCURVE",
"703 -224 OFFCURVE",
"674 -224 CURVE SMOOTH",
"638 -224 OFFCURVE",
"613 -217 OFFCURVE",
"613 -189 CURVE SMOOTH",
"613 -170 OFFCURVE",
"633 -143 OFFCURVE",
"672 -109 CURVE SMOOTH",
"711 -75 OFFCURVE",
"752 -44 OFFCURVE",
"793 -16 CURVE SMOOTH",
"834 12 OFFCURVE",
"866 33 OFFCURVE",
"887 48 CURVE SMOOTH",
"908 63 OFFCURVE",
"930 80 OFFCURVE",
"951 99 CURVE SMOOTH",
"980 126 OFFCURVE",
"983 155 OFFCURVE",
"959 187 CURVE SMOOTH",
"900 265 LINE SMOOTH",
"881 291 OFFCURVE",
"854 291 OFFCURVE",
"819 265 CURVE SMOOTH",
"789 242 OFFCURVE",
"749 222 OFFCURVE",
"699 203 CURVE SMOOTH",
"649 185 OFFCURVE",
"600 176 OFFCURVE",
"552 176 CURVE SMOOTH",
"468 176 OFFCURVE",
"414 195 OFFCURVE",
"391 233 CURVE SMOOTH",
"368 271 OFFCURVE",
"356 311 OFFCURVE",
"356 354 CURVE SMOOTH",
"356 364 OFFCURVE",
"356 373 OFFCURVE",
"357 382 CURVE",
"566 418 LINE SMOOTH",
"733 447 OFFCURVE",
"865 481 OFFCURVE",
"960 521 CURVE SMOOTH",
"1056 562 OFFCURVE",
"1104 646 OFFCURVE",
"1104 774 CURVE SMOOTH",
"1104 851 OFFCURVE",
"1067 920 OFFCURVE",
"992 980 CURVE SMOOTH",
"917 1040 OFFCURVE",
"813 1070 OFFCURVE",
"679 1070 CURVE SMOOTH",
"485 1070 OFFCURVE",
"333 999 OFFCURVE",
"223 858 CURVE SMOOTH",
"113 717 OFFCURVE",
"58 569 OFFCURVE",
"58 415 CURVE SMOOTH"
);
},
{
closed = 1;
nodes = (
"370 570 LINE",
"393 655 OFFCURVE",
"429 727 OFFCURVE",
"479 786 CURVE SMOOTH",
"530 845 OFFCURVE",
"597 874 OFFCURVE",
"682 874 CURVE SMOOTH",
"735 874 OFFCURVE",
"779 863 OFFCURVE",
"814 840 CURVE SMOOTH",
"849 817 OFFCURVE",
"867 788 OFFCURVE",
"867 751 CURVE SMOOTH",
"867 710 OFFCURVE",
"838 679 OFFCURVE",
"780 656 CURVE SMOOTH",
"723 634 OFFCURVE",
"659 617 OFFCURVE",
"589 606 CURVE SMOOTH"
);
}
);
width = 1150;
}
);
unicode = 0119;
},
{
glyphname = f;
lastChange = "2016-10-15 02:20:23 +0000";
layers = (
{
layerId = UUID0;
paths = (
{
closed = 1;
nodes = (
"289 918 LINE",
"-5 -355 LINE SMOOTH",
"-12 -385 OFFCURVE",
"0 -400 OFFCURVE",
"30 -400 CURVE SMOOTH",
"116 -400 LINE SMOOTH",
"146 -400 OFFCURVE",
"164 -385 OFFCURVE",
"171 -355 CURVE SMOOTH",
"465 918 LINE",
"648 918 LINE SMOOTH",
"678 918 OFFCURVE",
"696 930 OFFCURVE",
"701 953 CURVE SMOOTH",
"715 1015 LINE SMOOTH",
"720 1038 OFFCURVE",
"708 1050 OFFCURVE",
"678 1050 CURVE SMOOTH",
"495 1050 LINE",
"523 1170 LINE SMOOTH",
"540 1245 OFFCURVE",
"564 1296 OFFCURVE",
"595 1323 CURVE SMOOTH",
"626 1350 OFFCURVE",
"669 1363 OFFCURVE",
"724 1363 CURVE SMOOTH",
"773 1363 OFFCURVE",
"815 1349 OFFCURVE",
"840 1336 CURVE SMOOTH",
"857 1328 OFFCURVE",
"869 1331 OFFCURVE",
"877 1344 CURVE SMOOTH",
"927 1423 LINE SMOOTH",
"936 1438 OFFCURVE",
"934 1449 OFFCURVE",
"921 1455 CURVE SMOOTH",
"886 1471 OFFCURVE",
"854 1481 OFFCURVE",
"827 1486 CURVE SMOOTH",
"800 1491 OFFCURVE",
"764 1493 OFFCURVE",
"718 1493 CURVE SMOOTH",
"641 1493 OFFCURVE",
"567 1472 OFFCURVE",
"497 1429 CURVE SMOOTH",
"427 1387 OFFCURVE",
"379 1310 OFFCURVE",
"354 1199 CURVE",
"319 1050 LINE",
"212 1050 LINE SMOOTH",
"182 1050 OFFCURVE",
"164 1038 OFFCURVE",
"159 1015 CURVE SMOOTH",
"145 953 LINE SMOOTH",
"140 930 OFFCURVE",
"152 918 OFFCURVE",
"182 918 CURVE SMOOTH"
);
}
);
width = 652;
},
{
layerId = "05202388-ED6B-49B3-97C3-39168626F3FE";
paths = (
{
closed = 1;
nodes = (
"233 850 LINE",
"-41 -340 LINE SMOOTH",
"-50 -380 OFFCURVE",
"-35 -400 OFFCURVE",
"5 -400 CURVE SMOOTH",
"165 -400 LINE SMOOTH",
"205 -400 OFFCURVE",
"230 -380 OFFCURVE",
"239 -340 CURVE SMOOTH",
"513 850 LINE",
"645 850 LINE SMOOTH",
"684 850 OFFCURVE",
"708 867 OFFCURVE",
"716 900 CURVE SMOOTH",
"739 1000 LINE SMOOTH",
"747 1033 OFFCURVE",
"731 1050 OFFCURVE",
"691 1050 CURVE SMOOTH",
"559 1050 LINE",
"569 1090 LINE SMOOTH",
"585 1153 OFFCURVE",
"601 1203 OFFCURVE",
"616 1242 CURVE SMOOTH",
"632 1281 OFFCURVE",
"668 1300 OFFCURVE",
"724 1300 CURVE SMOOTH",
"755 1300 OFFCURVE",
"807 1296 OFFCURVE",
"846 1284 CURVE SMOOTH",
"872 1276 OFFCURVE",
"888 1280 OFFCURVE",
"895 1297 CURVE SMOOTH",
"940 1405 LINE SMOOTH",
"951 1431 OFFCURVE",
"944 1449 OFFCURVE",
"921 1458 CURVE SMOOTH",
"870 1478 OFFCURVE",
"811 1496 OFFCURVE",
"732 1496 CURVE SMOOTH",
"492 1496 OFFCURVE",
"363 1407 OFFCURVE",
"312 1190 CURVE SMOOTH",
"279 1050 LINE",
"223 1050 LINE SMOOTH",
"184 1050 OFFCURVE",
"161 1033 OFFCURVE",
"153 1000 CURVE SMOOTH",
"130 900 LINE SMOOTH",
"123 867 OFFCURVE",
"138 850 OFFCURVE",
"177 850 CURVE SMOOTH"
);
}
);
width = 682;
}
);
unicode = 0066;
},
{
glyphname = g;
lastChange = "2016-10-15 02:20:23 +0000";
layers = (
{
layerId = UUID0;
paths = (
{
closed = 1;
nodes = (
"70 270 OFFCURVE",
"95 177 OFFCURVE",
"144 99 CURVE",
"194 22 OFFCURVE",
"282 -17 OFFCURVE",
"409 -17 CURVE SMOOTH",
"462 -17 OFFCURVE",
"520 0 OFFCURVE",
"582 34 CURVE SMOOTH",
"644 69 OFFCURVE",
"690 112 OFFCURVE",
"719 165 CURVE",
"721 165 LINE",
"714 142 OFFCURVE",
"709 122 OFFCURVE",
"705 104 CURVE SMOOTH",
"684 11 LINE SMOOTH",
"659 -98 OFFCURVE",
"619 -174 OFFCURVE",
"562 -219 CURVE SMOOTH",
"506 -264 OFFCURVE",
"437 -287 OFFCURVE",
"354 -287 CURVE SMOOTH",
"283 -287 OFFCURVE",
"229 -279 OFFCURVE",
"190 -262 CURVE SMOOTH",
"151 -246 OFFCURVE",
"119 -225 OFFCURVE",
"94 -198 CURVE SMOOTH",
"73 -176 OFFCURVE",
"55 -173 OFFCURVE",
"38 -190 CURVE SMOOTH",
"-12 -238 LINE SMOOTH",
"-29 -255 OFFCURVE",
"-30 -275 OFFCURVE",
"-16 -298 CURVE SMOOTH",
"27 -370 OFFCURVE",
"143 -417 OFFCURVE",
"323 -417 CURVE SMOOTH",
"496 -417 OFFCURVE",
"620 -383 OFFCURVE",
"695 -315 CURVE SMOOTH",
"770 -247 OFFCURVE",
"824 -145 OFFCURVE",
"855 -8 CURVE SMOOTH",
"1089 1005 LINE SMOOTH",
"1096 1035 OFFCURVE",
"1084 1050 OFFCURVE",
"1054 1050 CURVE SMOOTH",
"970 1050 LINE SMOOTH",
"947 1050 OFFCURVE",
"930 1035 OFFCURVE",
"921 1005 CURVE SMOOTH",
"898 932 LINE",
"896 932 LINE",
"862 977 OFFCURVE",
"824 1011 OFFCURVE",
"783 1033 CURVE SMOOTH",
"742 1056 OFFCURVE",
"684 1067 OFFCURVE",
"610 1067 CURVE SMOOTH",
"465 1067 OFFCURVE",
"338 995 OFFCURVE",
"231 850 CURVE SMOOTH",
"124 706 OFFCURVE",
"70 549 OFFCURVE",
"70 379 CURVE SMOOTH"
);
},
{
closed = 1;
nodes = (
"256 523 OFFCURVE",
"292 654 OFFCURVE",
"364 767 CURVE SMOOTH",
"436 880 OFFCURVE",
"523 937 OFFCURVE",
"624 937 CURVE SMOOTH",
"699 937 OFFCURVE",
"754 924 OFFCURVE",
"791 898 CURVE SMOOTH",
"828 873 OFFCURVE",
"849 827 OFFCURVE",
"856 760 CURVE",
"791 480 LINE SMOOTH",
"770 392 OFFCURVE",
"726 309 OFFCURVE",
"658 230 CURVE SMOOTH",
"591 152 OFFCURVE",
"524 113 OFFCURVE",
"459 113 CURVE SMOOTH",
"384 113 OFFCURVE",
"331 139 OFFCURVE",
"301 190 CURVE SMOOTH",
"271 242 OFFCURVE",
"256 303 OFFCURVE",
"256 372 CURVE SMOOTH"
);
}
);
width = 1119;
},
{
layerId = "05202388-ED6B-49B3-97C3-39168626F3FE";
paths = (
{
closed = 1;
nodes = (
"66 305 OFFCURVE",
"94 211 OFFCURVE",
"149 122 CURVE SMOOTH",
"205 33 OFFCURVE",
"299 -11 OFFCURVE",
"431 -11 CURVE SMOOTH",
"480 -11 OFFCURVE",
"523 1 OFFCURVE",
"561 25 CURVE SMOOTH",
"599 49 OFFCURVE",
"642 90 OFFCURVE",
"690 147 CURVE",
"694 147 LINE",
"684 118 OFFCURVE",
"676 91 OFFCURVE",
"671 67 CURVE SMOOTH",
"663 31 LINE SMOOTH",
"640 -75 OFFCURVE",
"598 -144 OFFCURVE",
"538 -176 CURVE SMOOTH",
"478 -208 OFFCURVE",
"412 -224 OFFCURVE",
"340 -224 CURVE SMOOTH",
"225 -224 OFFCURVE",
"152 -195 OFFCURVE",
"103 -170 CURVE SMOOTH",
"69 -153 OFFCURVE",
"43 -159 OFFCURVE",
"25 -190 CURVE SMOOTH",
"-18 -263 LINE SMOOTH",
"-40 -301 OFFCURVE",
"-37 -327 OFFCURVE",
"-9 -342 CURVE SMOOTH",
"46 -371 OFFCURVE",
"96 -392 OFFCURVE",
"141 -403 CURVE SMOOTH",
"187 -414 OFFCURVE",
"248 -420 OFFCURVE",
"325 -420 CURVE SMOOTH",
"506 -420 OFFCURVE",
"644 -387 OFFCURVE",
"740 -321 CURVE",
"837 -256 OFFCURVE",
"903 -145 OFFCURVE",
"939 11 CURVE SMOOTH",
"1165 990 LINE SMOOTH",
"1174 1030 OFFCURVE",
"1159 1050 OFFCURVE",
"1118 1050 CURVE SMOOTH",
"960 1050 LINE SMOOTH",
"929 1050 OFFCURVE",
"906 1030 OFFCURVE",
"893 990 CURVE SMOOTH",
"881 954 LINE",
"877 954 LINE",
"844 1006 OFFCURVE",
"801 1038 OFFCURVE",
"749 1051 CURVE SMOOTH",
"697 1064 OFFCURVE",
"647 1070 OFFCURVE",
"599 1070 CURVE SMOOTH",
"458 1070 OFFCURVE",
"333 1002 OFFCURVE",
"226 866 CURVE SMOOTH",
"119 730 OFFCURVE",
"66 575 OFFCURVE",
"66 402 CURVE SMOOTH"
);
},
{
closed = 1;
nodes = (
"362 508 OFFCURVE",
"387 621 OFFCURVE",
"437 722 CURVE SMOOTH",
"487 823 OFFCURVE",
"557 874 OFFCURVE",
"647 874 CURVE SMOOTH",
"714 874 OFFCURVE",
"758 858 OFFCURVE",
"780 825 CURVE SMOOTH",
"803 792 OFFCURVE",
"814 744 OFFCURVE",
"814 680 CURVE",
"777 522 LINE SMOOTH",
"753 419 OFFCURVE",
"714 337 OFFCURVE",
"660 276 CURVE SMOOTH",
"606 215 OFFCURVE",
"556 185 OFFCURVE",
"509 185 CURVE SMOOTH",
"418 185 OFFCURVE",
"362 264 OFFCURVE",
"362 383 CURVE SMOOTH"
);
}
);
width = 1192;
}
);
unicode = 0067;
},
{
glyphname = h;
lastChange = "2016-10-15 02:20:23 +0000";
layers = (
{
layerId = UUID0;
paths = (
{
closed = 1;
nodes = (
"153 0 LINE SMOOTH",
"183 0 OFFCURVE",
"201 15 OFFCURVE",
"208 45 CURVE SMOOTH",
"326 554 LINE SMOOTH",
"349 654 OFFCURVE",
"394 743 OFFCURVE",
"459 820 CURVE SMOOTH",
"525 898 OFFCURVE",
"598 937 OFFCURVE",
"678 937 CURVE SMOOTH",
"751 937 OFFCURVE",
"804 919 OFFCURVE",
"836 884 CURVE SMOOTH",
"868 849 OFFCURVE",
"869 767 OFFCURVE",
"839 636 CURVE SMOOTH",
"702 45 LINE SMOOTH",
"695 15 OFFCURVE",
"707 0 OFFCURVE",
"737 0 CURVE SMOOTH",
"823 0 LINE SMOOTH",
"853 0 OFFCURVE",
"871 15 OFFCURVE",
"878 45 CURVE SMOOTH",
"1026 684 LINE SMOOTH",
"1053 803 OFFCURVE",
"1046 896 OFFCURVE",
"1005 964 CURVE SMOOTH",
"964 1033 OFFCURVE",
"886 1067 OFFCURVE",
"773 1067 CURVE SMOOTH",
"693 1067 OFFCURVE",
"621 1049 OFFCURVE",
"558 1012 CURVE SMOOTH",
"495 976 OFFCURVE",
"444 934 OFFCURVE",
"405 885 CURVE",
"401 885 LINE",
"407 906 OFFCURVE",
"412 926 OFFCURVE",
"416 945 CURVE SMOOTH",
"528 1431 LINE SMOOTH",
"535 1461 OFFCURVE",
"523 1476 OFFCURVE",
"494 1476 CURVE SMOOTH",
"408 1476 LINE SMOOTH",
"377 1476 OFFCURVE",
"359 1461 OFFCURVE",
"352 1431 CURVE SMOOTH",
"32 45 LINE SMOOTH",
"25 15 OFFCURVE",
"37 0 OFFCURVE",
"67 0 CURVE SMOOTH"
);
}
);
width = 1128;
},
{
layerId = "05202388-ED6B-49B3-97C3-39168626F3FE";
paths = (
{
closed = 1;
nodes = (
"236 0 LINE SMOOTH",
"276 0 OFFCURVE",
"301 20 OFFCURVE",
"310 60 CURVE SMOOTH",
"393 424 LINE SMOOTH",
"458 712 OFFCURVE",
"569 874 OFFCURVE",
"709 874 CURVE SMOOTH",
"764 874 OFFCURVE",
"800 854 OFFCURVE",
"816 814 CURVE SMOOTH",
"832 774 OFFCURVE",
"824 683 OFFCURVE",
"791 542 CURVE SMOOTH",
"680 60 LINE SMOOTH",
"671 20 OFFCURVE",
"686 0 OFFCURVE",
"726 0 CURVE SMOOTH",
"886 0 LINE SMOOTH",
"926 0 OFFCURVE",
"951 20 OFFCURVE",
"960 60 CURVE SMOOTH",
"1088 614 LINE SMOOTH",
"1125 775 OFFCURVE",
"1116 892 OFFCURVE",
"1061 963 CURVE SMOOTH",
"1006 1034 OFFCURVE",
"930 1070 OFFCURVE",
"833 1070 CURVE SMOOTH",
"766 1070 OFFCURVE",
"709 1059 OFFCURVE",
"660 1038 CURVE SMOOTH",
"612 1017 OFFCURVE",
"561 975 OFFCURVE",
"508 912 CURVE",
"503 912 LINE",
"512 938 OFFCURVE",
"520 965 OFFCURVE",
"526 992 CURVE SMOOTH",
"623 1416 LINE SMOOTH",
"632 1456 OFFCURVE",
"617 1476 OFFCURVE",
"577 1476 CURVE SMOOTH",
"417 1476 LINE SMOOTH",
"377 1476 OFFCURVE",
"352 1456 OFFCURVE",
"343 1416 CURVE SMOOTH",
"30 60 LINE SMOOTH",
"21 20 OFFCURVE",
"36 0 OFFCURVE",
"76 0 CURVE SMOOTH"
);
}
);
width = 1200;
}
);
unicode = 0068;
},
{
glyphname = hbar;
lastChange = "2016-10-15 02:20:23 +0000";
layers = (
{
layerId = UUID0;
paths = (
{
closed = 1;
nodes = (
"371 1208 LINE",
"102 45 LINE SMOOTH",
"95 15 OFFCURVE",
"107 0 OFFCURVE",
"137 0 CURVE SMOOTH",
"223 0 LINE SMOOTH",
"253 0 OFFCURVE",
"271 15 OFFCURVE",
"278 45 CURVE SMOOTH",
"396 554 LINE SMOOTH",
"419 654 OFFCURVE",
"464 743 OFFCURVE",
"529 820 CURVE SMOOTH",
"595 898 OFFCURVE",
"668 937 OFFCURVE",
"748 937 CURVE SMOOTH",
"821 937 OFFCURVE",
"874 919 OFFCURVE",
"906 884 CURVE SMOOTH",
"938 849 OFFCURVE",
"939 767 OFFCURVE",
"909 636 CURVE SMOOTH",
"772 45 LINE SMOOTH",
"765 15 OFFCURVE",
"777 0 OFFCURVE",
"807 0 CURVE SMOOTH",
"893 0 LINE SMOOTH",
"923 0 OFFCURVE",
"941 15 OFFCURVE",
"948 45 CURVE SMOOTH",
"1096 684 LINE SMOOTH",
"1123 803 OFFCURVE",
"1116 896 OFFCURVE",
"1075 964 CURVE SMOOTH",
"1034 1033 OFFCURVE",
"956 1067 OFFCURVE",
"843 1067 CURVE SMOOTH",
"763 1067 OFFCURVE",
"691 1049 OFFCURVE",
"628 1012 CURVE SMOOTH",
"565 976 OFFCURVE",
"514 934 OFFCURVE",
"475 885 CURVE",
"471 885 LINE",
"477 906 OFFCURVE",
"482 926 OFFCURVE",
"486 945 CURVE SMOOTH",
"547 1208 LINE",
"910 1208 LINE SMOOTH",
"940 1208 OFFCURVE",
"958 1220 OFFCURVE",
"963 1243 CURVE SMOOTH",
"977 1305 LINE SMOOTH",
"982 1328 OFFCURVE",
"970 1340 OFFCURVE",
"940 1340 CURVE SMOOTH",
"577 1340 LINE",
"598 1431 LINE SMOOTH",
"605 1461 OFFCURVE",
"594 1476 OFFCURVE",
"564 1476 CURVE SMOOTH",
"478 1476 LINE SMOOTH",
"447 1476 OFFCURVE",
"429 1461 OFFCURVE",
"422 1431 CURVE SMOOTH",
"401 1340 LINE",
"264 1340 LINE SMOOTH",
"234 1340 OFFCURVE",
"216 1328 OFFCURVE",
"211 1305 CURVE SMOOTH",
"197 1243 LINE SMOOTH",
"192 1220 OFFCURVE",
"204 1208 OFFCURVE",
"234 1208 CURVE SMOOTH"
);
}
);
width = 1198;
},
{
layerId = "05202388-ED6B-49B3-97C3-39168626F3FE";
paths = (
{
closed = 1;
nodes = (
"320 1180 LINE",
"62 60 LINE SMOOTH",
"53 20 OFFCURVE",
"68 0 OFFCURVE",
"108 0 CURVE SMOOTH",
"268 0 LINE SMOOTH",
"308 0 OFFCURVE",
"333 20 OFFCURVE",
"342 60 CURVE SMOOTH",
"426 424 LINE",
"491 712 OFFCURVE",
"602 874 OFFCURVE",
"742 874 CURVE SMOOTH",
"797 874 OFFCURVE",
"833 854 OFFCURVE",
"849 814 CURVE SMOOTH",
"865 774 OFFCURVE",
"857 683 OFFCURVE",
"824 542 CURVE SMOOTH",
"712 60 LINE SMOOTH",
"703 20 OFFCURVE",
"718 0 OFFCURVE",
"758 0 CURVE SMOOTH",
"918 0 LINE SMOOTH",
"958 0 OFFCURVE",
"983 20 OFFCURVE",
"992 60 CURVE SMOOTH",
"1121 614 LINE SMOOTH",
"1158 775 OFFCURVE",
"1149 892 OFFCURVE",
"1094 963 CURVE SMOOTH",
"1039 1034 OFFCURVE",
"963 1070 OFFCURVE",
"866 1070 CURVE SMOOTH",
"799 1070 OFFCURVE",
"742 1059 OFFCURVE",
"693 1038 CURVE SMOOTH",
"645 1017 OFFCURVE",
"594 975 OFFCURVE",
"541 912 CURVE",
"536 912 LINE",
"545 938 OFFCURVE",
"553 965 OFFCURVE",
"559 992 CURVE SMOOTH",
"600 1180 LINE",
"943 1180 LINE SMOOTH",
"983 1180 OFFCURVE",
"1007 1197 OFFCURVE",
"1015 1230 CURVE SMOOTH",
"1038 1330 LINE SMOOTH",
"1046 1363 OFFCURVE",
"1030 1380 OFFCURVE",
"990 1380 CURVE SMOOTH",
"647 1380 LINE",
"655 1416 LINE SMOOTH",
"664 1456 OFFCURVE",
"649 1476 OFFCURVE",
"609 1476 CURVE SMOOTH",
"449 1476 LINE SMOOTH",
"409 1476 OFFCURVE",
"384 1456 OFFCURVE",
"375 1416 CURVE SMOOTH",
"367 1380 LINE",
"276 1380 LINE SMOOTH",
"236 1380 OFFCURVE",
"212 1363 OFFCURVE",
"204 1330 CURVE SMOOTH",
"181 1230 LINE SMOOTH",
"173 1197 OFFCURVE",
"189 1180 OFFCURVE",
"229 1180 CURVE SMOOTH"
);
}
);
width = 1233;
}
);
unicode = 0127;
},
{
glyphname = dotlessi;
lastChange = "2016-10-15 02:20:23 +0000";
layers = (
{
layerId = UUID0;
paths = (
{
closed = 1;
nodes = (
"153 0 LINE SMOOTH",
"183 0 OFFCURVE",
"201 15 OFFCURVE",
"208 45 CURVE SMOOTH",
"430 1005 LINE SMOOTH",
"437 1035 OFFCURVE",
"425 1050 OFFCURVE",
"395 1050 CURVE SMOOTH",
"309 1050 LINE SMOOTH",
"279 1050 OFFCURVE",
"261 1035 OFFCURVE",
"254 1005 CURVE SMOOTH",
"32 45 LINE SMOOTH",
"25 15 OFFCURVE",
"37 0 OFFCURVE",
"67 0 CURVE SMOOTH"
);
}
);
width = 460;
},
{
layerId = "05202388-ED6B-49B3-97C3-39168626F3FE";
paths = (
{
closed = 1;
nodes = (
"236 0 LINE SMOOTH",
"276 0 OFFCURVE",
"301 20 OFFCURVE",
"310 60 CURVE SMOOTH",
"525 990 LINE SMOOTH",
"534 1030 OFFCURVE",
"518 1050 OFFCURVE",
"478 1050 CURVE SMOOTH",
"318 1050 LINE SMOOTH",
"279 1050 OFFCURVE",
"254 1030 OFFCURVE",
"245 990 CURVE SMOOTH",
"30 60 LINE SMOOTH",
"21 20 OFFCURVE",
"36 0 OFFCURVE",
"76 0 CURVE SMOOTH"
);
}
);
width = 552;
}
);
unicode = 0131;
},
{
glyphname = uni0237;
lastChange = "2016-10-15 02:20:23 +0000";
layers = (
{
layerId = UUID0;
paths = (
{
closed = 1;
nodes = (
"-265 -410 OFFCURVE",
"-219 -417 OFFCURVE",
"-153 -417 CURVE SMOOTH",
"-80 -417 OFFCURVE",
"-14 -395 OFFCURVE",
"47 -352 CURVE SMOOTH",
"108 -309 OFFCURVE",
"153 -222 OFFCURVE",
"183 -93 CURVE SMOOTH",
"436 1005 LINE SMOOTH",
"443 1035 OFFCURVE",
"431 1050 OFFCURVE",
"401 1050 CURVE SMOOTH",
"315 1050 LINE SMOOTH",
"285 1050 OFFCURVE",
"267 1035 OFFCURVE",
"260 1005 CURVE SMOOTH",
"29 6 LINE SMOOTH",
"2 -113 OFFCURVE",
"-26 -192 OFFCURVE",
"-54 -230 CURVE SMOOTH",
"-82 -268 OFFCURVE",
"-116 -287 OFFCURVE",
"-155 -287 CURVE SMOOTH",
"-192 -287 OFFCURVE",
"-223 -281 OFFCURVE",
"-246 -269 CURVE SMOOTH",
"-260 -262 OFFCURVE",
"-270 -267 OFFCURVE",
"-275 -284 CURVE SMOOTH",
"-300 -365 LINE SMOOTH",
"-305 -380 OFFCURVE",
"-301 -391 OFFCURVE",
"-290 -397 CURVE SMOOTH"
);
}
);
width = 466;
},
{
layerId = "05202388-ED6B-49B3-97C3-39168626F3FE";
paths = (
{
closed = 1;
nodes = (
"-252 -415 OFFCURVE",
"-205 -420 OFFCURVE",
"-145 -420 CURVE SMOOTH",
"-31 -420 OFFCURVE",
"63 -392 OFFCURVE",
"137 -336 CURVE SMOOTH",
"211 -280 OFFCURVE",
"267 -169 OFFCURVE",
"305 -4 CURVE SMOOTH",
"535 990 LINE SMOOTH",
"544 1030 OFFCURVE",
"529 1050 OFFCURVE",
"488 1050 CURVE SMOOTH",
"328 1050 LINE SMOOTH",
"289 1050 OFFCURVE",
"264 1030 OFFCURVE",
"255 990 CURVE SMOOTH",
"32 26 LINE SMOOTH",
"-5 -134 OFFCURVE",
"-52 -224 OFFCURVE",
"-149 -224 CURVE SMOOTH",
"-161 -224 OFFCURVE",
"-183 -221 OFFCURVE",
"-216 -215 CURVE SMOOTH",
"-244 -210 OFFCURVE",
"-262 -220 OFFCURVE",
"-270 -243 CURVE SMOOTH",
"-307 -349 LINE SMOOTH",
"-318 -379 OFFCURVE",
"-311 -398 OFFCURVE",
"-286 -405 CURVE SMOOTH"
);
}
);
width = 562;
}
);
unicode = 0237;
},
{
glyphname = k;
lastChange = "2016-10-15 02:20:23 +0000";
layers = (
{
layerId = UUID0;
paths = (
{
closed = 1;
nodes = (
"153 0 LINE SMOOTH",
"182 0 OFFCURVE",
"201 15 OFFCURVE",
"208 45 CURVE SMOOTH",
"266 293 LINE",
"477 491 LINE",
"663 37 LINE SMOOTH",
"673 12 OFFCURVE",
"689 0 OFFCURVE",
"711 0 CURVE SMOOTH",
"792 0 LINE SMOOTH",
"835 0 OFFCURVE",
"848 20 OFFCURVE",
"832 59 CURVE SMOOTH",
"604 611 LINE",
"1013 991 LINE SMOOTH",
"1056 1030 OFFCURVE",
"1051 1050 OFFCURVE",
"1000 1050 CURVE SMOOTH",
"889 1050 LINE SMOOTH",
"868 1050 OFFCURVE",
"849 1041 OFFCURVE",
"830 1024 CURVE SMOOTH",
"325 551 LINE",
"323 551 LINE",
"339 611 LINE",
"528 1431 LINE SMOOTH",
"535 1461 OFFCURVE",
"523 1476 OFFCURVE",
"494 1476 CURVE SMOOTH",
"408 1476 LINE SMOOTH",
"377 1476 OFFCURVE",
"359 1461 OFFCURVE",
"352 1431 CURVE SMOOTH",
"32 45 LINE SMOOTH",
"25 15 OFFCURVE",
"37 0 OFFCURVE",
"67 0 CURVE SMOOTH"
);
}
);
width = 1003;
},
{
layerId = "05202388-ED6B-49B3-97C3-39168626F3FE";
paths = (
{
closed = 1;
nodes = (
"236 0 LINE SMOOTH",
"276 0 OFFCURVE",
"301 20 OFFCURVE",
"310 60 CURVE SMOOTH",
"355 257 LINE",
"538 430 LINE",
"690 52 LINE SMOOTH",
"704 17 OFFCURVE",
"727 0 OFFCURVE",
"760 0 CURVE SMOOTH",
"903 0 LINE SMOOTH",
"956 0 OFFCURVE",
"972 25 OFFCURVE",
"951 74 CURVE SMOOTH",
"728 605 LINE",
"1114 976 LINE SMOOTH",
"1165 1025 OFFCURVE",
"1161 1050 OFFCURVE",
"1100 1050 CURVE SMOOTH",
"909 1050 LINE SMOOTH",
"879 1050 OFFCURVE",
"850 1036 OFFCURVE",
"822 1009 CURVE SMOOTH",
"444 639 LINE",
"440 639 LINE",
"449 667 OFFCURVE",
"456 694 OFFCURVE",
"462 719 CURVE SMOOTH",
"623 1416 LINE SMOOTH",
"632 1456 OFFCURVE",
"617 1476 OFFCURVE",
"577 1476 CURVE SMOOTH",
"417 1476 LINE SMOOTH",
"377 1476 OFFCURVE",
"352 1456 OFFCURVE",
"343 1416 CURVE SMOOTH",
"30 60 LINE SMOOTH",
"21 20 OFFCURVE",
"36 0 OFFCURVE",
"76 0 CURVE SMOOTH"
);
}
);
width = 1119;
}
);
unicode = 006B;
},
{
glyphname = l;
lastChange = "2016-10-15 02:20:23 +0000";
layers = (
{
layerId = UUID0;
paths = (
{
closed = 1;
nodes = (
"153 0 LINE SMOOTH",
"183 0 OFFCURVE",
"201 15 OFFCURVE",
"208 45 CURVE SMOOTH",
"535 1458 LINE SMOOTH",
"540 1481 OFFCURVE",
"533 1493 OFFCURVE",
"513 1493 CURVE SMOOTH",
"478 1493 LINE SMOOTH",
"470 1493 OFFCURVE",
"457 1481 OFFCURVE",
"439 1458 CURVE SMOOTH",
"339 1331 LINE SMOOTH",
"330 1319 OFFCURVE",
"324 1306 OFFCURVE",
"321 1293 CURVE SMOOTH",
"32 45 LINE SMOOTH",
"25 15 OFFCURVE",
"37 0 OFFCURVE",
"67 0 CURVE SMOOTH"
);
}
);
width = 460;
},
{
layerId = "05202388-ED6B-49B3-97C3-39168626F3FE";
paths = (
{
closed = 1;
nodes = (
"236 0 LINE SMOOTH",
"276 0 OFFCURVE",
"301 20 OFFCURVE",
"310 60 CURVE SMOOTH",
"628 1436 LINE SMOOTH",
"637 1476 OFFCURVE",
"621 1496 OFFCURVE",
"581 1496 CURVE SMOOTH",
"511 1496 LINE SMOOTH",
"492 1496 OFFCURVE",
"472 1483 OFFCURVE",
"451 1458 CURVE SMOOTH",
"342 1323 LINE",
"323 1298 OFFCURVE",
"310 1271 OFFCURVE",
"303 1241 CURVE SMOOTH",
"30 60 LINE SMOOTH",
"21 20 OFFCURVE",
"36 0 OFFCURVE",
"76 0 CURVE SMOOTH"
);
}
);
width = 552;
}
);
unicode = 006C;
},
{
glyphname = lslash;
lastChange = "2016-10-15 02:20:23 +0000";
layers = (
{
layerId = UUID0;
paths = (
{
closed = 1;
nodes = (
"266 625 LINE",
"268 625 LINE",
"252 565 LINE",
"132 45 LINE SMOOTH",
"125 15 OFFCURVE",
"137 0 OFFCURVE",
"167 0 CURVE SMOOTH",
"253 0 LINE SMOOTH",
"283 0 OFFCURVE",
"301 15 OFFCURVE",
"308 45 CURVE SMOOTH",
"473 760 LINE",
"671 883 LINE SMOOTH",
"697 899 OFFCURVE",
"713 919 OFFCURVE",
"718 943 CURVE SMOOTH",
"742 1049 LINE SMOOTH",
"749 1079 OFFCURVE",
"735 1083 OFFCURVE",
"700 1061 CURVE SMOOTH",
"516 946 LINE",
"514 946 LINE",
"520 966 OFFCURVE",
"525 986 OFFCURVE",
"530 1006 CURVE SMOOTH",
"635 1458 LINE SMOOTH",
"640 1480 OFFCURVE",
"633 1492 OFFCURVE",
"613 1493 CURVE",
"578 1493 LINE SMOOTH",
"571 1493 OFFCURVE",
"558 1481 OFFCURVE",
"539 1458 CURVE SMOOTH",
"439 1331 LINE SMOOTH",
"430 1320 OFFCURVE",
"424 1307 OFFCURVE",
"421 1293 CURVE SMOOTH",
"309 811 LINE",
"112 688 LINE SMOOTH",
"87 672 OFFCURVE",
"71 652 OFFCURVE",
"65 627 CURVE SMOOTH",
"40 521 LINE SMOOTH",
"33 491 OFFCURVE",
"47 487 OFFCURVE",
"83 510 CURVE SMOOTH"
);
}
);
width = 660;
},
{
layerId = "05202388-ED6B-49B3-97C3-39168626F3FE";
paths = (
{
closed = 1;
nodes = (
"207 547 LINE",
"211 547 LINE",
"203 522 OFFCURVE",
"196 496 OFFCURVE",
"189 467 CURVE SMOOTH",
"95 60 LINE SMOOTH",
"86 20 OFFCURVE",
"101 0 OFFCURVE",
"141 0 CURVE SMOOTH",
"301 0 LINE SMOOTH",
"341 0 OFFCURVE",
"366 20 OFFCURVE",
"375 60 CURVE SMOOTH",
"536 758 LINE",
"690 854 LINE SMOOTH",
"724 875 OFFCURVE",
"744 901 OFFCURVE",
"751 930 CURVE SMOOTH",
"787 1088 LINE SMOOTH",
"796 1125 OFFCURVE",
"779 1131 OFFCURVE",
"736 1104 CURVE SMOOTH",
"596 1016 LINE",
"592 1016 LINE",
"600 1041 OFFCURVE",
"607 1067 OFFCURVE",
"614 1096 CURVE SMOOTH",
"693 1436 LINE SMOOTH",
"702 1476 OFFCURVE",
"687 1496 OFFCURVE",
"646 1496 CURVE SMOOTH",
"576 1496 LINE SMOOTH",
"557 1496 OFFCURVE",
"537 1483 OFFCURVE",
"516 1458 CURVE SMOOTH",
"407 1323 LINE SMOOTH",
"388 1300 OFFCURVE",
"375 1272 OFFCURVE",
"368 1241 CURVE SMOOTH",
"267 805 LINE",
"124 715 LINE SMOOTH",
"90 694 OFFCURVE",
"70 668 OFFCURVE",
"63 638 CURVE SMOOTH",
"27 480 LINE SMOOTH",
"18 443 OFFCURVE",
"35 438 OFFCURVE",
"78 465 CURVE SMOOTH"
);
}
);
width = 692;
}
);
unicode = 0142;
},
{
glyphname = m;
lastChange = "2016-10-15 02:20:23 +0000";
layers = (
{
layerId = UUID0;
paths = (
{
closed = 1;
nodes = (
"153 0 LINE SMOOTH",
"183 0 OFFCURVE",
"201 15 OFFCURVE",
"208 45 CURVE SMOOTH",
"326 554 LINE SMOOTH",
"349 654 OFFCURVE",
"394 743 OFFCURVE",
"459 820 CURVE SMOOTH",
"525 898 OFFCURVE",
"588 937 OFFCURVE",
"648 937 CURVE SMOOTH",
"721 937 OFFCURVE",
"769 918 OFFCURVE",
"790 879 CURVE SMOOTH",
"811 840 OFFCURVE",
"807 756 OFFCURVE",
"777 626 CURVE SMOOTH",
"642 45 LINE SMOOTH",
"635 15 OFFCURVE",
"647 0 OFFCURVE",
"677 0 CURVE SMOOTH",
"763 0 LINE SMOOTH",
"793 0 OFFCURVE",
"811 15 OFFCURVE",
"818 45 CURVE SMOOTH",
"936 554 LINE SMOOTH",
"958 649 OFFCURVE",
"1002 736 OFFCURVE",
"1068 816 CURVE SMOOTH",
"1135 897 OFFCURVE",
"1198 937 OFFCURVE",
"1258 937 CURVE SMOOTH",
"1331 937 OFFCURVE",
"1379 918 OFFCURVE",
"1400 879 CURVE SMOOTH",
"1421 840 OFFCURVE",
"1417 756 OFFCURVE",
"1387 626 CURVE SMOOTH",
"1252 45 LINE SMOOTH",
"1245 15 OFFCURVE",
"1257 0 OFFCURVE",
"1287 0 CURVE SMOOTH",
"1373 0 LINE SMOOTH",
"1403 0 OFFCURVE",
"1421 15 OFFCURVE",
"1428 45 CURVE SMOOTH",
"1576 684 LINE SMOOTH",
"1603 803 OFFCURVE",
"1595 896 OFFCURVE",
"1550 964 CURVE SMOOTH",
"1505 1033 OFFCURVE",
"1436 1067 OFFCURVE",
"1343 1067 CURVE SMOOTH",
"1266 1067 OFFCURVE",
"1196 1042 OFFCURVE",
"1131 991 CURVE SMOOTH",
"1067 940 OFFCURVE",
"1014 888 OFFCURVE",
"972 833 CURVE",
"968 833 LINE",
"968 896 OFFCURVE",
"947 951 OFFCURVE",
"905 997 CURVE",
"864 1044 OFFCURVE",
"806 1067 OFFCURVE",
"733 1067 CURVE SMOOTH",
"673 1067 OFFCURVE",
"613 1049 OFFCURVE",
"553 1012 CURVE SMOOTH",
"494 975 OFFCURVE",
"444 933 OFFCURVE",
"405 885 CURVE",
"401 885 LINE",
"428 1005 LINE SMOOTH",
"435 1035 OFFCURVE",
"423 1050 OFFCURVE",
"393 1050 CURVE SMOOTH",
"309 1050 LINE SMOOTH",
"279 1050 OFFCURVE",
"261 1035 OFFCURVE",
"254 1005 CURVE SMOOTH",
"32 45 LINE SMOOTH",
"25 15 OFFCURVE",
"37 0 OFFCURVE",
"67 0 CURVE SMOOTH"
);
}
);
width = 1678;
},
{
layerId = "05202388-ED6B-49B3-97C3-39168626F3FE";
paths = (
{
closed = 1;
nodes = (
"236 0 LINE SMOOTH",
"276 0 OFFCURVE",
"301 20 OFFCURVE",
"310 60 CURVE SMOOTH",
"391 412 LINE SMOOTH",
"428 573 OFFCURVE",
"475 691 OFFCURVE",
"531 764 CURVE SMOOTH",
"587 837 OFFCURVE",
"638 874 OFFCURVE",
"684 874 CURVE SMOOTH",
"734 874 OFFCURVE",
"762 846 OFFCURVE",
"768 789 CURVE",
"775 733 OFFCURVE",
"762 637 OFFCURVE",
"731 500 CURVE SMOOTH",
"630 60 LINE SMOOTH",
"621 20 OFFCURVE",
"636 0 OFFCURVE",
"676 0 CURVE SMOOTH",
"836 0 LINE SMOOTH",
"876 0 OFFCURVE",
"901 20 OFFCURVE",
"910 60 CURVE SMOOTH",
"991 412 LINE SMOOTH",
"1037 611 OFFCURVE",
"1086 738 OFFCURVE",
"1137 792 CURVE SMOOTH",
"1188 847 OFFCURVE",
"1237 874 OFFCURVE",
"1284 874 CURVE SMOOTH",
"1384 874 OFFCURVE",
"1393 771 OFFCURVE",
"1336 520 CURVE SMOOTH",
"1230 60 LINE SMOOTH",
"1221 20 OFFCURVE",
"1236 0 OFFCURVE",
"1276 0 CURVE SMOOTH",
"1436 0 LINE SMOOTH",
"1476 0 OFFCURVE",
"1501 20 OFFCURVE",
"1510 60 CURVE SMOOTH",
"1635 600 LINE SMOOTH",
"1675 772 OFFCURVE",
"1667 893 OFFCURVE",
"1611 964 CURVE SMOOTH",
"1555 1035 OFFCURVE",
"1482 1070 OFFCURVE",
"1392 1070 CURVE SMOOTH",
"1220 1070 OFFCURVE",
"1107 988 OFFCURVE",
"1010 839 CURVE",
"1006 839 LINE",
"1006 898 OFFCURVE",
"988 951 OFFCURVE",
"951 998 CURVE",
"915 1046 OFFCURVE",
"855 1070 OFFCURVE",
"772 1070 CURVE SMOOTH",
"721 1070 OFFCURVE",
"672 1053 OFFCURVE",
"624 1019 CURVE SMOOTH",
"576 986 OFFCURVE",
"537 946 OFFCURVE",
"506 900 CURVE",
"502 900 LINE",
"523 990 LINE SMOOTH",
"532 1030 OFFCURVE",
"516 1050 OFFCURVE",
"476 1050 CURVE SMOOTH",
"318 1050 LINE SMOOTH",
"279 1050 OFFCURVE",
"254 1030 OFFCURVE",
"245 990 CURVE SMOOTH",
"30 60 LINE SMOOTH",
"21 20 OFFCURVE",
"36 0 OFFCURVE",
"76 0 CURVE SMOOTH"
);
}
);
width = 1750;
}
);
unicode = 006D;
},
{
glyphname = n;
lastChange = "2016-10-15 02:20:23 +0000";
layers = (
{
layerId = UUID0;
paths = (
{
closed = 1;
nodes = (
"153 0 LINE SMOOTH",
"183 0 OFFCURVE",
"201 15 OFFCURVE",
"208 45 CURVE SMOOTH",
"326 554 LINE SMOOTH",
"349 654 OFFCURVE",
"394 743 OFFCURVE",
"459 820 CURVE SMOOTH",
"525 898 OFFCURVE",
"598 937 OFFCURVE",
"678 937 CURVE SMOOTH",
"751 937 OFFCURVE",
"804 919 OFFCURVE",
"836 884 CURVE SMOOTH",
"868 849 OFFCURVE",
"869 767 OFFCURVE",
"839 636 CURVE SMOOTH",
"702 45 LINE SMOOTH",
"695 15 OFFCURVE",
"707 0 OFFCURVE",
"737 0 CURVE SMOOTH",
"823 0 LINE SMOOTH",
"853 0 OFFCURVE",
"871 15 OFFCURVE",
"878 45 CURVE SMOOTH",
"1026 684 LINE SMOOTH",
"1053 803 OFFCURVE",
"1046 896 OFFCURVE",
"1005 964 CURVE SMOOTH",
"964 1033 OFFCURVE",
"886 1067 OFFCURVE",
"773 1067 CURVE SMOOTH",
"693 1067 OFFCURVE",
"621 1049 OFFCURVE",
"558 1012 CURVE SMOOTH",
"495 976 OFFCURVE",
"444 934 OFFCURVE",
"405 885 CURVE",
"401 885 LINE",
"428 1005 LINE SMOOTH",
"435 1035 OFFCURVE",
"423 1050 OFFCURVE",
"393 1050 CURVE SMOOTH",
"309 1050 LINE SMOOTH",
"279 1050 OFFCURVE",
"261 1035 OFFCURVE",
"254 1005 CURVE SMOOTH",
"32 45 LINE SMOOTH",
"25 15 OFFCURVE",
"37 0 OFFCURVE",
"67 0 CURVE SMOOTH"
);
}
);
width = 1128;
},
{
layerId = "05202388-ED6B-49B3-97C3-39168626F3FE";
paths = (
{
closed = 1;
nodes = (
"236 0 LINE SMOOTH",
"276 0 OFFCURVE",
"301 20 OFFCURVE",
"310 60 CURVE SMOOTH",
"393 424 LINE SMOOTH",
"458 712 OFFCURVE",
"569 874 OFFCURVE",
"709 874 CURVE SMOOTH",
"764 874 OFFCURVE",
"800 854 OFFCURVE",
"816 814 CURVE SMOOTH",
"832 774 OFFCURVE",
"824 683 OFFCURVE",
"791 542 CURVE SMOOTH",
"680 60 LINE SMOOTH",
"671 20 OFFCURVE",
"686 0 OFFCURVE",
"726 0 CURVE SMOOTH",
"886 0 LINE SMOOTH",
"926 0 OFFCURVE",
"951 20 OFFCURVE",
"960 60 CURVE SMOOTH",
"1088 614 LINE SMOOTH",
"1125 775 OFFCURVE",
"1116 892 OFFCURVE",
"1061 963 CURVE SMOOTH",
"1006 1034 OFFCURVE",
"930 1070 OFFCURVE",
"833 1070 CURVE SMOOTH",
"766 1070 OFFCURVE",
"709 1059 OFFCURVE",
"660 1038 CURVE SMOOTH",
"612 1017 OFFCURVE",
"561 975 OFFCURVE",
"508 912 CURVE",
"504 912 LINE",
"523 990 LINE SMOOTH",
"533 1030 OFFCURVE",
"517 1050 OFFCURVE",
"476 1050 CURVE SMOOTH",
"318 1050 LINE SMOOTH",
"279 1050 OFFCURVE",
"254 1030 OFFCURVE",
"245 990 CURVE SMOOTH",
"30 60 LINE SMOOTH",
"21 20 OFFCURVE",
"36 0 OFFCURVE",
"76 0 CURVE SMOOTH"
);
}
);
width = 1200;
}
);
unicode = 006E;
},
{
glyphname = eng;
lastChange = "2016-10-15 02:20:23 +0000";
layers = (
{
layerId = UUID0;
paths = (
{
closed = 1;
nodes = (
"153 0 LINE SMOOTH",
"183 0 OFFCURVE",
"201 15 OFFCURVE",
"208 45 CURVE SMOOTH",
"326 554 LINE SMOOTH",
"349 654 OFFCURVE",
"394 743 OFFCURVE",
"459 820 CURVE SMOOTH",
"525 898 OFFCURVE",
"598 937 OFFCURVE",
"678 937 CURVE SMOOTH",
"751 937 OFFCURVE",
"804 919 OFFCURVE",
"836 884 CURVE SMOOTH",
"868 849 OFFCURVE",
"869 767 OFFCURVE",
"839 636 CURVE SMOOTH",
"692 6 LINE",
"665 -113 OFFCURVE",
"637 -192 OFFCURVE",
"609 -230 CURVE SMOOTH",
"581 -268 OFFCURVE",
"547 -287 OFFCURVE",
"508 -287 CURVE SMOOTH",
"471 -287 OFFCURVE",
"440 -281 OFFCURVE",
"417 -269 CURVE SMOOTH",
"403 -262 OFFCURVE",
"393 -267 OFFCURVE",
"388 -284 CURVE SMOOTH",
"363 -365 LINE SMOOTH",
"358 -380 OFFCURVE",
"362 -391 OFFCURVE",
"373 -397 CURVE SMOOTH",
"398 -410 OFFCURVE",
"444 -417 OFFCURVE",
"510 -417 CURVE SMOOTH",
"583 -417 OFFCURVE",
"649 -395 OFFCURVE",
"710 -352 CURVE SMOOTH",
"771 -309 OFFCURVE",
"816 -222 OFFCURVE",
"846 -93 CURVE SMOOTH",
"1026 684 LINE SMOOTH",
"1053 803 OFFCURVE",
"1046 896 OFFCURVE",
"1005 964 CURVE SMOOTH",
"964 1033 OFFCURVE",
"886 1067 OFFCURVE",
"773 1067 CURVE SMOOTH",
"693 1067 OFFCURVE",
"621 1049 OFFCURVE",
"558 1012 CURVE SMOOTH",
"495 976 OFFCURVE",
"444 934 OFFCURVE",
"405 885 CURVE",
"401 885 LINE",
"428 1005 LINE SMOOTH",
"435 1035 OFFCURVE",
"423 1050 OFFCURVE",
"393 1050 CURVE SMOOTH",
"309 1050 LINE SMOOTH",
"279 1050 OFFCURVE",
"261 1035 OFFCURVE",
"254 1005 CURVE SMOOTH",
"32 45 LINE SMOOTH",
"25 15 OFFCURVE",
"37 0 OFFCURVE",
"67 0 CURVE SMOOTH"
);
}
);
width = 1128;
},
{
layerId = "05202388-ED6B-49B3-97C3-39168626F3FE";
paths = (
{
closed = 1;
nodes = (
"236 0 LINE SMOOTH",
"276 0 OFFCURVE",
"301 20 OFFCURVE",
"310 60 CURVE SMOOTH",
"393 424 LINE SMOOTH",
"458 712 OFFCURVE",
"569 874 OFFCURVE",
"709 874 CURVE SMOOTH",
"764 874 OFFCURVE",
"800 854 OFFCURVE",
"816 814 CURVE SMOOTH",
"832 774 OFFCURVE",
"824 683 OFFCURVE",
"791 542 CURVE SMOOTH",
"672 26 LINE SMOOTH",
"635 -134 OFFCURVE",
"588 -224 OFFCURVE",
"491 -224 CURVE SMOOTH",
"479 -224 OFFCURVE",
"457 -221 OFFCURVE",
"424 -215 CURVE SMOOTH",
"396 -210 OFFCURVE",
"378 -220 OFFCURVE",
"370 -243 CURVE SMOOTH",
"333 -349 LINE SMOOTH",
"322 -379 OFFCURVE",
"329 -398 OFFCURVE",
"354 -405 CURVE SMOOTH",
"388 -415 OFFCURVE",
"435 -420 OFFCURVE",
"495 -420 CURVE SMOOTH",
"609 -420 OFFCURVE",
"703 -392 OFFCURVE",
"777 -336 CURVE SMOOTH",
"851 -280 OFFCURVE",
"907 -169 OFFCURVE",
"945 -4 CURVE SMOOTH",
"1088 614 LINE SMOOTH",
"1125 775 OFFCURVE",
"1116 892 OFFCURVE",
"1061 963 CURVE SMOOTH",
"1006 1034 OFFCURVE",
"930 1070 OFFCURVE",
"833 1070 CURVE SMOOTH",
"766 1070 OFFCURVE",
"709 1059 OFFCURVE",
"660 1038 CURVE SMOOTH",
"612 1017 OFFCURVE",
"561 975 OFFCURVE",
"508 912 CURVE",
"504 912 LINE",
"523 990 LINE SMOOTH",
"533 1030 OFFCURVE",
"517 1050 OFFCURVE",
"476 1050 CURVE SMOOTH",
"318 1050 LINE SMOOTH",
"279 1050 OFFCURVE",
"254 1030 OFFCURVE",
"245 990 CURVE SMOOTH",
"30 60 LINE SMOOTH",
"21 20 OFFCURVE",
"36 0 OFFCURVE",
"76 0 CURVE SMOOTH"
);
}
);
width = 1200;
}
);
unicode = 014B;
},
{
glyphname = o;
lastChange = "2016-10-15 02:20:23 +0000";
layers = (
{
layerId = UUID0;
paths = (
{
closed = 1;
nodes = (
"68 302 OFFCURVE",
"99 207 OFFCURVE",
"161 117 CURVE SMOOTH",
"223 28 OFFCURVE",
"332 -17 OFFCURVE",
"488 -17 CURVE SMOOTH",
"665 -17 OFFCURVE",
"807 50 OFFCURVE",
"916 183 CURVE SMOOTH",
"1025 317 OFFCURVE",
"1080 472 OFFCURVE",
"1080 648 CURVE SMOOTH",
"1080 748 OFFCURVE",
"1049 843 OFFCURVE",
"987 932 CURVE SMOOTH",
"925 1022 OFFCURVE",
"816 1067 OFFCURVE",
"660 1067 CURVE SMOOTH",
"483 1067 OFFCURVE",
"340 1000 OFFCURVE",
"231 866 CURVE SMOOTH",
"122 733 OFFCURVE",
"68 578 OFFCURVE",
"68 402 CURVE SMOOTH"
);
},
{
closed = 1;
nodes = (
"254 565 OFFCURVE",
"293 701 OFFCURVE",
"372 795 CURVE SMOOTH",
"451 890 OFFCURVE",
"543 937 OFFCURVE",
"647 937 CURVE SMOOTH",
"734 937 OFFCURVE",
"796 912 OFFCURVE",
"835 862 CURVE SMOOTH",
"874 813 OFFCURVE",
"894 746 OFFCURVE",
"894 663 CURVE SMOOTH",
"894 485 OFFCURVE",
"854 349 OFFCURVE",
"775 254 CURVE SMOOTH",
"696 160 OFFCURVE",
"605 113 OFFCURVE",
"501 113 CURVE SMOOTH",
"414 113 OFFCURVE",
"351 138 OFFCURVE",
"312 187 CURVE SMOOTH",
"273 237 OFFCURVE",
"254 304 OFFCURVE",
"254 387 CURVE SMOOTH"
);
}
);
width = 1148;
},
{
layerId = "05202388-ED6B-49B3-97C3-39168626F3FE";
paths = (
{
closed = 1;
nodes = (
"58 295 OFFCURVE",
"91 194 OFFCURVE",
"158 108 CURVE SMOOTH",
"225 23 OFFCURVE",
"345 -20 OFFCURVE",
"518 -20 CURVE SMOOTH",
"718 -20 OFFCURVE",
"873 52 OFFCURVE",
"984 196 CURVE SMOOTH",
"1095 341 OFFCURVE",
"1150 488 OFFCURVE",
"1150 638 CURVE SMOOTH",
"1150 755 OFFCURVE",
"1117 856 OFFCURVE",
"1050 941 CURVE SMOOTH",
"983 1027 OFFCURVE",
"863 1070 OFFCURVE",
"690 1070 CURVE SMOOTH",
"490 1070 OFFCURVE",
"335 998 OFFCURVE",
"224 853 CURVE SMOOTH",
"113 709 OFFCURVE",
"58 562 OFFCURVE",
"58 412 CURVE SMOOTH"
);
},
{
closed = 1;
nodes = (
"354 540 OFFCURVE",
"386 660 OFFCURVE",
"450 745 CURVE SMOOTH",
"515 831 OFFCURVE",
"589 874 OFFCURVE",
"672 874 CURVE SMOOTH",
"785 874 OFFCURVE",
"854 796 OFFCURVE",
"854 663 CURVE SMOOTH",
"854 510 OFFCURVE",
"822 390 OFFCURVE",
"757 304 CURVE SMOOTH",
"693 219 OFFCURVE",
"619 176 OFFCURVE",
"536 176 CURVE SMOOTH",
"423 176 OFFCURVE",
"354 254 OFFCURVE",
"354 387 CURVE SMOOTH"
);
}
);
width = 1206;
}
);
unicode = 006F;
},
{
glyphname = oslash;
lastChange = "2016-10-15 02:20:23 +0000";
layers = (
{
layerId = UUID0;
paths = (
{
closed = 1;
nodes = (
"68 336 OFFCURVE",
"82 272 OFFCURVE",
"109 211 CURVE",
"16 131 LINE SMOOTH",
"-7 111 OFFCURVE",
"-10 92 OFFCURVE",
"5 75 CURVE SMOOTH",
"44 31 LINE SMOOTH",
"60 13 OFFCURVE",
"79 14 OFFCURVE",
"102 33 CURVE SMOOTH",
"177 97 LINE",
"240 21 OFFCURVE",
"344 -17 OFFCURVE",
"488 -17 CURVE SMOOTH",
"665 -17 OFFCURVE",
"807 50 OFFCURVE",
"916 183 CURVE SMOOTH",
"1025 317 OFFCURVE",
"1080 472 OFFCURVE",
"1080 648 CURVE SMOOTH",
"1080 714 OFFCURVE",
"1066 778 OFFCURVE",
"1039 839 CURVE",
"1132 919 LINE SMOOTH",
"1155 939 OFFCURVE",
"1158 958 OFFCURVE",
"1143 975 CURVE SMOOTH",
"1104 1019 LINE SMOOTH",
"1088 1037 OFFCURVE",
"1069 1036 OFFCURVE",
"1046 1017 CURVE SMOOTH",
"971 953 LINE",
"908 1029 OFFCURVE",
"804 1067 OFFCURVE",
"660 1067 CURVE SMOOTH",
"483 1067 OFFCURVE",
"340 1000 OFFCURVE",
"231 866 CURVE SMOOTH",
"122 733 OFFCURVE",
"68 578 OFFCURVE",
"68 402 CURVE SMOOTH"
);
},
{
closed = 1;
nodes = (
"254 565 OFFCURVE",
"293 701 OFFCURVE",
"372 795 CURVE SMOOTH",
"451 890 OFFCURVE",
"543 937 OFFCURVE",
"647 937 CURVE SMOOTH",
"740 937 OFFCURVE",
"807 907 OFFCURVE",
"847 846 CURVE",
"256 338 LINE",
"255 354 OFFCURVE",
"254 370 OFFCURVE",
"254 387 CURVE SMOOTH"
);
},
{
closed = 1;
nodes = (
"892 712 LINE",
"893 697 OFFCURVE",
"894 680 OFFCURVE",
"894 663 CURVE SMOOTH",
"894 485 OFFCURVE",
"854 349 OFFCURVE",
"775 254 CURVE SMOOTH",
"696 160 OFFCURVE",
"605 113 OFFCURVE",
"501 113 CURVE SMOOTH",
"408 113 OFFCURVE",
"341 143 OFFCURVE",
"301 204 CURVE"
);
}
);
width = 1148;
},
{
layerId = "05202388-ED6B-49B3-97C3-39168626F3FE";
paths = (
{
closed = 1;
nodes = (
"58 340 OFFCURVE",
"71 274 OFFCURVE",
"96 213 CURVE",
"40 164 LINE SMOOTH",
"9 137 OFFCURVE",
"5 112 OFFCURVE",
"27 87 CURVE SMOOTH",
"94 12 LINE SMOOTH",
"117 -13 OFFCURVE",
"143 -13 OFFCURVE",
"172 13 CURVE SMOOTH",
"217 53 LINE",
"287 4 OFFCURVE",
"387 -20 OFFCURVE",
"518 -20 CURVE SMOOTH",
"718 -20 OFFCURVE",
"873 52 OFFCURVE",
"984 196 CURVE SMOOTH",
"1095 341 OFFCURVE",
"1150 488 OFFCURVE",
"1150 638 CURVE SMOOTH",
"1150 711 OFFCURVE",
"1137 777 OFFCURVE",
"1112 837 CURVE",
"1168 886 LINE SMOOTH",
"1199 913 OFFCURVE",
"1203 938 OFFCURVE",
"1181 963 CURVE SMOOTH",
"1114 1038 LINE SMOOTH",
"1091 1063 OFFCURVE",
"1065 1063 OFFCURVE",
"1036 1037 CURVE SMOOTH",
"991 997 LINE",
"921 1046 OFFCURVE",
"821 1070 OFFCURVE",
"690 1070 CURVE SMOOTH",
"490 1070 OFFCURVE",
"335 998 OFFCURVE",
"224 853 CURVE SMOOTH",
"113 709 OFFCURVE",
"58 562 OFFCURVE",
"58 412 CURVE SMOOTH"
);
},
{
closed = 1;
nodes = (
"350 447 LINE",
"350 556 OFFCURVE",
"383 654 OFFCURVE",
"448 742 CURVE SMOOTH",
"514 830 OFFCURVE",
"589 874 OFFCURVE",
"672 874 CURVE SMOOTH",
"727 874 OFFCURVE",
"769 859 OFFCURVE",
"797 828 CURVE",
"350 436 LINE"
);
},
{
closed = 1;
nodes = (
"858 614 LINE",
"858 603 LINE SMOOTH",
"858 494 OFFCURVE",
"825 396 OFFCURVE",
"759 308 CURVE SMOOTH",
"694 220 OFFCURVE",
"619 176 OFFCURVE",
"536 176 CURVE SMOOTH",
"481 176 OFFCURVE",
"439 191 OFFCURVE",
"411 222 CURVE"
);
}
);
width = 1206;
}
);
unicode = 00F8;
},
{
glyphname = p;
lastChange = "2016-10-15 02:20:23 +0000";
layers = (
{
layerId = UUID0;
paths = (
{
closed = 1;
nodes = (
"61 -400 LINE",
"91 -400 OFFCURVE",
"109 -385 OFFCURVE",
"116 -355 CURVE SMOOTH",
"211 57 LINE SMOOTH",
"216 79 OFFCURVE",
"220 99 OFFCURVE",
"223 118 CURVE",
"225 118 LINE",
"259 73 OFFCURVE",
"297 39 OFFCURVE",
"338 16 CURVE SMOOTH",
"379 -6 OFFCURVE",
"437 -17 OFFCURVE",
"511 -17 CURVE SMOOTH",
"656 -17 OFFCURVE",
"783 55 OFFCURVE",
"890 199 CURVE SMOOTH",
"997 344 OFFCURVE",
"1051 501 OFFCURVE",
"1051 671 CURVE SMOOTH",
"1051 780 OFFCURVE",
"1026 873 OFFCURVE",
"976 950 CURVE",
"927 1028 OFFCURVE",
"839 1067 OFFCURVE",
"712 1067 CURVE SMOOTH",
"659 1067 OFFCURVE",
"601 1050 OFFCURVE",
"539 1015 CURVE SMOOTH",
"477 981 OFFCURVE",
"431 938 OFFCURVE",
"402 885 CURVE",
"400 885 LINE",
"422 1005 LINE SMOOTH",
"427 1035 OFFCURVE",
"418 1050 OFFCURVE",
"393 1050 CURVE SMOOTH",
"309 1050 LINE SMOOTH",
"279 1050 OFFCURVE",
"261 1035 OFFCURVE",
"254 1005 CURVE SMOOTH",
"-60 -355 LINE SMOOTH",
"-67 -385 OFFCURVE",
"-55 -400 OFFCURVE",
"-25 -400 CURVE SMOOTH"
);
},
{
closed = 1;
nodes = (
"330 570 LINE",
"351 658 OFFCURVE",
"395 741 OFFCURVE",
"462 819 CURVE SMOOTH",
"530 898 OFFCURVE",
"597 937 OFFCURVE",
"662 937 CURVE SMOOTH",
"737 937 OFFCURVE",
"790 911 OFFCURVE",
"820 859 CURVE SMOOTH",
"850 808 OFFCURVE",
"865 747 OFFCURVE",
"865 678 CURVE SMOOTH",
"865 527 OFFCURVE",
"829 395 OFFCURVE",
"757 282 CURVE SMOOTH",
"685 169 OFFCURVE",
"598 113 OFFCURVE",
"497 113 CURVE SMOOTH",
"422 113 OFFCURVE",
"367 126 OFFCURVE",
"330 151 CURVE SMOOTH",
"293 177 OFFCURVE",
"272 223 OFFCURVE",
"265 290 CURVE"
);
}
);
width = 1119;
},
{
layerId = "05202388-ED6B-49B3-97C3-39168626F3FE";
paths = (
{
closed = 1;
nodes = (
"144 -400 LINE",
"184 -400 OFFCURVE",
"209 -380 OFFCURVE",
"218 -340 CURVE SMOOTH",
"300 16 LINE SMOOTH",
"306 41 OFFCURVE",
"311 68 OFFCURVE",
"314 96 CURVE",
"318 96 LINE",
"351 44 OFFCURVE",
"394 12 OFFCURVE",
"446 -1 CURVE SMOOTH",
"498 -14 OFFCURVE",
"548 -20 OFFCURVE",
"596 -20 CURVE SMOOTH",
"737 -20 OFFCURVE",
"861 48 OFFCURVE",
"968 184 CURVE SMOOTH",
"1075 320 OFFCURVE",
"1129 476 OFFCURVE",
"1129 651 CURVE SMOOTH",
"1129 757 OFFCURVE",
"1101 853 OFFCURVE",
"1046 940 CURVE SMOOTH",
"991 1027 OFFCURVE",
"898 1070 OFFCURVE",
"766 1070 CURVE SMOOTH",
"717 1070 OFFCURVE",
"674 1058 OFFCURVE",
"636 1034 CURVE SMOOTH",
"598 1010 OFFCURVE",
"555 969 OFFCURVE",
"507 912 CURVE",
"503 912 LINE",
"517 990 LINE SMOOTH",
"524 1030 OFFCURVE",
"511 1050 OFFCURVE",
"476 1050 CURVE SMOOTH",
"318 1050 LINE SMOOTH",
"279 1050 OFFCURVE",
"254 1030 OFFCURVE",
"245 990 CURVE SMOOTH",
"-62 -340 LINE SMOOTH",
"-71 -380 OFFCURVE",
"-56 -400 OFFCURVE",
"-16 -400 CURVE SMOOTH"
);
},
{
closed = 1;
nodes = (
"418 528 LINE",
"444 640 OFFCURVE",
"484 726 OFFCURVE",
"537 785 CURVE SMOOTH",
"591 844 OFFCURVE",
"641 874 OFFCURVE",
"688 874 CURVE SMOOTH",
"779 874 OFFCURVE",
"833 809 OFFCURVE",
"833 670 CURVE SMOOTH",
"833 543 OFFCURVE",
"808 429 OFFCURVE",
"758 328 CURVE SMOOTH",
"708 227 OFFCURVE",
"638 176 OFFCURVE",
"548 176 CURVE SMOOTH",
"481 176 OFFCURVE",
"437 192 OFFCURVE",
"414 225 CURVE SMOOTH",
"392 258 OFFCURVE",
"381 306 OFFCURVE",
"381 370 CURVE"
);
}
);
width = 1192;
}
);
unicode = 0070;
},
{
glyphname = thorn;
lastChange = "2016-10-15 02:20:23 +0000";
layers = (
{
layerId = UUID0;
paths = (
{
closed = 1;
nodes = (
"61 -400 LINE",
"91 -400 OFFCURVE",
"109 -385 OFFCURVE",
"116 -355 CURVE SMOOTH",
"211 57 LINE SMOOTH",
"216 79 OFFCURVE",
"220 99 OFFCURVE",
"223 118 CURVE",
"225 118 LINE",
"259 73 OFFCURVE",
"297 39 OFFCURVE",
"338 16 CURVE SMOOTH",
"379 -6 OFFCURVE",
"437 -17 OFFCURVE",
"511 -17 CURVE SMOOTH",
"656 -17 OFFCURVE",
"783 55 OFFCURVE",
"890 199 CURVE SMOOTH",
"997 344 OFFCURVE",
"1051 501 OFFCURVE",
"1051 671 CURVE SMOOTH",
"1051 780 OFFCURVE",
"1026 873 OFFCURVE",
"976 950 CURVE",
"927 1028 OFFCURVE",
"839 1067 OFFCURVE",
"712 1067 CURVE SMOOTH",
"659 1067 OFFCURVE",
"601 1050 OFFCURVE",
"539 1015 CURVE SMOOTH",
"477 981 OFFCURVE",
"431 938 OFFCURVE",
"402 885 CURVE",
"400 885 LINE",
"416 946 LINE",
"528 1431 LINE SMOOTH",
"535 1461 OFFCURVE",
"523 1476 OFFCURVE",
"493 1476 CURVE SMOOTH",
"407 1476 LINE SMOOTH",
"377 1476 OFFCURVE",
"359 1461 OFFCURVE",
"352 1431 CURVE SMOOTH",
"-60 -355 LINE SMOOTH",
"-67 -385 OFFCURVE",
"-55 -400 OFFCURVE",
"-25 -400 CURVE SMOOTH"
);
},
{
closed = 1;
nodes = (
"330 570 LINE",
"351 658 OFFCURVE",
"395 741 OFFCURVE",
"462 819 CURVE SMOOTH",
"530 898 OFFCURVE",
"597 937 OFFCURVE",
"662 937 CURVE SMOOTH",
"737 937 OFFCURVE",
"790 911 OFFCURVE",
"820 859 CURVE SMOOTH",
"850 808 OFFCURVE",
"865 747 OFFCURVE",
"865 678 CURVE SMOOTH",
"865 527 OFFCURVE",
"829 395 OFFCURVE",
"757 282 CURVE SMOOTH",
"685 169 OFFCURVE",
"598 113 OFFCURVE",
"497 113 CURVE SMOOTH",
"422 113 OFFCURVE",
"367 126 OFFCURVE",
"330 151 CURVE SMOOTH",
"293 177 OFFCURVE",
"272 223 OFFCURVE",
"265 290 CURVE"
);
}
);
width = 1119;
},
{
layerId = "05202388-ED6B-49B3-97C3-39168626F3FE";
paths = (
{
closed = 1;
nodes = (
"144 -400 LINE",
"184 -400 OFFCURVE",
"209 -380 OFFCURVE",
"218 -340 CURVE SMOOTH",
"300 16 LINE SMOOTH",
"306 41 OFFCURVE",
"311 68 OFFCURVE",
"314 96 CURVE",
"318 96 LINE",
"351 44 OFFCURVE",
"394 12 OFFCURVE",
"446 -1 CURVE SMOOTH",
"498 -14 OFFCURVE",
"548 -20 OFFCURVE",
"596 -20 CURVE SMOOTH",
"737 -20 OFFCURVE",
"861 48 OFFCURVE",
"968 184 CURVE SMOOTH",
"1075 320 OFFCURVE",
"1129 476 OFFCURVE",
"1129 651 CURVE SMOOTH",
"1129 757 OFFCURVE",
"1101 853 OFFCURVE",
"1046 940 CURVE SMOOTH",
"991 1027 OFFCURVE",
"898 1070 OFFCURVE",
"766 1070 CURVE SMOOTH",
"717 1070 OFFCURVE",
"674 1058 OFFCURVE",
"636 1034 CURVE SMOOTH",
"598 1010 OFFCURVE",
"555 969 OFFCURVE",
"507 912 CURVE",
"503 912 LINE",
"512 938 OFFCURVE",
"520 965 OFFCURVE",
"526 992 CURVE SMOOTH",
"623 1416 LINE SMOOTH",
"632 1456 OFFCURVE",
"617 1476 OFFCURVE",
"577 1476 CURVE SMOOTH",
"417 1476 LINE SMOOTH",
"377 1476 OFFCURVE",
"352 1456 OFFCURVE",
"343 1416 CURVE SMOOTH",
"-62 -340 LINE SMOOTH",
"-71 -380 OFFCURVE",
"-56 -400 OFFCURVE",
"-16 -400 CURVE SMOOTH"
);
},
{
closed = 1;
nodes = (
"418 528 LINE",
"444 640 OFFCURVE",
"484 726 OFFCURVE",
"537 785 CURVE SMOOTH",
"591 844 OFFCURVE",
"641 874 OFFCURVE",
"688 874 CURVE SMOOTH",
"779 874 OFFCURVE",
"833 809 OFFCURVE",
"833 670 CURVE SMOOTH",
"833 543 OFFCURVE",
"808 429 OFFCURVE",
"758 328 CURVE SMOOTH",
"708 227 OFFCURVE",
"638 176 OFFCURVE",
"548 176 CURVE SMOOTH",
"481 176 OFFCURVE",
"437 192 OFFCURVE",
"414 225 CURVE SMOOTH",
"392 258 OFFCURVE",
"381 306 OFFCURVE",
"381 370 CURVE"
);
}
);
width = 1192;
}
);
unicode = 00FE;
},
{
glyphname = q;
lastChange = "2016-10-15 02:20:23 +0000";
layers = (
{
layerId = UUID0;
paths = (
{
closed = 1;
nodes = (
"70 270 OFFCURVE",
"95 177 OFFCURVE",
"144 99 CURVE",
"194 22 OFFCURVE",
"282 -17 OFFCURVE",
"409 -17 CURVE SMOOTH",
"462 -17 OFFCURVE",
"520 0 OFFCURVE",
"582 34 CURVE SMOOTH",
"644 69 OFFCURVE",
"690 112 OFFCURVE",
"719 165 CURVE",
"721 165 LINE",
"716 149 OFFCURVE",
"711 129 OFFCURVE",
"705 104 CURVE SMOOTH",
"599 -355 LINE SMOOTH",
"592 -385 OFFCURVE",
"604 -400 OFFCURVE",
"634 -400 CURVE SMOOTH",
"720 -400 LINE SMOOTH",
"750 -400 OFFCURVE",
"768 -385 OFFCURVE",
"775 -355 CURVE SMOOTH",
"1089 1005 LINE SMOOTH",
"1096 1035 OFFCURVE",
"1084 1050 OFFCURVE",
"1054 1050 CURVE SMOOTH",
"970 1050 LINE SMOOTH",
"947 1050 OFFCURVE",
"930 1035 OFFCURVE",
"921 1005 CURVE SMOOTH",
"898 932 LINE",
"896 932 LINE",
"862 977 OFFCURVE",
"824 1011 OFFCURVE",
"783 1033 CURVE SMOOTH",
"742 1056 OFFCURVE",
"684 1067 OFFCURVE",
"610 1067 CURVE SMOOTH",
"465 1067 OFFCURVE",
"338 995 OFFCURVE",
"231 850 CURVE SMOOTH",
"124 706 OFFCURVE",
"70 549 OFFCURVE",
"70 379 CURVE SMOOTH"
);
},
{
closed = 1;
nodes = (
"256 523 OFFCURVE",
"292 654 OFFCURVE",
"364 767 CURVE SMOOTH",
"436 880 OFFCURVE",
"523 937 OFFCURVE",
"624 937 CURVE SMOOTH",
"699 937 OFFCURVE",
"754 924 OFFCURVE",
"791 898 CURVE SMOOTH",
"828 873 OFFCURVE",
"849 827 OFFCURVE",
"856 760 CURVE",
"791 480 LINE SMOOTH",
"770 392 OFFCURVE",
"726 309 OFFCURVE",
"658 230 CURVE SMOOTH",
"591 152 OFFCURVE",
"524 113 OFFCURVE",
"459 113 CURVE SMOOTH",
"384 113 OFFCURVE",
"331 139 OFFCURVE",
"301 190 CURVE SMOOTH",
"271 242 OFFCURVE",
"256 303 OFFCURVE",
"256 372 CURVE SMOOTH"
);
}
);
width = 1119;
},
{
layerId = "05202388-ED6B-49B3-97C3-39168626F3FE";
paths = (
{
closed = 1;
nodes = (
"66 293 OFFCURVE",
"93 197 OFFCURVE",
"148 110 CURVE SMOOTH",
"203 23 OFFCURVE",
"297 -20 OFFCURVE",
"429 -20 CURVE SMOOTH",
"478 -20 OFFCURVE",
"521 -8 OFFCURVE",
"559 16 CURVE SMOOTH",
"597 40 OFFCURVE",
"640 81 OFFCURVE",
"688 138 CURVE",
"692 138 LINE",
"684 113 OFFCURVE",
"677 87 OFFCURVE",
"670 58 CURVE SMOOTH",
"578 -340 LINE SMOOTH",
"569 -380 OFFCURVE",
"584 -400 OFFCURVE",
"624 -400 CURVE SMOOTH",
"784 -400 LINE SMOOTH",
"824 -400 OFFCURVE",
"849 -380 OFFCURVE",
"858 -340 CURVE SMOOTH",
"1165 990 LINE SMOOTH",
"1174 1030 OFFCURVE",
"1159 1050 OFFCURVE",
"1118 1050 CURVE SMOOTH",
"960 1050 LINE SMOOTH",
"929 1050 OFFCURVE",
"906 1030 OFFCURVE",
"893 990 CURVE SMOOTH",
"881 954 LINE",
"877 954 LINE",
"844 1006 OFFCURVE",
"801 1038 OFFCURVE",
"749 1051 CURVE SMOOTH",
"697 1064 OFFCURVE",
"647 1070 OFFCURVE",
"599 1070 CURVE SMOOTH",
"458 1070 OFFCURVE",
"333 1002 OFFCURVE",
"226 866 CURVE SMOOTH",
"119 730 OFFCURVE",
"66 574 OFFCURVE",
"66 399 CURVE SMOOTH"
);
},
{
closed = 1;
nodes = (
"362 507 OFFCURVE",
"387 621 OFFCURVE",
"437 722 CURVE SMOOTH",
"487 823 OFFCURVE",
"557 874 OFFCURVE",
"647 874 CURVE SMOOTH",
"714 874 OFFCURVE",
"758 858 OFFCURVE",
"780 825 CURVE SMOOTH",
"803 792 OFFCURVE",
"814 744 OFFCURVE",
"814 680 CURVE",
"777 522 LINE SMOOTH",
"751 410 OFFCURVE",
"711 324 OFFCURVE",
"657 265 CURVE SMOOTH",
"604 206 OFFCURVE",
"554 176 OFFCURVE",
"507 176 CURVE SMOOTH",
"416 176 OFFCURVE",
"362 241 OFFCURVE",
"362 380 CURVE SMOOTH"
);
}
);
width = 1192;
}
);
unicode = 0071;
},
{
glyphname = r;
lastChange = "2016-10-15 02:20:23 +0000";
layers = (
{
layerId = UUID0;
paths = (
{
closed = 1;
nodes = (
"153 0 LINE SMOOTH",
"183 0 OFFCURVE",
"201 15 OFFCURVE",
"208 45 CURVE SMOOTH",
"315 504 LINE SMOOTH",
"338 604 OFFCURVE",
"387 701 OFFCURVE",
"462 795 CURVE SMOOTH",
"537 890 OFFCURVE",
"610 937 OFFCURVE",
"683 937 CURVE SMOOTH",
"706 937 OFFCURVE",
"729 935 OFFCURVE",
"752 930 CURVE SMOOTH",
"767 927 OFFCURVE",
"776 932 OFFCURVE",
"781 944 CURVE SMOOTH",
"814 1026 LINE SMOOTH",
"820 1041 OFFCURVE",
"817 1051 OFFCURVE",
"804 1056 CURVE SMOOTH",
"788 1063 OFFCURVE",
"760 1067 OFFCURVE",
"721 1067 CURVE SMOOTH",
"584 1067 OFFCURVE",
"491 996 OFFCURVE",
"395 845 CURVE",
"391 845 LINE",
"428 1005 LINE SMOOTH",
"435 1035 OFFCURVE",
"423 1050 OFFCURVE",
"393 1050 CURVE SMOOTH",
"309 1050 LINE SMOOTH",
"279 1050 OFFCURVE",
"261 1035 OFFCURVE",
"254 1005 CURVE SMOOTH",
"32 45 LINE SMOOTH",
"25 15 OFFCURVE",
"37 0 OFFCURVE",
"67 0 CURVE SMOOTH"
);
}
);
width = 722;
},
{
layerId = "05202388-ED6B-49B3-97C3-39168626F3FE";
paths = (
{
closed = 1;
nodes = (
"236 0 LINE SMOOTH",
"276 0 OFFCURVE",
"301 20 OFFCURVE",
"310 60 CURVE SMOOTH",
"376 347 LINE SMOOTH",
"415 517 OFFCURVE",
"467 647 OFFCURVE",
"532 738 CURVE SMOOTH",
"597 829 OFFCURVE",
"660 874 OFFCURVE",
"720 874 CURVE SMOOTH",
"740 874 OFFCURVE",
"758 871 OFFCURVE",
"774 865 CURVE SMOOTH",
"803 854 OFFCURVE",
"823 862 OFFCURVE",
"833 889 CURVE SMOOTH",
"877 1008 LINE SMOOTH",
"886 1032 OFFCURVE",
"880 1048 OFFCURVE",
"861 1056 CURVE SMOOTH",
"838 1065 OFFCURVE",
"808 1070 OFFCURVE",
"769 1070 CURVE SMOOTH",
"710 1070 OFFCURVE",
"657 1050 OFFCURVE",
"609 1011 CURVE SMOOTH",
"561 972 OFFCURVE",
"523 924 OFFCURVE",
"495 867 CURVE",
"491 867 LINE",
"519 990 LINE SMOOTH",
"528 1030 OFFCURVE",
"513 1050 OFFCURVE",
"472 1050 CURVE SMOOTH",
"318 1050 LINE SMOOTH",
"279 1050 OFFCURVE",
"254 1030 OFFCURVE",
"245 990 CURVE SMOOTH",
"30 60 LINE SMOOTH",
"21 20 OFFCURVE",
"36 0 OFFCURVE",
"76 0 CURVE SMOOTH"
);
}
);
width = 786;
}
);
unicode = 0072;
},
